# Blender 3.4.1
# www.blender.org
mtllib mbushreg_0.mtl
o mbushreg_0
v 1.179138 -0.147934 1.067050
v -1.038242 -0.106220 1.195502
v 0.999137 2.350064 1.469638
v -0.631974 2.385883 1.638865
v -0.044246 -0.210518 -0.107983
v -0.033285 2.318548 0.788047
v 1.201332 1.348375 0.964246
v -1.016049 1.390088 1.092698
v -0.054865 1.299548 -0.017615
v -1.121289 -0.147934 -1.278232
v 1.098706 -0.106220 -1.208230
v -0.906068 2.350065 -1.663144
v 0.733638 2.385884 -1.686090
v -0.007682 -0.210518 0.001319
v 0.061387 2.318549 -0.892112
v -1.152571 1.348375 -1.177820
v 1.067424 1.390089 -1.107818
v 0.010961 1.299549 -0.087740
v -1.241224 -0.147934 1.046087
v -1.237406 -0.106220 -1.175009
v -1.632380 2.350064 0.842431
v -1.704176 2.385883 -0.795863
v 0.004574 -0.210518 -0.105155
v -0.890518 2.318549 -0.147571
v -1.139925 1.348375 1.074362
v -1.136107 1.390089 -1.146733
v -0.085001 1.299549 -0.121136
v 1.190854 -0.147933 -1.204070
v 1.169803 -0.106220 1.016928
v 1.580418 2.350064 -0.997385
v 1.639500 2.385883 0.641416
v -0.063839 -0.210518 -0.062529
v 0.830897 2.318549 -0.013170
v 1.089777 1.348375 -1.233131
v 1.068726 1.390089 0.987868
v 0.025610 1.299549 -0.045853
v 0.061522 -0.149475 -1.668010
v 1.483241 -0.487086 0.005236
v 1.121645 2.152628 -1.772559
v 2.225834 1.893963 -0.587526
v -0.127114 -0.163742 0.018852
v 1.204580 2.097788 -0.539040
v 0.357048 1.320421 -1.622530
v 1.778767 0.982811 0.050715
v 0.338830 1.274753 -0.028150
v -1.505906 -0.600724 -0.569088
v 0.420351 -0.559010 -1.674896
v -1.524785 1.897274 -1.009681
v -0.141224 1.933094 -1.889976
v 0.113623 -0.663309 -0.064611
v -0.296598 1.865759 -0.861297
v -1.479820 0.895585 -0.467203
v 0.446437 0.937298 -1.573011
v 0.082739 0.846758 -0.150199
v -0.231037 0.205272 1.258293
v -1.510581 0.440525 -0.542386
v -1.097080 2.510564 1.866629
v -2.101442 2.668634 0.579496
v 0.115368 0.584825 -0.359493
v -1.066612 2.768722 0.656720
v -0.395075 1.664290 1.565472
v -1.674618 1.899542 -0.235206
v -0.229162 2.008981 0.016884
v 0.597841 -0.957409 1.499300
v -1.414404 -0.915695 0.559009
v 0.248203 1.540590 1.768059
v -1.267512 1.576409 1.142146
v 0.079478 -1.019993 -0.115838
v -0.336519 1.509074 0.677848
v 0.666205 0.538900 1.419379
v -1.346040 0.580614 0.479088
v 0.027206 0.490074 -0.041361
vn 0.5942 0.2711 -0.7573
vn -0.0910 0.2836 -0.9546
vn -0.1299 0.6203 -0.7735
vn 0.4964 0.5033 -0.7073
vn -0.0721 -0.0038 -0.9974
vn -0.7770 0.0004 -0.6294
vn -0.7379 0.2782 -0.6149
vn -0.6538 0.5080 -0.5609
vn 0.6564 -0.0056 -0.7544
vn -0.6594 0.2711 0.7012
vn 0.0054 0.2836 0.9589
vn 0.0603 0.6203 0.7820
vn -0.5576 0.5033 0.6602
vn -0.0172 -0.0038 0.9998
vn 0.7178 0.0004 0.6963
vn 0.6801 0.2782 0.6783
vn 0.6011 0.5080 0.6170
vn -0.7212 -0.0056 0.6927
vn 0.7205 0.2711 0.6382
vn 0.9583 0.2836 -0.0340
vn 0.7799 0.6203 -0.0836
vn 0.6765 0.5033 0.5377
vn 0.9999 -0.0038 -0.0126
vn 0.6746 0.0004 -0.7382
vn 0.6577 0.2782 -0.7000
vn 0.5988 0.5080 -0.6192
vn 0.7139 -0.0056 0.7002
vn -0.7156 0.2711 -0.6438
vn -0.9586 0.2836 0.0265
vn -0.7805 0.6203 0.0775
vn -0.6723 0.5033 -0.5429
vn -1.0000 -0.0038 0.0048
vn -0.6803 0.0004 0.7329
vn -0.6631 0.2782 0.6949
vn -0.6036 0.5080 0.6145
vn -0.7085 -0.0056 -0.7057
vn -0.8596 0.5109 -0.0053
vn -0.6013 0.4547 0.6570
vn -0.3530 0.7367 0.5767
vn -0.7035 0.7095 0.0413
vn -0.7195 0.1887 0.6683
vn -0.0202 0.0058 0.9998
vn 0.0396 0.2774 0.9599
vn 0.0904 0.5016 0.8603
vn -0.9659 0.2529 -0.0563
vn -0.1931 0.2711 0.9430
vn 0.5080 0.2836 0.8133
vn 0.4618 0.6203 0.6340
vn -0.1280 0.5033 0.8546
vn 0.5102 -0.0038 0.8600
vn 0.9764 0.0004 0.2159
vn 0.9349 0.2782 0.2203
vn 0.8355 0.5080 0.2096
vn -0.2501 -0.0056 0.9682
vn 0.8955 0.4000 0.1954
vn 0.6975 0.5354 -0.4762
vn 0.4675 0.8139 -0.3450
vn 0.7619 0.6193 0.1896
vn 0.7933 0.2694 -0.5460
vn 0.1157 0.2484 -0.9617
vn 0.0756 0.5067 -0.8588
vn 0.0348 0.7038 -0.7095
vn 0.9741 0.1275 0.1868
vn 0.8826 0.2711 -0.3841
vn 0.3734 0.2836 -0.8832
vn 0.2532 0.6203 -0.7424
vn 0.7728 0.5033 -0.3866
vn 0.4103 -0.0038 -0.9119
vn -0.3848 0.0004 -0.9230
vn -0.3573 0.2782 -0.8916
vn -0.3088 0.5080 -0.8041
vn 0.9360 -0.0056 -0.3520
vt 0.000000 0.000000
vt 1.000000 0.000000
vt 0.000000 1.000000
vt 1.000000 1.000000
vt 0.531626 0.000000
vt 0.561079 1.000000
vt 0.000000 0.500000
vt 1.000000 0.500000
vt 0.546352 0.500000
vt 0.000000 0.000000
vt 1.000000 0.000000
vt 0.000000 1.000000
vt 1.000000 1.000000
vt 0.531626 0.000000
vt 0.561079 1.000000
vt 0.000000 0.500000
vt 1.000000 0.500000
vt 0.546352 0.500000
vt 0.000000 0.000000
vt 1.000000 0.000000
vt 0.000000 1.000000
vt 1.000000 1.000000
vt 0.531626 0.000000
vt 0.561079 1.000000
vt 0.000000 0.500000
vt 1.000000 0.500000
vt 0.546352 0.500000
vt 0.000000 0.000000
vt 1.000000 0.000000
vt 0.000000 1.000000
vt 1.000000 1.000000
vt 0.531626 0.000000
vt 0.561079 1.000000
vt 0.000000 0.500000
vt 1.000000 0.500000
vt 0.546352 0.500000
vt 0.000000 0.000000
vt 1.000000 0.000000
vt 0.000000 1.000000
vt 1.000000 1.000000
vt 0.531626 0.000000
vt 0.561079 1.000000
vt 0.000000 0.500000
vt 1.000000 0.500000
vt 0.546352 0.500000
vt 0.000000 0.000000
vt 1.000000 0.000000
vt 0.000000 1.000000
vt 1.000000 1.000000
vt 0.531626 0.000000
vt 0.561079 1.000000
vt 0.000000 0.500000
vt 1.000000 0.500000
vt 0.546352 0.500000
vt 0.000000 0.000000
vt 1.000000 0.000000
vt 0.000000 1.000000
vt 1.000000 1.000000
vt 0.531626 0.000000
vt 0.561079 1.000000
vt 0.000000 0.500000
vt 1.000000 0.500000
vt 0.546352 0.500000
vt 0.000000 0.000000
vt 1.000000 0.000000
vt 0.000000 1.000000
vt 1.000000 1.000000
vt 0.531626 0.000000
vt 0.561079 1.000000
vt 0.000000 0.500000
vt 1.000000 0.500000
vt 0.546352 0.500000
s 1
usemtl mbushreg_tex
f 7/7/1 9/9/2 6/6/3 3/3/4
f 9/9/2 5/5/5 2/2/6 8/8/7
f 6/6/3 9/9/2 8/8/7 4/4/8
f 1/1/9 5/5/5 9/9/2 7/7/1
f 16/16/10 18/18/11 15/15/12 12/12/13
f 18/18/11 14/14/14 11/11/15 17/17/16
f 15/15/12 18/18/11 17/17/16 13/13/17
f 10/10/18 14/14/14 18/18/11 16/16/10
f 25/25/19 27/27/20 24/24/21 21/21/22
f 27/27/20 23/23/23 20/20/24 26/26/25
f 24/24/21 27/27/20 26/26/25 22/22/26
f 19/19/27 23/23/23 27/27/20 25/25/19
f 34/34/28 36/36/29 33/33/30 30/30/31
f 36/36/29 32/32/32 29/29/33 35/35/34
f 33/33/30 36/36/29 35/35/34 31/31/35
f 28/28/36 32/32/32 36/36/29 34/34/28
f 43/43/37 45/45/38 42/42/39 39/39/40
f 45/45/38 41/41/41 38/38/42 44/44/43
f 42/42/39 45/45/38 44/44/43 40/40/44
f 37/37/45 41/41/41 45/45/38 43/43/37
f 52/52/46 54/54/47 51/51/48 48/48/49
f 54/54/47 50/50/50 47/47/51 53/53/52
f 51/51/48 54/54/47 53/53/52 49/49/53
f 46/46/54 50/50/50 54/54/47 52/52/46
f 61/61/55 63/63/56 60/60/57 57/57/58
f 63/63/56 59/59/59 56/56/60 62/62/61
f 60/60/57 63/63/56 62/62/61 58/58/62
f 55/55/63 59/59/59 63/63/56 61/61/55
f 70/70/64 72/72/65 69/69/66 66/66/67
f 72/72/65 68/68/68 65/65/69 71/71/70
f 69/69/66 72/72/65 71/71/70 67/67/71
f 64/64/72 68/68/68 72/72/65 70/70/64
