# Blender 3.4.1
# www.blender.org
mtllib mbushreg_1.mtl
o mbushreg_1
v -0.977841 -0.872207 1.120839
v -0.977840 -0.872208 -1.100651
v -2.280445 1.290029 0.870985
v -2.351458 1.266585 -0.767566
v 0.205983 -0.481389 -0.031164
v -1.575987 1.522593 -0.119523
v -1.448077 0.552180 1.120839
v -1.448076 0.552180 -1.100651
v -0.445993 0.883000 -0.075343
v -0.317084 -0.608679 -1.460488
v 1.198137 -1.185623 0.058149
v 1.086466 1.490899 -1.697742
v 2.251856 1.047159 -0.632189
v -0.327787 -0.604604 0.236909
v 1.288121 1.414116 -0.479180
v 0.216680 0.793140 -1.460488
v 1.731901 0.216196 0.058149
v 0.358383 0.739184 0.127427
v -0.919636 -1.037562 -0.967547
v 1.217638 -0.434705 -0.907199
v -1.298617 1.314028 -1.839824
v 0.282437 1.749728 -1.869413
v 0.111676 -0.575544 0.299032
v -0.391490 1.671727 -1.077836
v -1.318099 0.394915 -1.165631
v 0.819175 0.997772 -1.105283
v -0.232458 0.845987 -0.087492
v 0.436256 -1.094223 1.502894
v -1.388685 -0.573294 0.348233
v 0.002429 1.100709 2.698109
v -1.386187 1.464080 1.904288
v 0.199314 -0.476307 -0.060220
v -0.389113 1.539930 1.609424
v 0.490845 0.302622 2.046808
v -1.334095 0.823552 0.892147
v 0.108700 0.877508 0.608776
v 1.567058 -0.640634 0.450581
v -0.277498 -0.276150 1.633705
v 1.820042 1.881865 0.537031
v 0.500937 2.161021 1.471096
v -0.080013 -0.623606 0.040515
v 0.586682 1.942037 0.455444
v 1.658922 0.824498 0.142441
v -0.185634 1.188981 1.325565
v 0.081178 0.875177 -0.086953
v 1.745779 -0.821385 0.185018
v 0.168166 -0.515063 1.718746
v 2.396830 1.566712 0.739631
v 1.284055 1.783732 1.924991
v 0.079836 -0.513831 0.078570
v 1.188888 1.791783 0.886852
v 2.018926 0.653472 0.171417
v 0.441313 0.959795 1.705144
v 0.451768 0.944290 0.233914
v -0.240612 0.347946 -1.270756
v 1.226435 0.706022 0.358530
v -1.431117 2.367511 -0.301979
v -0.319650 2.688319 0.860849
v 0.030291 -0.411492 0.222948
v -1.068500 1.964752 0.810563
v -1.200476 1.295761 -0.614777
v 0.266571 1.653837 1.014508
v -0.825193 0.688539 0.811725
vn 0.5617 0.5341 0.6318
vn 0.7810 0.6232 -0.0409
vn 0.4890 0.8669 -0.0965
vn 0.4340 0.7307 0.5270
vn 0.9277 0.3731 -0.0142
vn 0.6287 0.2413 -0.7392
vn 0.5082 0.4929 -0.7062
vn 0.3666 0.6849 -0.6297
vn 0.6596 0.2765 0.6990
vn -0.7609 0.6440 0.0796
vn -0.4472 0.5416 0.7118
vn -0.1661 0.7800 0.6033
vn -0.5705 0.8142 0.1077
vn -0.6052 0.2983 0.7380
vn 0.0858 0.0016 0.9963
vn 0.1845 0.2601 0.9478
vn 0.2604 0.4738 0.8412
vn -0.9124 0.4071 0.0426
vn -0.7391 0.2287 0.6336
vn -0.1107 0.4548 0.8837
vn -0.1305 0.7541 0.6436
vn -0.6948 0.4666 0.5473
vn -0.0648 0.1840 0.9808
vn 0.6611 0.3118 0.6824
vn 0.5581 0.5628 0.6097
vn 0.4288 0.7497 0.5041
vn -0.7313 -0.0510 0.6801
vn 0.9299 0.3557 -0.0937
vn 0.5122 0.5941 -0.6202
vn 0.3640 0.8518 -0.3767
vn 0.8181 0.5748 -0.0198
vn 0.5585 0.3408 -0.7563
vn -0.2233 0.3908 -0.8930
vn -0.2064 0.6308 -0.7480
vn -0.1775 0.8033 -0.5685
vn 0.9819 0.0869 -0.1680
vn 0.1566 0.1231 -0.9800
vn -0.5317 0.2164 -0.8188
vn -0.4469 0.5686 -0.6906
vn 0.1166 0.3700 -0.9217
vn -0.5607 -0.0734 -0.8248
vn -0.9844 0.0598 -0.1652
vn -0.9204 0.3295 -0.2104
vn -0.8018 0.5487 -0.2368
vn 0.1888 -0.1586 -0.9691
vn 0.0323 0.3220 -0.9462
vn -0.6031 0.4586 -0.6527
vn -0.4472 0.7598 -0.4719
vn 0.0398 0.5523 -0.8327
vn -0.6772 0.1834 -0.7126
vn -0.9766 0.2137 0.0235
vn -0.8786 0.4769 0.0239
vn -0.7324 0.6805 0.0227
vn 0.0216 0.0435 -0.9988
vn -0.9045 -0.4240 0.0462
vn -0.5632 -0.4845 0.6694
vn -0.6542 -0.1193 0.7469
vn -0.9569 -0.2185 0.1912
vn -0.4233 -0.7141 0.5575
vn 0.2033 -0.3706 0.9063
vn 0.0185 -0.1741 0.9846
vn -0.1480 0.0131 0.9889
vn -0.7774 -0.6180 -0.1172
vt 0.000000 0.000000
vt 1.000000 0.000000
vt 0.000000 1.000000
vt 1.000000 1.000000
vt 0.531626 0.000000
vt 0.561079 1.000000
vt 0.000000 0.500000
vt 1.000000 0.500000
vt 0.546352 0.500000
vt 0.000000 0.000000
vt 1.000000 0.000000
vt 0.000000 1.000000
vt 1.000000 1.000000
vt 0.531626 0.000000
vt 0.561079 1.000000
vt 0.000000 0.500000
vt 1.000000 0.500000
vt 0.546352 0.500000
vt 0.000000 0.000000
vt 1.000000 0.000000
vt 0.000000 1.000000
vt 1.000000 1.000000
vt 0.531626 0.000000
vt 0.561079 1.000000
vt 0.000000 0.500000
vt 1.000000 0.500000
vt 0.546352 0.500000
vt 0.000000 0.000000
vt 1.000000 0.000000
vt 0.000000 1.000000
vt 1.000000 1.000000
vt 0.531626 0.000000
vt 0.561079 1.000000
vt 0.000000 0.500000
vt 1.000000 0.500000
vt 0.546352 0.500000
vt 0.000000 0.000000
vt 1.000000 0.000000
vt 0.000000 1.000000
vt 1.000000 1.000000
vt 0.531626 0.000000
vt 0.561079 1.000000
vt 0.000000 0.500000
vt 1.000000 0.500000
vt 0.546352 0.500000
vt 0.000000 0.000000
vt 1.000000 0.000000
vt 0.000000 1.000000
vt 1.000000 1.000000
vt 0.531626 0.000000
vt 0.561079 1.000000
vt 0.000000 0.500000
vt 1.000000 0.500000
vt 0.546352 0.500000
vt 0.000000 0.000000
vt 1.000000 0.000000
vt 0.000000 1.000000
vt 1.000000 1.000000
vt 0.531626 0.000000
vt 0.561079 1.000000
vt 0.000000 0.500000
vt 1.000000 0.500000
vt 0.546352 0.500000
s 1
usemtl mbushreg_tex
f 7/7/1 9/9/2 6/6/3 3/3/4
f 9/9/2 5/5/5 2/2/6 8/8/7
f 6/6/3 9/9/2 8/8/7 4/4/8
f 1/1/9 5/5/5 9/9/2 7/7/1
f 16/16/10 18/18/11 15/15/12 12/12/13
f 18/18/11 14/14/14 11/11/15 17/17/16
f 15/15/12 18/18/11 17/17/16 13/13/17
f 10/10/18 14/14/14 18/18/11 16/16/10
f 25/25/19 27/27/20 24/24/21 21/21/22
f 27/27/20 23/23/23 20/20/24 26/26/25
f 24/24/21 27/27/20 26/26/25 22/22/26
f 19/19/27 23/23/23 27/27/20 25/25/19
f 34/34/28 36/36/29 33/33/30 30/30/31
f 36/36/29 32/32/32 29/29/33 35/35/34
f 33/33/30 36/36/29 35/35/34 31/31/35
f 28/28/36 32/32/32 36/36/29 34/34/28
f 43/43/37 45/45/38 42/42/39 39/39/40
f 45/45/38 41/41/41 38/38/42 44/44/43
f 42/42/39 45/45/38 44/44/43 40/40/44
f 37/37/45 41/41/41 45/45/38 43/43/37
f 52/52/46 54/54/47 51/51/48 48/48/49
f 54/54/47 50/50/50 47/47/51 53/53/52
f 51/51/48 54/54/47 53/53/52 49/49/53
f 46/46/54 50/50/50 54/54/47 52/52/46
f 61/61/55 63/63/56 60/60/57 57/57/58
f 63/63/56 59/59/59 56/56/60 62/62/61
f 60/60/57 63/63/56 62/62/61 58/58/62
f 55/55/63 59/59/59 63/63/56 61/61/55
