# Blender 3.4.1
# www.blender.org
mtllib plantflr_0.mtl
o plantflr_0
v 0.148550 1.441018 0.049804
v 0.000000 -0.160113 -0.091467
v 0.148549 1.441018 0.450936
v -0.000000 -0.160113 0.309664
v 0.000000 0.640453 -0.191145
v -0.000000 0.640453 0.209986
v 0.148549 1.040735 0.450936
v 0.148550 1.040735 0.049804
v 0.338187 1.441018 0.240950
v 0.189638 -0.160113 0.099678
v -0.062944 1.441018 0.240949
v -0.211494 -0.160113 0.099677
v 0.189638 0.640453 0.000000
v -0.211494 0.640453 -0.000000
v -0.062944 1.040735 0.240949
v 0.338187 1.040735 0.240950
v -0.211673 0.632447 0.245867
v 0.087647 0.297763 0.245867
v -0.279409 0.571868 -0.144835
v 0.019910 0.237184 -0.144835
v 0.294545 0.695844 -0.071639
v 0.035275 0.361160 -0.221209
v 0.157984 0.635265 0.300634
v -0.101286 0.300581 0.151064
v 0.395848 1.162479 0.074044
v 0.136578 0.827795 -0.075526
v 0.259287 1.101900 0.446318
v 0.000017 0.767216 0.296748
vn -1.0000 -0.0000 -0.0000
vn -0.9375 0.3479 -0.0000
vn -0.0000 -0.1236 -0.9923
vn -0.0000 0.5157 -0.8568
vn -0.0000 -0.0000 -1.0000
vn 0.7260 0.6493 -0.2265
vn -0.7421 0.6493 -0.1666
vt 0.332088 0.999943
vt 0.332088 0.000057
vt 0.656957 0.999943
vt 0.656957 0.000057
vt 0.332088 0.500000
vt 0.656957 0.500000
vt 0.656957 0.749971
vt 0.332088 0.749971
vt 0.332088 0.999943
vt 0.332088 0.000057
vt 0.656957 0.999943
vt 0.656957 0.000057
vt 0.332088 0.500000
vt 0.656957 0.500000
vt 0.656957 0.749971
vt 0.332088 0.749971
vt 0.642243 0.786094
vt 0.642243 0.396944
vt 1.093112 0.786094
vt 1.093112 0.396944
vt 0.642243 0.786094
vt 0.642243 0.396944
vt 1.093112 0.786094
vt 1.093112 0.396944
vt 0.675464 0.376240
vt 0.675464 -0.012909
vt 1.126332 0.376240
vt 1.126332 -0.012910
s 0
usemtl plantflr0_tex
f 5/5/1 2/2/1 4/4/1 6/6/1
f 8/8/2 5/5/2 6/6/2 7/7/2
f 1/1/1 8/8/1 7/7/1 3/3/1
f 13/13/3 10/10/3 12/12/3 14/14/3
f 16/16/4 13/13/4 14/14/4 15/15/4
f 9/9/5 16/16/5 15/15/5 11/11/5
f 17/17/6 18/18/6 20/20/6 19/19/6
f 21/21/7 22/22/7 24/24/7 23/23/7
f 25/25/7 26/26/7 28/28/7 27/27/7
