# Blender 3.4.1
# www.blender.org
mtllib sbushtro_1.mtl
o sbushtro_1
v -1.201415 0.675650 0.325610
v -0.202615 -0.171241 0.471389
v -1.066462 0.675650 -0.559722
v -0.067662 -0.171241 -0.413942
v -1.195558 0.846452 -0.126449
v -0.004695 -0.128014 0.048607
v -0.620034 0.605855 0.424476
v -0.485081 0.605855 -0.460855
v -0.422114 0.649081 0.001694
v -0.967120 -0.079815 1.626369
v 0.264342 -0.235792 0.325700
v -1.690603 -0.090020 0.942607
v -0.459141 -0.245996 -0.358063
v -1.430978 0.053613 1.390470
v -0.023008 -0.132102 -0.096518
v -0.279740 0.552669 0.889620
v -1.003222 0.542464 0.205857
v -0.687737 0.637449 0.589424
v 0.198721 0.801700 -1.013183
v -0.261638 -0.166122 -0.232883
v 0.840585 0.801700 -0.634498
v 0.380226 -0.166122 0.145802
v 0.553075 0.937959 -0.880491
v 0.005599 -0.119389 0.047473
v -0.090612 0.594932 -0.522769
v 0.551252 0.594932 -0.144085
v 0.176625 0.641665 -0.242414
v 1.152521 0.101113 1.186925
v 0.404150 -0.213989 -0.208666
v 0.364629 0.101113 1.609424
v -0.383742 -0.213989 0.213832
v 0.814230 0.239229 1.501962
v -0.041031 -0.127618 -0.092961
v 0.698113 0.566809 0.339528
v -0.089779 0.566809 0.762026
v 0.322962 0.653179 0.593549
v 1.953643 0.238220 -0.601566
v 0.092470 -0.234093 -0.614428
v 1.946391 0.237841 0.461636
v 0.085219 -0.234471 0.448774
v 2.081326 0.409358 -0.069009
v -0.045259 -0.138420 -0.083707
v 0.782851 0.731746 -0.609375
v 0.775599 0.731368 0.453826
v 0.721559 0.818937 -0.073057
v -0.062763 0.095134 -1.763667
v -0.432138 -0.209182 -0.279560
v 0.775101 0.095134 -1.555133
v 0.405726 -0.209182 -0.071026
v 0.383639 0.228524 -1.769771
v -0.038494 -0.125768 -0.073690
v -0.287046 0.544892 -0.862524
v 0.550818 0.544892 -0.653990
v 0.146170 0.628306 -0.801056
v -1.776324 0.106946 -0.535097
v -0.351049 -0.218679 0.269033
v -1.322346 0.106946 -1.339747
v 0.102929 -0.218679 -0.535617
v -1.655330 0.249675 -0.997224
v -0.026484 -0.129424 -0.078240
v -0.910903 0.588196 -0.046832
v -0.456925 0.588196 -0.851482
v -0.723982 0.677450 -0.476093
v 0.998687 0.898439 0.066898
v 0.257524 -0.154845 -0.247345
v 0.707781 0.898439 0.753021
v -0.033382 -0.154845 0.438778
v 0.900989 1.040574 0.430207
v 0.010979 -0.118873 0.052855
v 0.496036 0.635960 -0.146219
v 0.205130 0.635960 0.539904
v 0.249491 0.671932 0.153981
v 0.232859 0.882827 1.001572
v 0.349739 -0.153539 0.218144
v -0.492390 0.882827 0.893372
v -0.375510 -0.153539 0.109944
v -0.137296 1.022678 0.997949
v 0.003056 -0.118146 0.057187
v 0.312126 0.624564 0.470257
v -0.413123 0.624564 0.362057
v -0.034557 0.659957 0.309300
vn 0.6208 0.7778 0.0980
vn 0.8703 0.4753 0.1293
vn 0.8734 0.4594 -0.1618
vn 0.5661 0.7980 -0.2066
vn 0.4782 0.7979 0.3670
vn 0.7904 0.4497 0.4160
vn 0.1433 0.9531 0.2666
vn 0.1891 0.9816 0.0265
vn 0.2230 0.9517 -0.2109
vn 0.0300 0.9983 -0.0491
vn 0.4526 0.7447 -0.4905
vn 0.3162 0.7307 -0.6050
vn -0.1060 0.9440 -0.3124
vn 0.3018 0.9505 0.0738
vn 0.5741 0.7349 -0.3609
vn -0.1249 0.8314 0.5415
vn -0.3511 0.8653 0.3578
vn -0.5479 0.8244 0.1424
vn -0.3598 0.7062 0.6098
vn -0.4647 0.4045 0.7877
vn -0.1888 0.3863 0.9028
vn -0.0774 0.7134 0.6964
vn -0.5722 0.7134 0.4045
vn -0.6990 0.3863 0.6018
vn -0.3844 0.9060 0.1771
vn -0.1821 0.9336 0.3087
vn 0.0309 0.9060 0.4221
vn -0.0795 0.9863 -0.1447
vn -0.3523 0.6673 -0.6562
vn -0.5035 0.6564 -0.5618
vn -0.3699 0.9244 -0.0932
vn 0.1254 0.9252 -0.3581
vn -0.1904 0.6570 -0.7295
vn 0.4376 0.8759 0.2031
vn 0.1903 0.9149 0.3559
vn -0.0746 0.8749 0.4785
vn -0.3075 0.9515 0.0002
vn -0.7970 0.6039 -0.0048
vn -0.7754 0.5856 0.2365
vn -0.2567 0.9200 0.2962
vn -0.2532 0.9209 -0.2963
vn -0.7719 0.5869 -0.2445
vn 0.3272 0.9137 -0.2411
vn 0.3361 0.9418 0.0032
vn 0.3245 0.9127 0.2484
vn -0.0382 0.9863 0.1606
vn -0.1796 0.6673 0.7228
vn -0.0041 0.6564 0.7544
vn 0.2115 0.9244 0.3174
vn -0.3334 0.9252 0.1812
vn -0.3487 0.6570 0.6684
vn -0.1879 0.8759 -0.4444
vn 0.0980 0.9149 -0.3915
vn 0.3766 0.8749 -0.3045
vn 0.1446 0.9863 0.0796
vn 0.6488 0.6673 0.3657
vn 0.7261 0.6564 0.2050
vn 0.3623 0.9244 -0.1193
vn 0.0858 0.9252 0.3696
vn 0.5513 0.6570 0.5142
vn -0.4784 0.8759 0.0627
vn -0.3512 0.9149 -0.1988
vn -0.1931 0.8749 -0.4441
vn -0.7134 0.6321 -0.3025
vn -0.8749 0.3113 -0.3710
vn -0.9513 0.2973 -0.0816
vn -0.7631 0.6462 -0.0116
vn -0.5388 0.6462 -0.5404
vn -0.7200 0.2973 -0.6270
vn -0.3077 0.8668 -0.3923
vn -0.4140 0.8932 -0.1755
vn -0.4959 0.8668 0.0516
vn 0.1143 0.6321 -0.7664
vn 0.1402 0.3113 -0.9399
vn -0.1590 0.2973 -0.9414
vn -0.1798 0.6462 -0.7417
vn 0.3884 0.6462 -0.6569
vn 0.4269 0.2973 -0.8540
vn 0.3028 0.8668 -0.3961
vn 0.0664 0.8932 -0.4448
vn -0.1741 0.8668 -0.4672
vt 0.749886 0.000000
vt 0.749886 1.000000
vt 0.250114 0.000000
vt 0.250114 1.000000
vt 0.500000 0.000000
vt 0.500000 1.000000
vt 0.749886 0.500000
vt 0.250114 0.500000
vt 0.500000 0.500000
vt 0.749886 0.000000
vt 0.749886 1.000000
vt 0.250114 0.000000
vt 0.250114 1.000000
vt 0.500000 0.000000
vt 0.500000 1.000000
vt 0.749886 0.500000
vt 0.250114 0.500000
vt 0.500000 0.500000
vt 0.749886 0.000000
vt 0.749886 1.000000
vt 0.250114 0.000000
vt 0.250114 1.000000
vt 0.500000 0.000000
vt 0.500000 1.000000
vt 0.749886 0.500000
vt 0.250114 0.500000
vt 0.500000 0.500000
vt 0.749886 0.000000
vt 0.749886 1.000000
vt 0.250114 0.000000
vt 0.250114 1.000000
vt 0.500000 0.000000
vt 0.500000 1.000000
vt 0.749886 0.500000
vt 0.250114 0.500000
vt 0.500000 0.500000
vt 0.749886 0.000000
vt 0.749886 1.000000
vt 0.250114 0.000000
vt 0.250114 1.000000
vt 0.500000 0.000000
vt 0.500000 1.000000
vt 0.749886 0.500000
vt 0.250114 0.500000
vt 0.500000 0.500000
vt 0.749886 0.000000
vt 0.749886 1.000000
vt 0.250114 0.000000
vt 0.250114 1.000000
vt 0.500000 0.000000
vt 0.500000 1.000000
vt 0.749886 0.500000
vt 0.250114 0.500000
vt 0.500000 0.500000
vt 0.749886 0.000000
vt 0.749886 1.000000
vt 0.250114 0.000000
vt 0.250114 1.000000
vt 0.500000 0.000000
vt 0.500000 1.000000
vt 0.749886 0.500000
vt 0.250114 0.500000
vt 0.500000 0.500000
vt 0.749886 0.000000
vt 0.749886 1.000000
vt 0.250114 0.000000
vt 0.250114 1.000000
vt 0.500000 0.000000
vt 0.500000 1.000000
vt 0.749886 0.500000
vt 0.250114 0.500000
vt 0.500000 0.500000
vt 0.749886 0.000000
vt 0.749886 1.000000
vt 0.250114 0.000000
vt 0.250114 1.000000
vt 0.500000 0.000000
vt 0.500000 1.000000
vt 0.749886 0.500000
vt 0.250114 0.500000
vt 0.500000 0.500000
s 1
usemtl sbushtro_tex
f 9/9/1 6/6/2 4/4/3 8/8/4
f 7/7/5 2/2/6 6/6/2 9/9/1
f 1/1/7 7/7/5 9/9/1 5/5/8
f 5/5/8 9/9/1 8/8/4 3/3/9
f 18/18/10 15/15/11 13/13/12 17/17/13
f 16/16/14 11/11/15 15/15/11 18/18/10
f 10/10/16 16/16/14 18/18/10 14/14/17
f 14/14/17 18/18/10 17/17/13 12/12/18
f 27/27/19 24/24/20 22/22/21 26/26/22
f 25/25/23 20/20/24 24/24/20 27/27/19
f 19/19/25 25/25/23 27/27/19 23/23/26
f 23/23/26 27/27/19 26/26/22 21/21/27
f 36/36/28 33/33/29 31/31/30 35/35/31
f 34/34/32 29/29/33 33/33/29 36/36/28
f 28/28/34 34/34/32 36/36/28 32/32/35
f 32/32/35 36/36/28 35/35/31 30/30/36
f 45/45/37 42/42/38 40/40/39 44/44/40
f 43/43/41 38/38/42 42/42/38 45/45/37
f 37/37/43 43/43/41 45/45/37 41/41/44
f 41/41/44 45/45/37 44/44/40 39/39/45
f 54/54/46 51/51/47 49/49/48 53/53/49
f 52/52/50 47/47/51 51/51/47 54/54/46
f 46/46/52 52/52/50 54/54/46 50/50/53
f 50/50/53 54/54/46 53/53/49 48/48/54
f 63/63/55 60/60/56 58/58/57 62/62/58
f 61/61/59 56/56/60 60/60/56 63/63/55
f 55/55/61 61/61/59 63/63/55 59/59/62
f 59/59/62 63/63/55 62/62/58 57/57/63
f 72/72/64 69/69/65 67/67/66 71/71/67
f 70/70/68 65/65/69 69/69/65 72/72/64
f 64/64/70 70/70/68 72/72/64 68/68/71
f 68/68/71 72/72/64 71/71/67 66/66/72
f 81/81/73 78/78/74 76/76/75 80/80/76
f 79/79/77 74/74/78 78/78/74 81/81/73
f 73/73/79 79/79/77 81/81/73 77/77/80
f 77/77/80 81/81/73 80/80/76 75/75/81
