{
  "asset": {
    "generator": "UnityGLTF",
    "version": "2.0"
  },
  "extensionsUsed": [
    "KHR_texture_transform"
  ],
  "scene": 0,
  "scenes": [
    {
      "nodes": [
        0
      ],
      "name": "2"
    }
  ],
  "accessors": [
    {
      "bufferView": 0,
      "componentType": 5126,
      "count": 686,
      "type": "VEC3",
      "max": [
        2.0093550682067871,
        11.414295196533203,
        4.2621970176696777
      ],
      "min": [
        -3.0053310394287109,
        -8.29720687866211,
        -3.7425038814544678
      ]
    },
    {
      "bufferView": 1,
      "componentType": 5126,
      "count": 686,
      "type": "VEC3",
      "max": [
        0.9871940016746521,
        0.94427633285522461,
        0.97003293037414551
      ],
      "min": [
        -0.9873923659324646,
        -0.93622398376464844,
        -0.97534805536270142
      ]
    },
    {
      "bufferView": 2,
      "componentType": 5126,
      "count": 686,
      "type": "VEC4",
      "max": [
        0.99153530597686768,
        0.98212242126464844,
        0.97190070152282715,
        1.0
      ],
      "min": [
        -0.99450051784515381,
        -0.95187067985534668,
        -0.993225634098053,
        1.0
      ]
    },
    {
      "bufferView": 3,
      "componentType": 5126,
      "count": 686,
      "type": "VEC2",
      "max": [
        0.75,
        1.0
      ],
      "min": [
        0.25,
        -15.325349807739258
      ]
    },
    {
      "bufferView": 4,
      "componentType": 5126,
      "count": 686,
      "type": "VEC2",
      "max": [
        0.99617582559585571,
        0.99609375
      ],
      "min": [
        0.00390625,
        0.0027105212211608887
      ]
    },
    {
      "bufferView": 5,
      "componentType": 5123,
      "count": 1152,
      "type": "SCALAR",
      "max": [
        685.0
      ],
      "min": [
        0.0
      ]
    }
  ],
  "buffers": [
    {
      "uri": "2.bin",
      "byteLength": 40720
    }
  ],
  "bufferViews": [
    {
      "buffer": 0,
      "byteLength": 8232,
      "byteStride": 12,
      "target": 34962
    },
    {
      "buffer": 0,
      "byteOffset": 8232,
      "byteLength": 8232,
      "byteStride": 12,
      "target": 34962
    },
    {
      "buffer": 0,
      "byteOffset": 16464,
      "byteLength": 10976,
      "target": 34962
    },
    {
      "buffer": 0,
      "byteOffset": 27440,
      "byteLength": 5488,
      "target": 34962
    },
    {
      "buffer": 0,
      "byteOffset": 32928,
      "byteLength": 5488,
      "target": 34962
    },
    {
      "buffer": 0,
      "byteOffset": 38416,
      "byteLength": 2304,
      "target": 34963
    }
  ],
  "images": [
    {
      "uri": "BarkTex2.jpg",
      "name": "BarkTex2"
    }
  ],
  "materials": [
    {
      "pbrMetallicRoughness": {
        "baseColorFactor": [
          0.249661624,
          0.249661624,
          0.249661624,
          1.0
        ],
        "baseColorTexture": {
          "index": 0,
          "extensions": {
            "KHR_texture_transform": {}
          }
        },
        "metallicFactor": 0.0
      },
      "name": "BarkMat2"
    }
  ],
  "meshes": [
    {
      "primitives": [
        {
          "attributes": {
            "POSITION": 0,
            "NORMAL": 1,
            "TANGENT": 2,
            "TEXCOORD_0": 3,
            "TEXCOORD_1": 4
          },
          "indices": 5,
          "material": 0
        }
      ],
      "name": "WoodsTree"
    }
  ],
  "nodes": [
    {
      "mesh": 0,
      "rotation": [
        0.0,
        -0.6706547,
        0.0,
        0.7417697
      ],
      "translation": [
        76.85936,
        -244.0,
        993.8545
      ],
      "name": "WoodsTree"
    }
  ],
  "samplers": [
    {
      "magFilter": 9728,
      "minFilter": 9728
    }
  ],
  "textures": [
    {
      "sampler": 0,
      "source": 0,
      "name": "BarkTex2"
    }
  ]
}