# Blender 3.4.1
# www.blender.org
mtllib tropic_0.mtl
o tropic_0
v 0.000000 -0.103954 -0.416119
v 0.000000 5.202285 -0.383890
v 0.682788 -0.103954 -0.344904
v 0.237432 5.202285 -0.269548
v 0.327494 -0.103954 -0.005454
v 0.296073 5.202285 -0.012625
v 0.214131 -0.103954 0.669791
v 0.131765 5.202285 0.193411
v -0.145749 -0.103954 0.222448
v -0.131765 5.202285 0.193411
v -0.600577 -0.103954 0.164608
v -0.296073 5.202285 -0.012625
v -0.218229 -0.103954 -0.729659
v -0.237432 5.202285 -0.269548
v -1.012263 7.429922 -0.206698
v -1.170883 7.429922 -0.283085
v -0.973087 7.429922 -0.035057
v -1.082855 7.429922 0.102589
v -1.258910 7.429922 0.102589
v -1.368679 7.429922 -0.035057
v -1.329503 7.429922 -0.206698
v 0.483354 8.478174 -2.649147
v 0.381599 8.478174 -2.698150
v 0.508485 8.478174 -2.539039
v 0.438069 8.478174 -2.450739
v 0.325129 8.478174 -2.450739
v 0.254712 8.478174 -2.539039
v 0.279844 8.478174 -2.649147
v 0.689972 8.036789 0.671878
v 0.556025 8.036789 0.607372
v 0.723054 8.036789 0.816820
v 0.630360 8.036789 0.933054
v 0.481690 8.036789 0.933054
v 0.388996 8.036789 0.816820
v 0.422078 8.036789 0.671878
v 0.714447 6.840230 -1.102023
v 0.847808 6.840230 -1.269253
v 0.414787 6.840230 -1.477784
v 0.367191 6.840230 -1.269253
v 0.500552 6.840230 -1.102023
v 0.607499 6.840230 -1.570590
v 0.800212 6.840230 -1.477784
v 2.052039 8.548191 -1.386264
v 1.974090 8.548191 -1.423802
v 1.876888 8.548191 -1.301916
v 1.930831 8.548191 -1.234274
v 2.071290 8.548191 -1.301916
v 1.896140 8.548191 -1.386264
v 2.017348 8.548191 -1.234274
v 1.497131 9.906333 0.717783
v 1.420748 9.906333 0.680999
v 1.515996 9.906333 0.800436
v 1.463137 9.906333 0.866719
v 1.378358 9.906333 0.866719
v 1.325500 9.906333 0.800436
v 1.344365 9.906333 0.717783
v -0.076677 8.967458 1.148872
v -0.161818 8.967458 1.107870
v -0.055648 8.967458 1.241003
v -0.114568 8.967458 1.314886
v -0.209068 8.967458 1.314886
v -0.267988 8.967458 1.241003
v -0.246960 8.967458 1.148872
v -1.093449 9.758830 -1.243049
v -1.170883 9.758830 -1.280339
v -1.074325 9.758830 -1.159259
v -1.127910 9.758830 -1.092064
v -1.213855 9.758830 -1.092064
v -1.267441 9.758830 -1.159259
v -1.248317 9.758830 -1.243049
v -1.332474 8.594376 -0.593868
v -1.300469 8.594376 -0.734092
v -1.098968 8.594376 -0.481417
v -1.242798 8.594376 -0.481417
v -1.041296 8.594376 -0.734092
v -1.009291 8.594376 -0.593868
v -1.170883 8.594376 -0.796497
v -1.602767 9.704999 -0.088791
v -1.535488 9.704999 -0.056391
v -1.518871 9.704999 0.016412
v -1.565430 9.704999 0.074795
v -1.640105 9.704999 0.074795
v -1.686664 9.704999 0.016412
v -1.670047 9.704999 -0.056391
v -1.098422 8.493709 0.510162
v -1.170883 8.493709 0.475266
v -1.080525 8.493709 0.588571
v -1.130670 8.493709 0.651450
v -1.211096 8.493709 0.651450
v -1.261240 8.493709 0.588571
v -1.243344 8.493709 0.510162
v -0.700374 1.885808 -0.261430
v -0.715517 1.885808 0.050752
v -0.700374 6.361679 -0.261430
v -0.715517 6.361679 0.050752
v 0.987712 2.927628 -1.548554
v 1.218392 2.927628 -1.337667
v 0.987712 7.403499 -1.548554
v 1.218392 7.403499 -1.337667
v 0.690232 3.663455 0.719493
v 0.433835 3.663455 0.898231
v 0.690232 8.139326 0.719493
v 0.433835 8.139326 0.898231
v 0.279158 3.540561 -2.132665
v 0.576122 3.540561 -2.230127
v 0.279158 8.016433 -2.132665
v 0.576122 8.016433 -2.230127
v 1.788090 7.750065 -1.783796
v 0.562764 7.616230 -3.788318
v 0.207401 9.491324 -1.700799
v -1.017924 7.512597 -2.048166
v 2.469929 7.856341 0.170766
v 2.928791 7.722506 -2.133357
v 1.251966 9.597599 -0.840190
v 0.587020 7.618872 -1.926438
v -0.039422 9.111650 1.367431
v 2.292758 8.977815 1.651101
v 0.876736 10.852909 0.076648
v 1.909704 8.874182 -0.668377
v -0.809224 8.184149 -0.293689
v -1.096399 8.050313 2.038063
v 0.480180 9.925408 0.624408
v 1.223652 7.946681 1.658496
v -1.313860 7.715358 -1.060935
v -2.347986 7.581522 1.048596
v -0.395716 9.456617 0.228436
v -0.031411 7.477890 1.448833
v -1.216826 9.020278 -1.589072
v -2.932610 8.886443 0.015803
v -0.816335 10.761538 -0.057709
v -0.909104 8.782810 1.212520
v 0.126057 9.020278 -2.201624
v -2.221327 8.886443 -2.105060
v -0.569695 10.761537 -0.779867
v -1.468835 8.782810 0.122150
v 1.630063 8.664015 0.651127
v 2.065575 8.523012 -1.657096
v 0.360955 10.369108 -0.358560
v -0.270684 8.367383 -1.422317
v 1.178625 8.899302 -1.737735
v -1.055154 9.466146 -2.213513
v 0.556113 10.504700 -0.133795
v -1.022679 8.767776 0.033412
v -0.372656 8.826902 0.506239
v 1.507676 10.095566 1.132573
v -0.221555 10.583982 -1.051737
v 1.854440 9.477576 -1.111372
v -1.634906 8.586637 -0.027265
v -0.555024 8.818128 2.050646
v -0.277775 10.500725 -0.205900
v 1.151542 8.743628 0.432150
v -0.621998 6.178836 1.639163
v 1.710183 6.045001 1.922833
v 0.294160 7.920095 0.348381
v 1.327129 5.941368 -0.396644
vn 0.2466 -0.5730 -0.7815
vn 0.0813 -0.0571 -0.9951
vn 0.8155 -0.0437 -0.5770
vn 0.8268 -0.3957 -0.3998
vn 0.9544 0.0690 0.2904
vn 0.7359 -0.6085 0.2969
vn 0.4077 0.1381 0.9026
vn 0.2877 -0.3976 0.8713
vn -0.4385 0.0935 0.8938
vn -0.3967 -0.5882 0.7048
vn -0.9603 0.0616 0.2722
vn -0.8075 -0.4801 0.3427
vn 0.9414 0.2615 0.2131
vn 0.4048 0.0550 0.9127
vn -0.7322 0.0115 -0.6810
vn -0.3508 -0.3980 -0.8477
vn -0.7538 -0.0912 -0.6508
vn -0.9849 -0.0361 0.1695
vn -0.7489 0.6584 0.0751
vn -0.6191 0.5199 -0.5885
vn -0.9782 -0.0553 0.2003
vn -0.8024 -0.0552 -0.5942
vn -0.4790 -0.0989 0.8722
vn -0.0488 0.0079 -0.9988
vn 0.7500 0.2126 -0.6264
vn 0.9535 -0.2041 0.2217
vn 0.7086 0.7049 0.0295
vn 0.2537 0.8529 0.4564
vn 0.4045 0.3039 0.8626
vn 0.6031 0.4764 -0.6398
vn -0.0235 0.3862 -0.9221
vn -0.6492 0.4231 -0.6321
vn -0.7964 0.6039 0.0330
vn -0.3128 0.8183 0.4823
vn -0.8823 0.4325 0.1857
vn -0.7914 -0.0740 -0.6068
vn -0.3669 0.5867 0.7220
vn -0.0277 -0.3543 -0.9347
vn 0.7171 -0.3949 -0.5743
vn 0.9727 -0.0396 0.2285
vn 0.4574 -0.0854 0.8852
vn -0.3880 -0.1827 0.9034
vn 0.4382 0.5439 0.7156
vn -0.2365 0.6896 0.6845
vn -0.9723 -0.0715 0.2226
vn -0.7354 0.2298 -0.6375
vn 0.0169 0.3165 -0.9485
vn 0.7811 0.1210 -0.6125
vn 0.4939 0.4834 0.7228
vn -0.1795 0.7227 0.6675
vn 0.1493 0.5933 -0.7910
vn -0.3953 0.8191 -0.4157
vn -0.4875 0.8622 0.1374
vn 0.9064 0.3840 0.1760
vn 0.7622 0.4151 -0.4967
vn 0.8647 0.4701 0.1768
vn 0.7136 0.4947 -0.4961
vn 0.0946 0.6136 -0.7839
vn -0.4799 0.7507 -0.4541
vn -0.6019 0.7829 0.1572
vn 0.2115 0.5432 0.8125
vn -0.4726 0.3749 0.7976
vn 0.3643 0.8783 -0.3097
vn -0.1293 0.7493 -0.6495
vn -0.7705 0.4767 -0.4232
vn -0.8992 0.3577 0.2522
vn 0.5418 0.8101 0.2238
vn 0.6191 0.5199 -0.5885
vn -0.0000 0.4696 -0.8829
vn -0.3066 0.7782 0.5482
vn 0.3066 0.7782 0.5482
vn 0.7489 0.6584 0.0751
vn -0.4314 0.0870 0.8980
vn 0.4802 0.2289 0.8468
vn 0.9609 0.2182 0.1703
vn 0.7834 0.0167 -0.6213
vn 0.0200 -0.1199 -0.9926
vn -0.0651 0.8086 -0.5847
vn 0.4476 0.8365 -0.3163
vn -0.6872 0.6196 -0.3793
vn -0.8483 0.4487 0.2811
vn -0.4126 0.4094 0.8137
vn 0.2734 0.4921 0.8265
vn 0.6629 0.6967 0.2741
vn -0.7634 0.5748 0.2945
vn -0.5556 0.7621 -0.3326
vn 0.5556 0.7621 -0.3326
vn -0.0000 0.8360 -0.5487
vn -0.3408 0.4547 0.8229
vn 0.3408 0.4547 0.8229
vn 0.7634 0.5748 0.2945
vn -0.9988 -0.0000 -0.0484
vn 0.6747 -0.0000 -0.7381
vn 0.5719 -0.0000 0.8203
vn -0.3118 -0.0000 -0.9501
vn 0.6540 0.6147 -0.4408
vn -0.0000 0.7439 -0.6682
vn -0.6540 0.5040 -0.5641
vn 0.7796 0.6147 0.1196
vn 0.4532 0.7439 -0.4911
vn -0.0981 0.5040 -0.8581
vn -0.0604 0.6147 0.7864
vn 0.5239 0.7439 0.4148
vn 0.8482 0.5040 -0.1626
vn -0.7863 0.6147 -0.0616
vn -0.4156 0.7439 0.5233
vn 0.1613 0.5040 0.8485
vn -0.7229 0.6147 -0.3154
vn -0.5639 0.7439 0.3585
vn -0.1251 0.5040 0.8546
vn -0.5638 0.6147 -0.5515
vn -0.6545 0.7439 0.1349
vn -0.4204 0.5040 0.7545
vn -0.0674 0.6147 -0.7859
vn -0.5840 0.7439 -0.3248
vn -0.8109 0.5040 0.2974
vn 0.7666 0.6333 0.1060
vn 0.4303 0.7503 -0.5018
vn -0.1195 0.4950 -0.8606
vn 0.3145 0.7292 -0.6078
vn -0.2641 0.9290 -0.2593
vn -0.7117 0.6679 0.2179
vn -0.5784 0.5685 0.5850
vn -0.0789 0.9577 0.2766
vn 0.4598 0.8718 -0.1690
vn -0.7554 0.5664 0.3295
vn -0.1409 0.8019 0.5806
vn 0.5435 0.6395 0.5437
vt 0.386455 -0.137315
vt 0.148627 -0.122793
vt 0.714986 0.397005
vt 0.409253 0.417422
vt 0.975629 1.053511
vt 1.008185 0.764327
vt 0.313178 -0.125258
vt 0.751780 0.989578
vt 0.220417 -0.130099
vt 0.780483 0.389056
vt 0.379530 0.418372
vt 0.947080 1.061887
vt 0.939091 0.339951
vt 0.804207 0.988094
vt 0.202257 -0.104469
vt 0.803246 0.390382
vt 0.959948 0.327715
vt 0.877849 0.989578
vt 0.225369 -0.063424
vt 0.832416 0.389865
vt 0.121446 0.416628
vt 1.010917 -0.131316
vt 0.984330 0.312709
vt 0.166636 -0.083331
vt 0.095140 0.421042
vt 1.037821 -0.137315
vt 0.640106 0.997853
vt 0.118285 -0.079067
vt 0.663408 0.398041
vt 0.068233 0.411849
vt 1.064449 -0.133725
vt 1.052461 0.792670
vt 0.749892 0.996290
vt 0.423645 -0.130643
vt 0.110857 -0.137315
vt 0.428147 0.408194
vt 0.692712 0.397737
vt 1.028716 0.776328
vt 0.514710 0.622687
vt 0.850554 0.129096
vt -0.090495 1.036241
vt 1.016419 0.796977
vt 0.649797 0.148952
vt 0.534567 0.622052
vt 0.997086 0.792668
vt 0.865762 0.129984
vt -0.103904 1.027228
vt -0.034412 0.644253
vt 0.885249 0.129638
vt -0.033825 1.039745
vt -0.067694 0.897715
vt -0.120000 1.016900
vt -0.051986 0.647201
vt -0.013949 1.039745
vt -0.052282 0.887636
vt -0.069962 0.641060
vt 0.615339 0.149645
vt -0.012987 0.892962
vt -0.034788 0.883618
vt 0.547189 0.615887
vt 0.634917 0.149439
vt 0.003851 0.883618
vt 0.984330 0.798148
vt 0.101170 0.903547
vt 0.909241 0.788715
vt 0.963394 0.792303
vt 0.101170 0.890840
vt 1.004596 0.312709
vt 0.975629 0.788713
vt 0.095958 0.912171
vt 0.918179 0.783470
vt 0.928629 0.777039
vt 0.089459 0.910217
vt 1.125576 0.312709
vt 0.086567 0.899158
vt 1.137106 0.310138
vt 0.089459 0.887320
vt 1.023571 0.324856
vt 1.148518 0.311676
vt 0.095958 0.883618
vt 1.013394 0.317852
vt 0.850623 0.076551
vt 0.301610 0.690948
vt -0.133133 0.883618
vt 0.631583 0.076078
vt 0.318379 0.690412
vt -0.067696 0.883618
vt -0.148518 0.890184
vt 0.863465 0.077300
vt -0.120000 0.885474
vt 0.035551 1.019646
vt 0.170781 0.721610
vt 0.879921 0.077008
vt 0.065601 0.980803
vt 0.022597 1.010000
vt 0.155941 0.724100
vt 0.052251 0.972825
vt 0.035551 0.883618
vt 0.140761 0.718914
vt 0.602485 0.076662
vt 0.052252 0.885292
vt -0.090495 0.902586
vt 0.619017 0.076489
vt -0.077654 0.892609
vt 1.023120 0.099527
vt 0.943302 0.554012
vt 0.923512 0.566191
vt 1.000994 0.537203
vt 1.020267 0.550466
vt 1.066570 0.097571
vt 1.044957 0.094657
vt 0.929755 0.910165
vt 1.034338 1.000660
vt 0.984330 0.527463
vt 0.906584 0.916963
vt 0.906584 0.576123
vt 1.016419 0.984594
vt 0.969477 0.766791
vt 1.019093 0.802760
vt 1.026341 0.809258
vt 1.037925 0.345036
vt 1.034338 0.804378
vt 1.052461 0.354340
vt 0.924159 0.311918
vt 1.029064 0.796674
vt 0.915417 0.310739
vt 1.016840 0.795377
vt 0.976325 0.762775
vt 1.033125 0.809978
vt 1.044665 0.348974
vt 0.906584 0.312709
vt 1.021278 0.792669
vt 0.984330 0.757848
vt 0.069754 0.885748
vt 0.812886 -0.127746
vt 0.225369 0.902448
vt 0.079085 0.883618
vt 0.658717 -0.137315
vt 0.234931 0.902143
vt 0.065601 0.894372
vt 0.820210 -0.127318
vt 0.225369 0.882199
vt 0.069754 0.902995
vt 0.829594 -0.127487
vt 0.079085 0.905125
vt 0.216906 0.883618
vt 0.086568 0.899157
vt 0.208250 0.880661
vt 0.642124 -0.136981
vt 0.086568 0.889586
vt 0.651552 -0.137080
vt -0.128979 1.028151
vt -0.067696 1.022634
vt -0.138758 1.032324
vt -0.120631 1.029331
vt 0.035551 0.889749
vt 0.065601 0.888690
vt -0.120000 1.034974
vt 0.027317 0.883618
vt 0.057115 0.883618
vt -0.127562 1.040832
vt 0.041637 0.972515
vt -0.137620 1.042492
vt 0.052252 0.973579
vt -0.082188 1.034689
vt -0.142604 1.038707
vt -0.074025 1.028346
vt -0.032629 0.887828
vt 0.749892 -0.137315
vt 0.582775 0.902448
vt -0.023887 0.883618
vt 0.749892 -0.114429
vt 0.592469 0.902138
vt -0.034788 0.897288
vt 0.757316 -0.136882
vt -0.028738 0.904874
vt 0.766829 -0.137051
vt -0.019036 0.904874
vt -0.139743 0.799398
vt 0.733071 -0.114090
vt -0.012986 0.897288
vt -0.148518 0.796400
vt -0.015145 0.887828
vt 0.742628 -0.114189
vt 0.673233 0.017820
vt -0.110511 0.719162
vt 0.574530 0.757594
vt 0.689227 0.017652
vt -0.032006 0.973813
vt -0.081468 0.721771
vt 0.827045 -0.003614
vt -0.015768 0.973813
vt -0.095826 0.724180
vt 0.547996 0.763149
vt 0.006528 0.883618
vt 0.798701 -0.004054
vt 0.811125 -0.003329
vt 0.564218 0.762630
vt 0.022596 0.885958
vt 0.701384 0.017254
vt 0.018345 0.979460
vt 0.607084 -0.106488
vt 0.010002 0.978246
vt 0.891868 -0.130460
vt 0.003851 0.984011
vt 0.898318 -0.130084
vt 0.004523 0.992415
vt -0.114621 0.867798
vt 0.906584 -0.130230
vt 0.011513 0.997129
vt -0.122074 0.869049
vt 0.019556 0.994603
vt 0.592469 -0.106194
vt -0.129699 0.866444
vt 0.022596 0.986740
vt 0.600773 -0.106280
vt -0.090495 0.892453
vt 1.011234 0.942030
vt 1.002402 0.940060
vt 1.016419 0.946990
vt -0.096620 0.888339
vt 1.014054 0.951205
vt -0.049820 0.987958
vt -0.103974 0.883618
vt 1.005919 0.951500
vt -0.042780 0.983351
vt -0.003841 1.022481
vt 0.998139 0.947655
vt -0.034788 0.981518
vt 0.003851 1.018213
vt 0.996575 0.942564
vt 0.525587 1.000000
vt 0.455758 1.000000
vt 0.525587 0.000000
vt 0.455758 0.000000
vt 0.525587 1.000000
vt 0.455758 1.000000
vt 0.525587 0.000000
vt 0.455758 0.000000
vt 0.455758 0.000000
vt 0.525587 0.000000
vt 0.455758 1.000000
vt 0.525587 1.000000
vt 0.525588 1.000000
vt 0.455758 1.000000
vt 0.525588 0.000000
vt 0.455758 0.000000
vt 0.000000 0.000000
vt 1.000000 0.000000
vt 0.000000 1.000000
vt 1.000000 1.000000
vt 0.000000 0.000000
vt 1.000000 0.000000
vt 0.000000 1.000000
vt 1.000000 1.000000
vt 0.000000 0.000000
vt 1.000000 0.000000
vt 0.000000 1.000000
vt 1.000000 1.000000
vt 0.000000 0.000000
vt 1.000000 0.000000
vt 0.000000 1.000000
vt 1.000000 1.000000
vt 0.000000 0.000000
vt 1.000000 0.000000
vt 0.000000 1.000000
vt 1.000000 1.000000
vt 0.000000 0.000000
vt 1.000000 0.000000
vt 0.000000 1.000000
vt 1.000000 1.000000
vt 0.000000 0.000000
vt 1.000000 0.000000
vt 0.000000 1.000000
vt 1.000000 1.000000
vt 0.000000 0.000000
vt 1.000000 0.000000
vt 0.000000 1.000000
vt 1.000000 1.000000
vt 0.000000 0.000000
vt 1.000000 0.000000
vt 0.000000 1.000000
vt 1.000000 1.000000
vt 0.000000 0.000000
vt 1.000000 0.000000
vt 0.000000 1.000000
vt 1.000000 1.000000
vt 0.000000 0.000000
vt 1.000000 0.000000
vt 0.000000 1.000000
vt 1.000000 1.000000
vt 0.000000 0.000000
vt 1.000000 0.000000
vt 0.000000 1.000000
vt 1.000000 1.000000
s 1
usemtl tropicbark_tex
f 1/1/1 2/4/2 4/11/3 3/7/4
f 3/8/4 4/10/3 6/16/5 5/14/6
f 5/14/6 6/16/5 8/20/7 7/18/8
f 7/19/8 8/21/7 10/25/9 9/24/10
f 9/24/10 10/25/9 12/30/11 11/28/12
f 8/20/7 6/16/5 17/46/13 18/49/14
f 11/27/12 12/29/11 14/37/15 13/33/16
f 13/34/16 14/36/15 2/4/2 1/1/1
f 1/2/1 3/9/4 5/15/6 7/19/8 9/24/10 11/28/12 13/35/16
f 72/188/17 71/185/18 69/180/19 70/184/20
f 14/37/15 12/29/11 20/57/21 21/61/22
f 10/25/9 8/21/7 18/48/14 19/53/23
f 2/3/2 14/37/15 21/61/22 16/43/24
f 6/16/5 4/10/3 15/40/25 17/46/13
f 12/30/11 10/25/9 19/53/23 20/56/21
f 4/11/3 2/4/2 16/44/24 15/39/25
f 37/107/26 24/71/27 25/72/28 36/106/29
f 22/64/30 23/67/31 28/80/32 27/77/33 26/75/34 25/73/28 24/70/27
f 39/109/35 27/78/33 28/81/32 38/108/36
f 36/105/29 25/74/28 26/76/34 40/111/37
f 38/108/36 28/81/32 23/68/31 41/114/38
f 42/116/39 22/65/30 24/71/27 37/107/26
f 40/111/37 26/76/34 27/79/33 39/110/35
f 41/112/38 23/69/31 22/66/30 42/115/39
f 8/20/7 6/16/5 31/89/40 32/93/41
f 33/96/42 32/92/41 53/142/43 54/146/44
f 14/37/15 12/29/11 34/100/45 35/103/46
f 10/25/9 8/21/7 32/92/41 33/96/42
f 2/3/2 14/37/15 35/103/46 30/85/47
f 6/16/5 4/10/3 29/82/48 31/89/40
f 12/30/11 10/25/9 33/96/42 34/99/45
f 4/11/3 2/4/2 30/86/47 29/83/48
f 2/5/2 41/112/38 42/115/39 4/12/3
f 10/26/9 40/111/37 39/110/35 12/31/11
f 4/13/3 42/116/39 37/107/26 6/17/5
f 14/38/15 38/108/36 41/114/38 2/6/2
f 8/22/7 36/105/29 40/111/37 10/26/9
f 12/32/11 39/109/35 38/108/36 14/38/15
f 6/17/5 37/107/26 36/106/29 8/23/7
f 36/105/29 49/131/49 46/126/50 40/111/37
f 44/120/51 48/129/52 45/122/53 46/125/50 49/132/49 47/127/54 43/119/55
f 42/116/39 43/118/55 47/128/54 37/107/26
f 41/113/38 44/120/51 43/119/55 42/117/39
f 39/109/35 45/123/53 48/130/52 38/108/36
f 38/108/36 48/130/52 44/121/51 41/114/38
f 40/111/37 46/126/50 45/124/53 39/110/35
f 37/107/26 47/128/54 49/133/49 36/106/29
f 52/140/56 50/134/57 51/137/58 56/150/59 55/147/60 54/145/44 53/143/43
f 31/89/40 29/82/48 50/135/57 52/141/56
f 30/85/47 35/103/46 56/151/59 51/138/58
f 34/99/45 33/96/42 54/146/44 55/148/60
f 32/93/41 31/89/40 52/141/56 53/144/43
f 29/83/48 30/86/47 51/139/58 50/136/57
f 35/103/46 34/100/45 55/149/60 56/151/59
f 32/94/41 60/157/61 61/160/62 33/97/42
f 57/152/63 58/154/64 63/166/65 62/163/66 61/161/62 60/158/61 59/155/67
f 29/84/48 57/152/63 59/155/67 31/90/40
f 35/104/46 63/167/65 58/153/64 30/87/47
f 33/98/42 61/162/62 62/164/66 34/101/45
f 31/91/40 59/156/67 60/159/61 32/95/41
f 30/88/47 58/154/64 57/152/63 29/84/48
f 34/102/45 62/165/66 63/167/65 35/104/46
f 64/168/68 65/171/69 70/183/20 69/181/19 68/178/70 67/176/71 66/174/72
f 74/192/73 73/189/74 67/176/71 68/178/70
f 76/197/75 75/196/76 64/169/68 66/175/72
f 77/200/77 72/188/17 70/184/20 65/172/69
f 71/186/18 74/193/73 68/179/70 69/182/19
f 73/191/74 76/197/75 66/175/72 67/177/71
f 75/194/76 77/198/77 65/173/69 64/170/68
f 15/39/25 16/44/24 77/198/77 75/194/76
f 18/49/14 17/46/13 76/197/75 73/191/74
f 20/56/21 19/53/23 74/193/73 71/186/18
f 16/44/24 21/60/22 72/187/17 77/198/77
f 17/46/13 15/40/25 75/196/76 76/197/75
f 19/54/23 18/50/14 73/189/74 74/192/73
f 21/61/22 20/57/21 71/185/18 72/188/17
f 75/195/76 77/199/77 78/201/78 79/203/79
f 79/203/79 78/201/78 84/215/80 83/212/81 82/210/82 81/207/83 80/205/84
f 74/193/73 73/190/74 81/208/83 82/211/82
f 77/200/77 72/188/17 84/216/80 78/202/78
f 73/191/74 76/197/75 80/206/84 81/209/83
f 72/188/17 71/185/18 83/213/81 84/216/80
f 76/197/75 75/196/76 79/204/79 80/206/84
f 71/186/18 74/193/73 82/211/82 83/214/81
f 20/58/21 90/227/85 91/230/86 21/62/22
f 85/218/87 86/219/88 91/231/86 90/228/85 89/225/89 88/222/90 87/220/91
f 18/51/14 88/223/90 89/226/89 19/55/23
f 15/41/25 85/217/87 87/221/91 17/47/13
f 21/63/22 91/231/86 86/219/88 16/45/24
f 19/55/23 89/226/89 90/229/85 20/59/21
f 17/47/13 87/221/91 88/224/90 18/52/14
f 16/45/24 86/219/88 85/218/87 15/42/25
usemtl tropicvine_tex
f 92/232/92 93/233/92 95/235/92 94/234/92
f 96/236/93 98/238/93 99/239/93 97/237/93
f 100/240/94 102/242/94 103/243/94 101/241/94
f 104/244/95 106/246/95 107/247/95 105/245/95
usemtl tropicleaves_tex
f 108/248/96 109/249/97 110/250/97
f 110/250/97 109/249/97 111/251/98
f 112/252/99 113/253/100 114/254/100
f 114/254/100 113/253/100 115/255/101
f 116/256/102 117/257/103 118/258/103
f 118/258/103 117/257/103 119/259/104
f 120/260/105 121/261/106 122/262/106
f 122/262/106 121/261/106 123/263/107
f 124/264/108 125/265/109 126/266/109
f 126/266/109 125/265/109 127/267/110
f 128/268/111 129/269/112 130/270/112
f 130/270/112 129/269/112 131/271/113
f 132/272/114 133/273/115 134/274/115
f 134/274/115 133/273/115 135/275/116
f 136/276/117 137/277/118 138/278/118
f 138/278/118 137/277/118 139/279/119
f 140/280/120 141/281/121 142/282/121
f 142/282/121 141/281/121 143/283/122
f 144/284/123 145/285/124 146/286/124
f 146/286/124 145/285/124 147/287/125
f 148/288/126 149/289/127 150/290/127
f 150/290/127 149/289/127 151/291/128
f 152/292/102 153/293/103 154/294/103
f 154/294/103 153/293/103 155/295/104
