# Blender 3.4.1
# www.blender.org
mtllib tropic_1.mtl
o tropic_1
v 0.491473 -0.103954 0.258447
v 0.299814 4.102070 -0.368308
v 0.092654 -0.103954 0.132931
v 0.149128 4.102070 -0.152109
v -0.312494 -0.103954 0.425050
v -0.113853 4.102070 -0.135121
v -0.302806 -0.103954 -0.011484
v -0.291101 4.102070 -0.330137
v -0.562606 -0.103954 -0.405143
v -0.249144 4.102070 -0.590306
v 0.078855 -0.103954 -0.675822
v -0.019576 4.102070 -0.719715
v 0.167124 -0.103954 -0.116779
v 0.224733 4.102070 -0.620916
v 0.560125 7.217337 -1.256632
v 0.660792 7.217337 -1.401067
v 0.384436 7.217337 -1.245283
v 0.266023 7.217337 -1.375566
v 0.294053 7.217337 -1.549376
v 0.447419 7.217337 -1.635829
v 0.610633 7.217337 -1.569826
v 1.280135 8.478174 0.407961
v 1.344713 8.478174 0.315305
v 1.167430 8.478174 0.415241
v 1.091468 8.478174 0.331664
v 1.109449 8.478174 0.220165
v 1.207834 8.478174 0.164705
v 1.312536 8.478174 0.207046
v -0.852339 6.306487 0.481228
v -0.767330 6.306487 0.359260
v -1.000699 6.306487 0.490811
v -1.100693 6.306487 0.380794
v -1.077023 6.306487 0.234020
v -0.947513 6.306487 0.161015
v -0.809687 6.306487 0.216751
v 0.523484 6.840230 0.727898
v 0.667348 6.840230 0.886183
v 0.942162 6.840230 0.491886
v 0.743868 6.840230 0.411697
v 0.557539 6.840230 0.516732
v 1.003101 6.840230 0.696916
v 0.880798 6.840230 0.872395
v 0.083508 8.548191 1.742117
v 0.132978 8.548191 1.671139
v 0.028122 8.548191 1.555772
v -0.047245 8.548191 1.598257
v -0.002829 8.548191 1.747694
v 0.108329 8.548191 1.588208
v -0.061020 8.548191 1.683671
v -1.810401 8.349874 1.144309
v -1.761925 8.349874 1.074757
v -1.895003 8.349874 1.149774
v -1.952024 8.349874 1.087037
v -1.938527 8.349874 1.003339
v -1.864674 8.349874 0.961708
v -1.786079 8.349874 0.993492
v -2.091932 8.139330 0.182390
v -2.037897 8.139330 0.104862
v -2.186235 8.139330 0.188481
v -2.249795 8.139330 0.118550
v -2.234749 8.139330 0.025255
v -2.152428 8.139330 -0.021150
v -2.064820 8.139330 0.014278
v 1.596182 9.546246 -1.171783
v 1.645325 9.546246 -1.242292
v 1.510416 9.546246 -1.166242
v 1.452610 9.546246 -1.229843
v 1.466294 9.546246 -1.314691
v 1.541163 9.546246 -1.356895
v 1.620839 9.546246 -1.324674
v 0.993338 8.381791 -1.511117
v 1.126678 8.381791 -1.457194
v 0.845144 8.381791 -1.298492
v 0.868044 8.381791 -1.440488
v 1.085414 8.381791 -1.201327
v 0.941883 8.381791 -1.192056
v 1.167655 8.381791 -1.319325
v 0.278187 9.492414 -1.599158
v 0.235489 9.492414 -1.537895
v 0.160969 9.492414 -1.533081
v 0.110744 9.492414 -1.588342
v 0.122633 9.492414 -1.662064
v 0.187684 9.492414 -1.698733
v 0.256912 9.492414 -1.670738
v -0.314575 8.281124 -1.809084
v -0.268588 8.281124 -1.875065
v -0.394834 8.281124 -1.803899
v -0.448928 8.281124 -1.863415
v -0.436123 8.281124 -1.942815
v -0.366062 8.281124 -1.982309
v -0.291502 8.281124 -1.952157
v -0.928282 1.885808 0.079285
v -0.943424 1.885808 0.391466
v -0.928282 6.361679 0.079285
v -0.943424 6.361679 0.391466
v -1.270451 7.898225 0.789559
v -0.098977 7.764389 2.826024
v 0.311888 9.639484 0.748715
v 1.527522 7.660757 1.128611
v -1.618424 2.911488 0.084162
v -1.633567 2.911488 0.396343
v -1.618424 7.387359 0.084162
v -1.633567 7.387359 0.396343
v 0.749680 2.911488 0.850947
v 1.007162 2.911488 0.673776
v 0.749680 7.387359 0.850947
v 1.007162 7.387359 0.673776
v 0.298150 2.734146 -1.533734
v 0.596470 2.734146 -1.440505
v 0.298150 7.210017 -1.533734
v 0.596470 7.210017 -1.440505
v -0.137099 -0.011145 0.165359
v 0.174708 -0.012637 0.143893
v -0.137099 4.453951 -0.145010
v 0.174708 4.452459 -0.166477
v 0.833621 7.717736 1.862524
v 2.461098 7.583900 0.168164
v 0.351786 9.458995 0.354777
v 0.376473 7.480268 -0.918595
v 1.705960 8.784911 0.316819
v 2.596154 8.651076 -1.857368
v 0.703339 10.526171 -0.908015
v 0.257939 8.547444 -2.101206
v 1.553257 8.784912 -0.722454
v 0.413991 8.651076 -2.777109
v -0.029528 10.526171 -0.706527
v -1.239031 8.547444 -1.105515
v 1.167541 7.410328 -2.416410
v -1.133730 7.276493 -2.889368
v 0.149148 9.151587 -1.204659
v -0.941148 7.172861 -0.546374
v -1.319195 7.410328 -1.221864
v -3.353148 7.276493 -0.046037
v -1.274966 9.151587 0.360384
v -1.652260 7.172861 1.576828
v -2.136625 7.602589 -0.500859
v -2.876901 7.468753 1.728833
v -1.053030 9.343848 0.652955
v -0.527517 7.365121 1.813094
v -0.356845 7.929074 -0.630861
v -2.002762 9.239388 0.423407
v 0.679178 8.889668 1.250991
v -1.211002 7.744462 2.059183
v 0.238810 9.140605 0.634503
v 1.949110 10.003006 -0.732459
v -0.828057 10.477689 -0.981495
v 0.450432 8.904189 -2.176070
v 1.736017 4.905868 -1.409157
v -0.565254 4.772032 -1.882114
v 0.717625 6.647127 -0.197406
v -0.372672 4.668400 0.460880
v -1.371021 5.912660 -1.067745
v -2.209973 5.778824 1.126724
v -0.339947 7.653919 0.133234
v 0.133319 5.675192 1.315649
vn 0.8652 -0.2848 0.4128
vn 0.9866 0.0212 0.1618
vn 0.4504 -0.0203 0.8926
vn 0.2531 -0.5184 0.8168
vn -0.3952 -0.0550 0.9170
vn -0.3898 -0.3690 0.8438
vn -0.9654 0.0187 0.2600
vn -0.7661 -0.6010 0.2279
vn -0.8254 0.1054 -0.5546
vn -0.8008 -0.5027 -0.3255
vn 0.0180 0.1162 -0.9931
vn 0.2886 -0.5238 -0.8015
vn -0.3408 0.3023 0.8902
vn -0.9499 0.0748 0.3034
vn 0.7687 0.0619 -0.6366
vn 0.6523 -0.6593 -0.3739
vn 0.7569 -0.0182 -0.6533
vn 0.0055 0.0641 -0.9979
vn 0.0451 0.6584 -0.7513
vn 0.6796 0.5199 -0.5175
vn -0.0194 -0.1123 -0.9935
vn 0.7362 -0.0338 -0.6759
vn -0.7941 -0.1531 -0.5882
vn 0.9904 0.0138 0.1374
vn 0.4885 0.2027 0.8487
vn -0.3337 -0.1882 0.9237
vn -0.2156 0.7498 0.6256
vn -0.6331 0.7571 0.1609
vn -0.9563 0.0056 0.2924
vn 0.4331 0.6548 0.6194
vn 0.8309 0.5508 0.0786
vn 0.6375 0.5152 -0.5729
vn 0.0076 0.5628 -0.8266
vn -0.5644 0.6719 -0.4795
vn -0.0434 0.2780 -0.9596
vn 0.7612 0.0945 -0.6416
vn -0.7826 0.2804 -0.5559
vn 0.9844 -0.0207 0.1746
vn 0.5178 -0.1176 0.8474
vn -0.2975 -0.2667 0.9167
vn -0.8541 -0.4413 0.2751
vn -0.7737 -0.2520 -0.5812
vn -0.8488 0.4398 0.2935
vn -0.7447 0.5438 -0.3869
vn -0.0225 0.2157 -0.9762
vn 0.6617 0.4950 -0.5631
vn 0.8814 0.4443 0.1603
vn 0.5163 0.1255 0.8472
vn -0.8378 0.4336 0.3316
vn -0.7268 0.5977 -0.3384
vn 0.6519 0.7245 0.2237
vn 0.4044 0.8501 -0.3374
vn -0.1142 0.8051 -0.5820
vn -0.3710 0.4059 0.8352
vn 0.3120 0.5048 0.8049
vn -0.3839 0.4483 0.8072
vn 0.3015 0.5701 0.7642
vn 0.6368 0.7489 0.1833
vn 0.4257 0.8134 -0.3964
vn -0.1345 0.7253 -0.6752
vn -0.8853 0.4176 0.2044
vn -0.7735 0.4125 -0.4812
vn 0.2375 0.7566 0.6092
vn 0.5444 0.8347 0.0834
vn 0.4243 0.7411 -0.5203
vn -0.1781 0.5304 -0.8288
vn -0.4281 0.5473 0.7192
vn 0.4824 0.5199 0.7049
vn 0.8716 0.4696 0.1406
vn -0.4924 0.7782 -0.3899
vn -0.5900 0.7782 0.2154
vn -0.1934 0.6584 0.7274
vn -0.7990 0.0734 -0.5968
vn -0.9350 0.1176 0.3346
vn -0.3095 0.1458 0.9396
vn 0.5025 0.0090 0.8645
vn 0.9817 -0.0978 0.1637
vn 0.5109 0.8572 0.0643
vn 0.2168 0.8008 0.5583
vn 0.4148 0.7338 -0.5380
vn -0.1868 0.4991 -0.8462
vn -0.7760 0.3911 -0.4949
vn -0.8919 0.4126 0.1851
vn -0.4360 0.5744 0.6928
vn -0.1866 0.4464 -0.8752
vn 0.4233 0.6932 -0.5834
vn 0.1989 0.8508 0.4864
vn 0.4914 0.8701 0.0381
vn -0.7722 0.3645 -0.5205
vn -0.8969 0.4145 0.1540
vn -0.4324 0.6280 0.6470
vn -0.9988 -0.0000 -0.0484
vn -0.6655 0.6147 0.4233
vn -0.0178 0.7439 0.6680
vn 0.6388 0.5040 0.5813
vn 0.5669 -0.0000 0.8238
vn 0.2983 -0.0000 -0.9545
vn 0.0688 0.0692 0.9952
vn 0.5925 0.6147 0.5206
vn 0.6463 0.7439 -0.1698
vn 0.3794 0.5040 -0.7759
vn 0.7425 0.6147 0.2662
vn 0.5386 0.7439 -0.3956
vn 0.0675 0.5040 -0.8610
vn 0.6721 0.6147 -0.4127
vn 0.0283 0.7439 -0.6676
vn -0.6295 0.5040 -0.5913
vn 0.1243 0.6147 -0.7789
vn -0.4883 0.7439 -0.4562
vn -0.8587 0.5040 0.0929
vn -0.4247 0.6147 -0.6646
vn -0.6680 0.7439 -0.0164
vn -0.5799 0.5040 0.6400
vn -0.7589 0.6147 -0.2150
vn -0.5104 0.7439 0.4313
vn -0.0087 0.5040 0.8636
vn 0.2732 0.7876 -0.5524
vn 0.0985 0.9902 0.0992
vn -0.1250 0.7015 0.7016
vn 0.0816 0.7937 0.6028
vn 0.1741 0.9823 -0.0695
vn 0.1803 0.6835 -0.7074
vn -0.7485 0.6147 -0.2487
vn -0.5291 0.7439 0.4081
vn -0.0472 0.5040 0.8624
vt 0.175721 -0.259882
vt 0.824077 -0.274675
vt 0.789050 0.829184
vt 0.825825 0.205283
vt 0.088548 0.211237
vt 1.014592 -0.271983
vt 1.209766 0.745851
vt 0.138441 -0.265435
vt 0.825288 0.859969
vt 0.064393 0.206878
vt 1.040563 -0.272976
vt 0.084539 -0.274675
vt 0.686137 0.848152
vt 0.880655 0.847274
vt 0.661076 0.369616
vt 0.036000 0.202361
vt 1.068387 -0.274675
vt 1.006180 1.261543
vt 0.729702 0.842301
vt 0.860339 0.892585
vt 0.689912 0.368185
vt 0.977953 1.268656
vt 0.782851 0.838773
vt 0.541506 0.850865
vt 0.870155 0.945319
vt 0.714008 0.364462
vt 0.487089 0.374394
vt 1.016883 0.231600
vt 0.955007 1.274675
vt 0.619521 0.837741
vt 0.939489 -0.265679
vt 0.790976 0.945319
vt 0.878109 0.209522
vt 0.516580 0.369515
vt 1.046440 0.232655
vt 0.879003 -0.270236
vt 0.806445 0.882840
vt 0.855058 0.207526
vt 1.238855 0.750836
vt 1.068671 0.232953
vt 0.104995 0.575528
vt 0.739404 0.986471
vt 0.705903 0.849918
vt 0.121133 0.578440
vt 0.914970 0.566615
vt 0.646705 0.848152
vt 0.685959 0.848153
vt 0.753689 -0.004096
vt 0.086027 0.572510
vt 0.722886 0.977869
vt 0.935338 0.995411
vt 0.772953 -0.005053
vt 0.920240 0.983153
vt 0.546184 0.007958
vt 0.789050 -0.007542
vt 0.907842 0.973282
vt 0.705903 0.858250
vt 0.565885 0.004699
vt 0.949899 0.569447
vt 0.619523 0.869808
vt 0.722886 0.848152
vt 0.934500 0.568114
vt 0.631885 0.861155
vt 0.744977 0.851011
vt 0.961029 0.231174
vt 0.739404 0.862583
vt 1.217084 0.234013
vt 0.949899 0.231600
vt 0.971829 0.757908
vt 0.757499 0.848153
vt 0.972953 0.230446
vt 0.767541 0.856161
vt 0.959732 0.760958
vt 0.767541 0.869005
vt 0.949899 0.763538
vt 1.127393 0.730827
vt 0.757499 0.877013
vt 1.238855 0.238818
vt 1.140060 0.731279
vt 0.744977 0.874155
vt 1.229551 0.236149
vt -0.093504 0.434966
vt 1.050608 0.971305
vt 0.824844 0.457885
vt -0.079876 0.437426
vt 0.685431 0.848152
vt 1.063226 0.978773
vt -0.109521 0.432418
vt 0.658040 0.130659
vt 1.036895 0.963607
vt 0.907842 1.066713
vt 0.674307 0.129852
vt 0.892891 1.059916
vt 0.687901 0.127751
vt 0.338387 0.144912
vt 0.880655 1.054499
vt 1.063226 0.746486
vt 0.355023 0.142158
vt 0.854340 0.460276
vt 1.077556 0.737943
vt 0.841336 0.459150
vt 0.670459 0.855437
vt 1.088183 0.731279
vt 1.013983 0.938589
vt 1.037539 0.041199
vt 1.036895 0.932815
vt 1.104946 0.543300
vt 0.670459 0.848153
vt 1.183977 0.421582
vt 1.201599 0.426635
vt 0.646705 0.853392
vt 1.086903 0.543058
vt 0.995360 0.943474
vt 1.062913 0.542203
vt 0.993877 0.043383
vt 1.160366 0.417536
vt 1.014956 0.042578
vt 0.670387 1.020639
vt 1.149088 0.231273
vt 0.670459 1.010800
vt 1.140562 0.231600
vt 1.140060 0.231601
vt 0.653203 1.006729
vt 0.959603 0.731279
vt 1.020094 0.735591
vt 0.648870 1.015562
vt 0.949899 0.730932
vt 0.662650 1.026717
vt 1.158223 0.230716
vt 1.036895 0.731279
vt 0.662812 1.004609
vt 1.149611 0.233238
vt 0.653074 1.024458
vt 1.027627 0.733614
vt 0.203447 0.853010
vt -0.257822 0.642572
vt 0.212848 0.850865
vt 0.789050 0.689475
vt -0.250052 0.643974
vt 0.199264 0.861697
vt -0.266957 0.641118
vt 0.619522 -0.085188
vt 0.203447 0.870384
vt 0.628799 -0.085649
vt 0.636550 -0.086846
vt 0.212848 0.872529
vt 0.175721 -0.064325
vt 0.220386 0.866518
vt 0.185208 -0.065894
vt 0.805870 0.690839
vt 0.220386 0.856876
vt 0.798455 0.690196
vt 0.199264 0.868312
vt 1.055206 0.736173
vt 0.199264 0.857565
vt 0.685431 1.063400
vt 1.063226 0.740919
vt 0.190862 0.875013
vt 1.046489 0.731279
vt 0.907842 0.836946
vt 0.180385 0.872621
vt 0.898339 0.832629
vt 0.890561 0.829183
vt 0.175721 0.862939
vt 1.072320 0.985801
vt 0.180385 0.853256
vt 1.081428 0.980369
vt 0.190862 0.850865
vt 0.675914 1.068031
vt 1.088183 0.976134
vt 0.767541 0.859134
vt 0.167844 0.853271
vt 0.771781 0.850327
vt 0.825149 0.824352
vt 0.175721 0.854693
vt 0.771781 0.867939
vt 0.158584 0.851798
vt 0.666883 -0.272994
vt 0.781310 0.870114
vt 0.676287 -0.273461
vt 0.788952 0.864021
vt 0.684145 -0.274675
vt 0.609903 -0.273086
vt 0.842200 0.825734
vt 0.788952 0.854247
vt 0.619521 -0.274675
vt 0.781310 0.848152
vt 0.834682 0.825083
vt 0.897571 0.697704
vt 0.593319 -0.135053
vt 0.884991 0.696615
vt 0.724926 -0.139108
vt 0.738077 -0.141141
vt 0.577224 -0.132391
vt 0.136693 0.714410
vt 0.709188 -0.138328
vt 0.121197 0.711944
vt 0.149878 0.716789
vt 0.869036 0.695391
vt 0.046122 0.828988
vt 0.232349 0.869947
vt 0.935084 0.827983
vt 0.238988 0.864652
vt 0.039278 0.827753
vt 0.238988 0.856160
vt 0.774051 -0.262997
vt 0.031233 0.826473
vt 0.232349 0.850865
vt 0.782223 -0.263402
vt 0.224069 0.852754
vt 0.789050 -0.264457
vt 0.491606 -0.244695
vt 0.220385 0.860406
vt 0.949899 0.829184
vt 0.499961 -0.246078
vt 0.224069 0.868057
vt 0.943367 0.828618
vt 0.739404 0.852083
vt 0.700853 0.967464
vt 0.646705 0.996149
vt 0.691743 0.966658
vt 0.705903 0.975091
vt 0.731858 0.848152
vt 0.935338 0.839293
vt 0.703089 0.983793
vt 0.928441 0.833693
vt 0.694531 0.987020
vt 0.922777 0.829183
vt 0.715128 0.995443
vt 0.634288 1.006043
vt 0.686672 0.982340
vt 0.722886 0.990830
vt 0.685431 0.973278
vt 0.639935 1.002092
vt 0.525587 1.000000
vt 0.455758 1.000000
vt 0.525587 0.000000
vt 0.455758 0.000000
vt 0.000000 0.000000
vt 1.000000 0.000000
vt 0.000000 1.000000
vt 1.000000 1.000000
vt 0.525587 1.000000
vt 0.455758 1.000000
vt 0.525587 0.000000
vt 0.455758 0.000000
vt 0.525587 1.000000
vt 0.455758 1.000000
vt 0.525587 0.000000
vt 0.455758 0.000000
vt 0.525587 1.000000
vt 0.455758 1.000000
vt 0.525587 0.000000
vt 0.455758 0.000000
vt 0.525587 1.000000
vt 0.455758 1.000000
vt 0.525587 0.000000
vt 0.455758 0.000000
vt 0.000000 0.000000
vt 1.000000 0.000000
vt 0.000000 1.000000
vt 1.000000 1.000000
vt 0.000000 0.000000
vt 1.000000 0.000000
vt 0.000000 1.000000
vt 1.000000 1.000000
vt 0.000000 0.000000
vt 1.000000 0.000000
vt 0.000000 1.000000
vt 1.000000 1.000000
vt 0.000000 0.000000
vt 1.000000 0.000000
vt 0.000000 1.000000
vt 1.000000 1.000000
vt 0.000000 0.000000
vt 1.000000 0.000000
vt 0.000000 1.000000
vt 1.000000 1.000000
vt 0.000000 0.000000
vt 1.000000 0.000000
vt 0.000000 1.000000
vt 1.000000 1.000000
vt 0.000000 0.000000
vt 1.000000 0.000000
vt 0.000000 1.000000
vt 1.000000 1.000000
vt 0.000000 0.000000
vt 1.000000 0.000000
vt 0.000000 1.000000
vt 1.000000 1.000000
vt 0.000000 0.000000
vt 1.000000 0.000000
vt 0.000000 1.000000
vt 1.000000 1.000000
vt 0.000000 0.000000
vt 1.000000 0.000000
vt 0.000000 1.000000
vt 1.000000 1.000000
s 1
usemtl tropicbark_tex
f 1/1/1 2/5/2 4/10/3 3/8/4
f 3/8/4 4/10/3 6/16/5 5/12/6
f 5/13/6 6/15/5 8/21/7 7/19/8
f 7/19/8 8/21/7 10/26/9 9/23/10
f 9/24/10 10/27/9 12/34/11 11/30/12
f 8/21/7 6/15/5 17/48/13 18/52/14
f 11/31/12 12/33/11 14/38/15 13/36/16
f 13/36/16 14/38/15 2/4/2 1/2/1
f 1/3/1 3/9/4 5/14/6 7/20/8 9/25/10 11/32/12 13/37/16
f 72/191/17 71/189/18 69/184/19 70/188/20
f 14/38/15 12/33/11 20/59/21 21/62/22
f 10/26/9 8/21/7 18/52/14 19/55/23
f 2/4/2 14/38/15 21/62/22 16/45/24
f 6/16/5 4/10/3 15/41/25 17/49/13
f 12/34/11 10/27/9 19/54/23 20/58/21
f 4/10/3 2/5/2 16/44/24 15/41/25
f 37/106/26 24/69/27 25/73/28 36/104/29
f 22/64/30 23/66/31 28/80/32 27/77/33 26/74/34 25/72/28 24/70/27
f 39/110/35 27/78/33 28/81/32 38/109/36
f 36/104/29 25/73/28 26/75/34 40/113/37
f 38/109/36 28/81/32 23/67/31 41/116/38
f 42/117/39 22/65/30 24/71/27 37/105/26
f 40/114/37 26/76/34 27/79/33 39/112/35
f 41/115/38 23/68/31 22/65/30 42/117/39
f 8/21/7 6/15/5 31/89/40 32/92/41
f 33/94/42 32/92/41 53/144/43 54/145/44
f 14/38/15 12/33/11 34/99/45 35/101/46
f 10/26/9 8/21/7 32/92/41 33/94/42
f 2/4/2 14/38/15 35/101/46 30/84/47
f 6/16/5 4/10/3 29/82/48 31/88/40
f 12/34/11 10/27/9 33/95/42 34/98/45
f 4/10/3 2/5/2 30/85/47 29/82/48
f 2/6/2 41/115/38 42/117/39 4/11/3
f 10/28/9 40/114/37 39/112/35 12/35/11
f 4/11/3 42/117/39 37/105/26 6/17/5
f 14/39/15 38/109/36 41/116/38 2/7/2
f 8/22/7 36/104/29 40/113/37 10/29/9
f 12/35/11 39/112/35 38/107/36 14/40/15
f 6/18/5 37/106/26 36/104/29 8/22/7
f 36/104/29 49/134/49 46/125/50 40/113/37
f 44/120/51 48/131/52 45/123/53 46/126/50 49/133/49 47/128/54 43/118/55
f 42/117/39 43/119/55 47/129/54 37/105/26
f 41/115/38 44/121/51 43/119/55 42/117/39
f 39/111/35 45/123/53 48/131/52 38/108/36
f 38/109/36 48/132/52 44/122/51 41/116/38
f 40/114/37 46/127/50 45/124/53 39/112/35
f 37/106/26 47/130/54 49/134/49 36/104/29
f 52/140/56 50/135/57 51/137/58 56/151/59 55/148/60 54/146/44 53/143/43
f 31/88/40 29/82/48 50/136/57 52/141/56
f 30/84/47 35/101/46 56/152/59 51/138/58
f 34/98/45 33/95/42 54/147/44 55/149/60
f 32/92/41 31/89/40 52/142/56 53/144/43
f 29/82/48 30/85/47 51/139/58 50/136/57
f 35/101/46 34/99/45 55/150/60 56/152/59
f 32/93/41 60/162/61 61/163/62 33/96/42
f 57/153/63 58/155/64 63/168/65 62/166/66 61/164/62 60/161/61 59/158/67
f 29/83/48 57/154/63 59/159/67 31/90/40
f 35/102/46 63/169/65 58/156/64 30/86/47
f 33/97/42 61/165/62 62/167/66 34/100/45
f 31/91/40 59/160/67 60/162/61 32/93/41
f 30/87/47 58/157/64 57/154/63 29/83/48
f 34/100/45 62/167/66 63/170/65 35/103/46
f 64/171/68 65/173/69 70/187/20 69/185/19 68/181/70 67/179/71 66/176/72
f 74/193/73 73/192/74 67/180/71 68/182/70
f 76/197/75 75/195/76 64/172/68 66/177/72
f 77/199/77 72/191/17 70/188/20 65/174/69
f 71/190/18 74/194/73 68/183/70 69/186/19
f 73/192/74 76/196/75 66/178/72 67/180/71
f 75/195/76 77/198/77 65/175/69 64/172/68
f 15/41/25 16/44/24 77/198/77 75/195/76
f 18/52/14 17/48/13 76/196/75 73/192/74
f 20/58/21 19/54/23 74/194/73 71/190/18
f 16/45/24 21/62/22 72/191/17 77/199/77
f 17/49/13 15/41/25 75/195/76 76/197/75
f 19/55/23 18/52/14 73/192/74 74/193/73
f 21/62/22 20/59/21 71/189/18 72/191/17
f 75/195/76 77/198/77 78/200/78 79/204/79
f 79/203/79 78/201/78 84/216/80 83/213/81 82/210/82 81/208/83 80/205/84
f 74/193/73 73/192/74 81/209/83 82/211/82
f 77/199/77 72/191/17 84/217/80 78/202/78
f 73/192/74 76/196/75 80/206/84 81/209/83
f 72/191/17 71/189/18 83/214/81 84/217/80
f 76/197/75 75/195/76 79/204/79 80/207/84
f 71/190/18 74/194/73 82/212/82 83/215/81
f 20/60/21 90/230/85 91/234/86 21/63/22
f 85/219/87 86/221/88 91/233/86 90/231/85 89/227/89 88/225/90 87/222/91
f 18/53/14 88/226/90 89/228/89 19/56/23
f 15/42/25 85/218/87 87/223/91 17/50/13
f 21/63/22 91/234/86 86/220/88 16/46/24
f 19/57/23 89/229/89 90/232/85 20/61/21
f 17/51/13 87/224/91 88/226/90 18/53/14
f 16/47/24 86/221/88 85/219/87 15/43/25
usemtl tropicvine_tex
f 92/235/92 93/236/92 95/238/92 94/237/92
f 100/243/92 101/244/92 103/246/92 102/245/92
f 104/247/96 105/248/96 107/250/96 106/249/96
f 108/251/97 110/253/97 111/254/97 109/252/97
f 112/255/98 113/256/98 115/258/98 114/257/98
usemtl tropicleaves_tex
f 96/239/93 97/240/94 98/241/94
f 98/241/94 97/240/94 99/242/95
f 116/259/99 117/260/100 118/261/100
f 118/261/100 117/260/100 119/262/101
f 120/263/102 121/264/103 122/265/103
f 122/265/103 121/264/103 123/266/104
f 124/267/105 125/268/106 126/269/106
f 126/269/106 125/268/106 127/270/107
f 128/271/108 129/272/109 130/273/109
f 130/273/109 129/272/109 131/274/110
f 132/275/111 133/276/112 134/277/112
f 134/277/112 133/276/112 135/278/113
f 136/279/114 137/280/115 138/281/115
f 138/281/115 137/280/115 139/282/116
f 140/283/117 141/284/118 142/285/118
f 142/285/118 141/284/118 143/286/119
f 144/287/120 145/288/121 146/289/121
f 146/289/121 145/288/121 147/290/122
f 148/291/108 149/292/109 150/293/109
f 150/293/109 149/292/109 151/294/110
f 152/295/123 153/296/124 154/297/124
f 154/297/124 153/296/124 155/298/125
