{
  "asset": {
    "generator": "UnityGLTF",
    "version": "2.0"
  },
  "extensionsUsed": [
    "KHR_texture_transform"
  ],
  "scene": 0,
  "scenes": [
    {
      "nodes": [
        0
      ],
      "name": "PruebaScena"
    }
  ],
  "accessors": [
    {
      "bufferView": 0,
      "componentType": 5126,
      "count": 3858,
      "type": "VEC3",
      "max": [
        11.346652030944824,
        22.286718368530273,
        11.221000671386719
      ],
      "min": [
        -7.8009309768676758,
        -8.2680749893188477,
        -10.215003967285156
      ]
    },
    {
      "bufferView": 1,
      "componentType": 5126,
      "count": 3858,
      "type": "VEC3",
      "max": [
        0.999963641166687,
        0.99276697635650635,
        0.99873894453048706
      ],
      "min": [
        -0.99998986721038818,
        -0.99563473463058472,
        -0.99791878461837769
      ]
    },
    {
      "bufferView": 2,
      "componentType": 5126,
      "count": 3858,
      "type": "VEC4",
      "max": [
        0.99977666139602661,
        0.99924683570861816,
        0.99992847442626953,
        1.0
      ],
      "min": [
        -0.99873107671737671,
        -0.999946117401123,
        -0.99979811906814575,
        1.0
      ]
    },
    {
      "bufferView": 3,
      "componentType": 5126,
      "count": 3858,
      "type": "VEC2",
      "max": [
        0.984375,
        1.0
      ],
      "min": [
        0.015625,
        -97.02874755859375
      ]
    },
    {
      "bufferView": 4,
      "componentType": 5126,
      "count": 3858,
      "type": "VEC2",
      "max": [
        0.997776210308075,
        0.99609375
      ],
      "min": [
        0.00390625,
        0.0022565722465515137
      ]
    },
    {
      "bufferView": 5,
      "componentType": 5123,
      "count": 5076,
      "type": "SCALAR",
      "max": [
        3857.0
      ],
      "min": [
        0.0
      ]
    }
  ],
  "buffers": [
    {
      "uri": "PruebaScena.bin",
      "byteLength": 226200
    }
  ],
  "bufferViews": [
    {
      "buffer": 0,
      "byteLength": 46296,
      "byteStride": 12,
      "target": 34962
    },
    {
      "buffer": 0,
      "byteOffset": 46296,
      "byteLength": 46296,
      "byteStride": 12,
      "target": 34962
    },
    {
      "buffer": 0,
      "byteOffset": 92592,
      "byteLength": 61728,
      "target": 34962
    },
    {
      "buffer": 0,
      "byteOffset": 154320,
      "byteLength": 30864,
      "target": 34962
    },
    {
      "buffer": 0,
      "byteOffset": 185184,
      "byteLength": 30864,
      "target": 34962
    },
    {
      "buffer": 0,
      "byteOffset": 216048,
      "byteLength": 10152,
      "target": 34963
    }
  ],
  "images": [
    {
      "uri": "BarkTex.jpg",
      "name": "BarkTex"
    }
  ],
  "materials": [
    {
      "pbrMetallicRoughness": {
        "baseColorTexture": {
          "index": 0,
          "extensions": {
            "KHR_texture_transform": {}
          }
        },
        "metallicFactor": 0.0
      },
      "name": "BarkMat3"
    }
  ],
  "meshes": [
    {
      "primitives": [
        {
          "attributes": {
            "POSITION": 0,
            "NORMAL": 1,
            "TANGENT": 2,
            "TEXCOORD_0": 3,
            "TEXCOORD_1": 4
          },
          "indices": 5,
          "material": 0
        }
      ],
      "name": "DeadTreeCreatorSwamp"
    }
  ],
  "nodes": [
    {
      "mesh": 0,
      "translation": [
        113.1826,
        -218.61,
        1010.75
      ],
      "name": "DeadTreeCreatorSwamp"
    }
  ],
  "samplers": [
    {
      "magFilter": 9728,
      "minFilter": 9728
    }
  ],
  "textures": [
    {
      "sampler": 0,
      "source": 0,
      "name": "BarkTex"
    }
  ]
}