{
  "asset": {
    "generator": "UnityGLTF",
    "version": "2.0"
  },
  "extensionsUsed": [
    "KHR_texture_transform"
  ],
  "scene": 0,
  "scenes": [
    {
      "nodes": [
        0
      ],
      "name": "2"
    }
  ],
  "accessors": [
    {
      "bufferView": 0,
      "componentType": 5126,
      "count": 72,
      "type": "VEC3",
      "max": [
        0.2768000066280365,
        0.54535400867462158,
        1.3071240186691284
      ],
      "min": [
        -0.657522976398468,
        -0.41530099511146545,
        -0.025727000087499619
      ]
    },
    {
      "bufferView": 1,
      "componentType": 5126,
      "count": 72,
      "type": "VEC3",
      "max": [
        0.99638074636459351,
        0.99793773889541626,
        0.48201757669448853
      ],
      "min": [
        -0.999387264251709,
        -0.99996745586395264,
        -0.28876239061355591
      ]
    },
    {
      "bufferView": 2,
      "componentType": 5126,
      "count": 72,
      "type": "VEC4",
      "max": [
        0.97029852867126465,
        0.99152946472167969,
        0.35433700680732727,
        1.0
      ],
      "min": [
        -0.98579466342926025,
        -0.99152266979217529,
        -0.438683420419693,
        1.0
      ]
    },
    {
      "bufferView": 3,
      "componentType": 5126,
      "count": 72,
      "type": "VEC2",
      "max": [
        1.0,
        1.0
      ],
      "min": [
        0.0,
        0.10308700799942017
      ]
    },
    {
      "bufferView": 4,
      "componentType": 5121,
      "count": 72,
      "type": "SCALAR",
      "max": [
        71.0
      ],
      "min": [
        0.0
      ]
    }
  ],
  "buffers": [
    {
      "uri": "2.bin",
      "byteLength": 3528
    }
  ],
  "bufferViews": [
    {
      "buffer": 0,
      "byteLength": 864,
      "byteStride": 12,
      "target": 34962
    },
    {
      "buffer": 0,
      "byteOffset": 864,
      "byteLength": 864,
      "byteStride": 12,
      "target": 34962
    },
    {
      "buffer": 0,
      "byteOffset": 1728,
      "byteLength": 1152,
      "target": 34962
    },
    {
      "buffer": 0,
      "byteOffset": 2880,
      "byteLength": 576,
      "target": 34962
    },
    {
      "buffer": 0,
      "byteOffset": 3456,
      "byteLength": 72,
      "target": 34963
    }
  ],
  "images": [
    {
      "uri": "GrassModelTexture.jpg",
      "name": "GrassModelTexture"
    }
  ],
  "materials": [
    {
      "pbrMetallicRoughness": {
        "baseColorFactor": [
          1.0,
          0.7408769,
          0.385789365,
          1.0
        ],
        "baseColorTexture": {
          "index": 0,
          "extensions": {
            "KHR_texture_transform": {
              "offset": [
                0.0,
                -1.0
              ],
              "scale": [
                2.0,
                2.0
              ]
            }
          }
        },
        "metallicFactor": 0.0
      },
      "name": "GrassModelMat"
    }
  ],
  "meshes": [
    {
      "primitives": [
        {
          "attributes": {
            "POSITION": 0,
            "NORMAL": 1,
            "TANGENT": 2,
            "TEXCOORD_0": 3
          },
          "indices": 4,
          "material": 0
        }
      ],
      "name": "grassmodel (8)"
    }
  ],
  "nodes": [
    {
      "mesh": 0,
      "rotation": [
        -0.7071068,
        0.0,
        0.0,
        0.7071068
      ],
      "translation": [
        164.4753,
        -251.4743,
        1005.248
      ],
      "name": "grassmodel (8)"
    }
  ],
  "samplers": [
    {
      "magFilter": 9728,
      "minFilter": 9728
    }
  ],
  "textures": [
    {
      "sampler": 0,
      "source": 0,
      "name": "GrassModelTexture"
    }
  ]
}