# Blender 3.4.1
# www.blender.org
mtllib grasstro_0.mtl
o grasstro_0
v 0.737044 0.587378 0.488984
v 0.451824 -0.058676 -0.262550
v -0.223648 0.575520 0.863776
v -0.508868 -0.070534 0.112243
v 0.214913 0.734902 -0.735583
v -0.354184 -0.050604 -0.385374
v 0.809463 0.679009 0.105206
v 0.240365 -0.106497 0.455416
v -0.506112 0.710913 0.604817
v 0.114185 -0.106537 0.502127
v -0.610422 0.760498 -0.419975
v 0.009875 -0.056953 -0.522665
vn -0.2360 0.7794 -0.5804
vn -0.6026 0.6457 0.4690
vn 0.7925 0.6078 -0.0513
vt 1.000000 0.000000
vt 1.000000 1.000000
vt 0.000000 -0.000000
vt -0.000000 1.000000
vt 1.000000 0.000000
vt 1.000000 1.000000
vt 0.000000 -0.000000
vt -0.000000 1.000000
vt 1.000000 0.000000
vt 1.000000 1.000000
vt 0.000000 -0.000000
vt -0.000000 1.000000
s 1
usemtl grasstro0_tex
f 1/1/1 2/2/1 4/4/1 3/3/1
f 5/5/2 6/6/2 8/8/2 7/7/2
f 9/9/3 10/10/3 12/12/3 11/11/3
