# Blender 3.4.1
# www.blender.org
mtllib mbushtro_0.mtl
o mbushtro_0
v -0.821455 0.060642 -3.091237
v -0.821455 -0.332636 -0.169752
v 0.827892 0.060642 -3.091237
v 0.827892 -0.332636 -0.169752
v 0.003218 0.315447 -3.308502
v 0.003219 -0.173295 0.030257
v -0.821455 1.107825 -1.317323
v 0.827892 1.107825 -1.317323
v 0.003218 1.267166 -1.117314
v -3.033400 0.027493 0.818012
v -0.173439 -0.327180 0.818012
v -3.033400 0.027493 -0.796601
v -0.173439 -0.327180 -0.796601
v -3.246089 0.276932 0.010706
v 0.022358 -0.171195 0.010706
v -1.296843 1.082946 0.818012
v -1.296843 1.082946 -0.796601
v -1.101046 1.238931 0.010706
v 3.571099 0.297083 -0.937841
v 0.210782 -0.371552 -0.937840
v 3.571099 0.297083 0.959251
v 0.210782 -0.371552 0.959252
v 3.820999 0.590162 0.010705
v -0.019269 -0.188277 0.010706
v 1.530728 1.285278 -0.937841
v 1.530728 1.285278 0.959251
v 1.606911 1.652050 0.010705
v 0.773841 -0.042528 2.909340
v 0.773841 -0.315655 0.179335
v -0.767404 -0.042528 2.909340
v -0.767404 -0.315655 0.179335
v 0.003219 0.195577 3.112365
v 0.003219 -0.166758 -0.007564
v 0.773841 1.030395 1.251692
v -0.767404 1.030395 1.251692
v 0.003219 1.244438 1.189486
v -1.746494 0.297083 3.261554
v 0.552890 -0.371552 0.811133
v -3.129897 0.297083 1.963419
v -0.830514 -0.371552 -0.487001
v -2.609196 0.590162 2.794719
v 0.018606 -0.188277 -0.005693
v -0.350317 1.285278 1.773668
v -1.733721 1.285278 0.475534
v -1.115296 1.468553 1.191374
v 2.245795 -0.099237 1.823575
v 0.697071 -0.306321 -0.295569
v 1.049416 -0.099237 2.697919
v -0.499308 -0.306321 0.578775
v 1.762782 0.129688 2.418344
v -0.007146 -0.163165 -0.003476
v 1.305416 0.987833 0.536840
v 0.109037 0.987833 1.411183
v 0.601199 1.130989 0.828932
v 1.752930 0.297083 -3.240143
v -0.546453 -0.371552 -0.789721
v 3.136334 0.297083 -1.942009
v 0.836951 -0.371552 0.508412
v 2.615633 0.590162 -2.773309
v -0.012169 -0.188277 0.027104
v 0.356754 1.285278 -1.752257
v 1.740158 1.285278 -0.454123
v 0.891037 1.468553 -0.935431
v -2.771477 0.297083 -2.424569
v -0.900231 -0.371552 0.366516
v -1.195749 0.297083 -3.480996
v 0.675498 -0.371552 -0.689910
v -2.122774 0.590162 -3.160350
v 0.015741 -0.188277 0.029384
v -1.635264 1.285278 -0.729834
v -0.059535 1.285278 -1.786260
v -0.803923 1.468553 -1.256790
v -0.630336 1.778702 -1.492245
v -0.630336 -0.228464 0.041840
v 0.789824 1.778702 -1.492245
v 0.789824 -0.228464 0.041840
v 0.079744 2.049558 -1.591089
v 0.079744 -0.159916 0.251084
v -0.630336 1.278515 -0.451841
v 0.789824 1.278515 -0.451841
v 0.079744 1.347063 -0.242596
v 1.961161 1.778702 0.034453
v 0.479395 -0.228464 -0.362768
v 1.593440 1.778702 1.406180
v 0.111673 -0.228464 1.008960
v 1.872773 2.049558 0.745910
v 0.093426 -0.159916 0.268917
v 0.956239 1.278515 -0.234939
v 0.588517 1.278515 1.136788
v 0.570270 1.347063 0.396745
v -0.011282 1.778703 2.158583
v 0.631043 -0.228464 0.765444
v -1.300964 1.778702 1.563958
v -0.658639 -0.228464 0.170820
v -0.697509 2.049558 1.951033
v 0.073813 -0.159916 0.278112
v 0.424338 1.278516 1.213767
v -0.865344 1.278516 0.619143
v -0.132892 1.347063 0.726435
v 2.347494 0.038763 -1.301171
v -0.021447 -0.290395 -0.695413
v 2.689479 0.038763 0.036232
v 0.320538 -0.290395 0.641990
v 2.694659 0.252024 -0.677518
v -0.012635 -0.157033 0.014759
v 0.909082 0.915212 -0.933357
v 1.251067 0.915212 0.404046
v 0.917894 1.048573 -0.223184
v -1.281031 0.011018 -2.284201
v -0.688030 -0.285828 0.034851
v 0.028208 0.011018 -2.618984
v 0.621209 -0.285828 -0.299932
v -0.670512 0.219788 -2.624056
v 0.007187 -0.155275 0.026225
v -0.920963 0.894389 -0.876082
v 0.388276 0.894389 -1.210864
v -0.225746 1.024942 -0.884708
v 1.512150 0.236654 2.707110
v 0.815402 -0.322966 -0.017665
v -0.026142 0.236654 3.100464
v -0.722890 -0.322966 0.375689
v 0.794820 0.481949 3.106423
v -0.001444 -0.169573 -0.007529
v 1.089087 1.063733 1.052638
v -0.449205 1.063732 1.445992
v 0.335738 1.370705 1.311089
v -2.187407 -0.047586 1.236598
v 0.026267 -0.276183 0.670544
v -2.506978 -0.047586 -0.013148
v -0.293303 -0.276183 -0.579203
v -2.511819 0.151697 0.653821
v 0.018033 -0.151562 0.006917
v -0.843273 0.850406 0.892892
v -1.162843 0.850406 -0.356854
v -0.952617 1.029551 0.255121
v -2.995586 0.236654 -0.734031
v -0.531851 -0.322966 0.622382
v -2.229813 0.236654 -2.124952
v 0.233922 -0.322966 -0.768539
v -2.795923 0.481949 -1.530366
v 0.019706 -0.169573 0.019783
v -1.499616 1.063732 0.089577
v -0.733843 1.063732 -1.301344
v -1.186068 1.217125 -0.651456
v -1.001791 -0.095050 2.205031
v 0.395434 -0.268370 0.509824
v -1.958833 -0.095050 1.416216
v -0.561608 -0.268370 -0.278990
v -1.584221 0.096551 1.936693
v 0.012569 -0.148554 -0.000639
v -0.153402 0.814783 1.175708
v -1.110444 0.814783 0.386894
v -0.536267 0.934599 0.665245
v 3.002024 0.236654 0.755442
v 0.538288 -0.322966 -0.600971
v 2.236251 0.236654 2.146363
v -0.227485 -0.322966 0.789950
v 2.802361 0.481949 1.551776
v -0.013269 -0.169573 0.001628
v 1.506053 1.063732 -0.068167
v 0.740281 1.063732 1.322755
v 0.954497 1.217126 0.534433
v 1.402585 0.236654 -2.744152
v -0.472623 -0.322966 -0.648097
v 2.585929 0.236654 -1.685489
v 0.710720 -0.322966 0.410566
v 2.133713 0.481950 -2.370700
v -0.009331 -0.169573 0.024733
v 0.263966 1.063733 -1.471436
v 1.447310 1.063733 -0.412773
v 0.863634 1.217126 -0.906590
v 1.090549 1.476708 -0.814654
v -0.153392 -0.203207 -0.496569
v 1.385013 1.476708 0.336909
v 0.141072 -0.203207 0.654995
v 1.317930 1.703403 -0.259367
v -0.175830 -0.145836 0.122599
v 0.246918 1.058072 -0.598931
v 0.541382 1.058072 0.552632
v 0.224480 1.115444 0.020237
v 0.389934 1.476708 1.603264
v 0.404789 -0.203207 0.319384
v -0.798602 1.476708 1.589512
v -0.783747 -0.203207 0.305632
v -0.205291 1.703403 1.679110
v -0.187453 -0.145836 0.137391
v 0.400009 1.058072 0.732546
v -0.788527 1.058072 0.718794
v -0.192233 1.115444 0.550553
v -1.741434 1.476708 0.444300
v -0.478599 -0.203207 0.676280
v -1.526681 1.476708 -0.724755
v -0.263846 -0.203207 -0.492775
v -1.715424 1.703403 -0.155174
v -0.198976 -0.145836 0.123394
v -0.884989 1.058072 0.601627
v -0.670237 1.058072 -0.567427
v -0.605366 1.115444 0.048741
vn -0.0000 0.9583 0.2859
vn -0.0000 0.6231 0.7821
vn 0.2962 0.5951 0.7470
vn 0.3229 0.9375 0.1294
vn -0.3229 0.9375 0.1294
vn -0.2962 0.5951 0.7470
vn -0.2232 0.8704 -0.4388
vn -0.0000 0.8929 -0.4502
vn 0.2232 0.8704 -0.4388
vn 0.2810 0.9597 -0.0000
vn 0.7821 0.6231 -0.0000
vn 0.7470 0.5951 -0.2962
vn 0.1224 0.9382 -0.3236
vn 0.1224 0.9382 0.3236
vn 0.7470 0.5951 0.2962
vn -0.4497 0.8652 0.2219
vn -0.4612 0.8873 -0.0000
vn -0.4497 0.8652 -0.2219
vn -0.1585 0.9874 -0.0000
vn -0.7648 0.6443 -0.0000
vn -0.7422 0.6252 0.2415
vn -0.2565 0.8942 0.3668
vn -0.2565 0.8942 -0.3668
vn -0.7422 0.6252 -0.2415
vn 0.4047 0.8399 -0.3617
vn 0.4341 0.9009 -0.0000
vn 0.4047 0.8399 0.3617
vn -0.0000 0.9821 -0.1885
vn -0.0000 0.6355 -0.7721
vn -0.2647 0.6128 -0.7446
vn -0.3534 0.9229 -0.1528
vn 0.3534 0.9229 -0.1528
vn 0.2647 0.6128 -0.7446
vn 0.2864 0.8242 0.4884
vn -0.0000 0.8603 0.5098
vn -0.2864 0.8242 0.4884
vn 0.1117 0.9863 -0.1216
vn 0.5094 0.6673 -0.5433
vn 0.3716 0.6564 -0.6566
vn -0.0298 0.9244 -0.3803
vn 0.3794 0.9252 0.0045
vn 0.6305 0.6570 -0.4134
vn -0.0528 0.8759 0.4796
vn -0.2765 0.9149 0.2939
vn -0.4773 0.8749 0.0821
vn -0.1540 0.9654 -0.2107
vn -0.4615 0.6231 -0.6315
vn -0.6799 0.5951 -0.4284
vn -0.3186 0.9407 0.1169
vn 0.2081 0.9407 -0.2681
vn -0.2017 0.5951 -0.7779
vn 0.4662 0.8422 0.2708
vn 0.2984 0.8627 0.4083
vn 0.1164 0.8422 0.5264
vn -0.2166 0.9486 0.2308
vn -0.5352 0.6231 0.5704
vn -0.2952 0.5951 0.7474
vn 0.1138 0.9318 0.3446
vn -0.3511 0.9318 -0.0916
vn -0.7272 0.5951 0.3421
vn 0.0845 0.9007 -0.4262
vn 0.2592 0.9255 -0.2762
vn 0.4200 0.9007 -0.1114
vn 0.1307 0.9748 0.1810
vn 0.4240 0.6514 0.6293
vn 0.6001 0.6331 0.4889
vn 0.3780 0.9256 0.0175
vn -0.1182 0.9290 0.3506
vn 0.2302 0.6370 0.7357
vn -0.4289 0.8876 -0.1678
vn -0.2175 0.9192 -0.3284
vn 0.0139 0.8837 -0.4679
vn -0.0000 0.6321 0.7749
vn -0.0000 0.3113 0.9503
vn 0.2962 0.2973 0.9077
vn 0.2872 0.6462 0.7071
vn -0.2872 0.6462 0.7071
vn -0.2962 0.2973 0.9077
vn -0.2411 0.8668 0.4364
vn -0.0000 0.8932 0.4497
vn 0.2411 0.8668 0.4364
vn -0.7485 0.6321 -0.2006
vn -0.9179 0.3113 -0.2461
vn -0.9534 0.2973 0.0511
vn -0.7573 0.6462 0.0944
vn -0.6086 0.6462 -0.4605
vn -0.8000 0.2973 -0.5211
vn -0.3591 0.8668 -0.3459
vn -0.4343 0.8932 -0.1164
vn -0.4840 0.8668 0.1199
vn 0.3245 0.6321 -0.7037
vn 0.3979 0.3113 -0.8630
vn 0.1111 0.2973 -0.9483
vn 0.0352 0.6462 -0.7624
vn 0.5569 0.6462 -0.5218
vn 0.6490 0.2973 -0.7003
vn 0.4017 0.8668 -0.2954
vn 0.1883 0.8932 -0.4084
vn -0.0362 0.8668 -0.4973
vn -0.2770 0.9583 0.0708
vn -0.7578 0.6231 0.1938
vn -0.6504 0.5951 0.4720
vn -0.0454 0.9375 0.3449
vn -0.2054 0.9375 -0.2808
vn -0.7971 0.5951 -0.1019
vn 0.3698 0.8704 -0.3249
vn 0.4361 0.8929 -0.1115
vn 0.4804 0.8704 0.1075
vn 0.0696 0.9597 0.2723
vn 0.1938 0.6231 0.7578
vn 0.4720 0.5951 0.6504
vn 0.3438 0.9382 0.0385
vn -0.2831 0.9382 0.1988
vn -0.1019 0.5951 0.7971
vn -0.3264 0.8652 -0.3807
vn -0.1143 0.8873 -0.4468
vn 0.1036 0.8652 -0.4906
vn -0.0393 0.9874 -0.1535
vn -0.1895 0.6443 -0.7409
vn -0.4178 0.6252 -0.6592
vn -0.4189 0.8942 -0.1577
vn 0.2918 0.8942 -0.3394
vn 0.0501 0.6252 -0.7788
vn 0.4507 0.8399 0.3025
vn 0.1075 0.9009 0.4206
vn -0.2502 0.8399 0.4817
vn 0.1826 0.9821 -0.0467
vn 0.7480 0.6355 -0.1913
vn 0.6558 0.6128 -0.4409
vn 0.0605 0.9229 -0.3802
vn 0.2356 0.9229 0.3045
vn 0.7869 0.6128 0.0719
vn -0.4023 0.8242 0.3985
vn -0.4939 0.8603 0.1263
vn -0.5442 0.8242 -0.1565
vn 0.1455 0.9863 0.0781
vn 0.6526 0.6673 0.3589
vn 0.7282 0.6564 0.1974
vn 0.3610 0.9244 -0.1231
vn 0.0896 0.9252 0.3687
vn 0.5567 0.6570 0.5084
vn -0.4777 0.8759 0.0677
vn -0.3533 0.9149 -0.1951
vn -0.1977 0.8749 -0.4421
vn 0.1660 0.9654 -0.2014
vn 0.4975 0.6231 -0.6036
vn 0.2466 0.5951 -0.7648
vn -0.1922 0.9407 -0.2797
vn 0.3113 0.9407 0.1352
vn 0.7037 0.5951 -0.3881
vn -0.1468 0.8422 0.5188
vn -0.3217 0.8627 0.3903
vn -0.4812 0.8422 0.2432
vn -0.2773 0.9486 -0.1526
vn -0.6852 0.6231 -0.3772
vn -0.7973 0.5951 -0.1008
vn -0.3056 0.9318 0.1956
vn 0.0018 0.9318 -0.3628
vn -0.5116 0.5951 -0.6197
vn 0.4339 0.9007 -0.0237
vn 0.3318 0.9255 0.1827
vn 0.2120 0.9007 0.3793
vn -0.1429 0.9748 0.1714
vn -0.5046 0.6514 0.5666
vn -0.3250 0.6331 0.7025
vn 0.0767 0.9256 0.3706
vn -0.3689 0.9290 -0.0277
vn -0.6557 0.6370 0.4053
vn 0.0564 0.8876 -0.4571
vn 0.2643 0.9192 -0.2921
vn 0.4567 0.8837 -0.1025
vn -0.7507 0.6321 0.1920
vn -0.9207 0.3113 0.2354
vn -0.8060 0.2973 0.5118
vn -0.6139 0.6462 0.4534
vn -0.7562 0.6462 -0.1031
vn -0.9527 0.2973 -0.0621
vn -0.4825 0.8668 -0.1255
vn -0.4357 0.8932 0.1114
vn -0.3631 0.8668 0.3417
vn 0.0090 0.6321 -0.7748
vn 0.0110 0.3113 -0.9502
vn -0.2857 0.2973 -0.9110
vn -0.2790 0.6462 -0.7103
vn 0.2954 0.6462 -0.7037
vn 0.3067 0.2973 -0.9042
vn 0.2461 0.8668 -0.4336
vn 0.0052 0.8932 -0.4496
vn -0.2360 0.8668 -0.4392
vn 0.7621 0.6321 0.1400
vn 0.9347 0.3113 0.1717
vn 0.9462 0.2973 -0.1273
vn 0.7473 0.6462 -0.1548
vn 0.6435 0.6462 0.4103
vn 0.8392 0.2973 0.4553
vn 0.3857 0.8668 0.3160
vn 0.4423 0.8932 0.0812
vn 0.4728 0.8668 -0.1583
vt 0.749886 0.000000
vt 0.749886 1.000000
vt 0.250114 0.000000
vt 0.250114 1.000000
vt 0.500000 0.000000
vt 0.500000 1.000000
vt 0.749886 0.500000
vt 0.250114 0.500000
vt 0.500000 0.500000
vt 0.749886 0.000000
vt 0.749886 1.000000
vt 0.250114 0.000000
vt 0.250114 1.000000
vt 0.500000 0.000000
vt 0.500000 1.000000
vt 0.749886 0.500000
vt 0.250114 0.500000
vt 0.500000 0.500000
vt 0.749886 0.000000
vt 0.749886 1.000000
vt 0.250114 0.000000
vt 0.250114 1.000000
vt 0.500000 0.000000
vt 0.500000 1.000000
vt 0.749886 0.500000
vt 0.250114 0.500000
vt 0.500000 0.500000
vt 0.749886 0.000000
vt 0.749886 1.000000
vt 0.250114 0.000000
vt 0.250114 1.000000
vt 0.500000 0.000000
vt 0.500000 1.000000
vt 0.749886 0.500000
vt 0.250114 0.500000
vt 0.500000 0.500000
vt 0.749886 0.000000
vt 0.749886 1.000000
vt 0.250114 0.000000
vt 0.250114 1.000000
vt 0.500000 0.000000
vt 0.500000 1.000000
vt 0.749886 0.500000
vt 0.250114 0.500000
vt 0.500000 0.500000
vt 0.749886 0.000000
vt 0.749886 1.000000
vt 0.250114 0.000000
vt 0.250114 1.000000
vt 0.500000 0.000000
vt 0.500000 1.000000
vt 0.749886 0.500000
vt 0.250114 0.500000
vt 0.500000 0.500000
vt 0.749886 0.000000
vt 0.749886 1.000000
vt 0.250114 0.000000
vt 0.250114 1.000000
vt 0.500000 0.000000
vt 0.500000 1.000000
vt 0.749886 0.500000
vt 0.250114 0.500000
vt 0.500000 0.500000
vt 0.749886 0.000000
vt 0.749886 1.000000
vt 0.250114 0.000000
vt 0.250114 1.000000
vt 0.500000 0.000000
vt 0.500000 1.000000
vt 0.749886 0.500000
vt 0.250114 0.500000
vt 0.500000 0.500000
vt 0.749886 0.000000
vt 0.749886 1.000000
vt 0.250114 0.000000
vt 0.250114 1.000000
vt 0.500000 0.000000
vt 0.500000 1.000000
vt 0.749886 0.500000
vt 0.250114 0.500000
vt 0.500000 0.500000
vt 0.749886 0.000000
vt 0.749886 1.000000
vt 0.250114 0.000000
vt 0.250114 1.000000
vt 0.500000 0.000000
vt 0.500000 1.000000
vt 0.749886 0.500000
vt 0.250114 0.500000
vt 0.500000 0.500000
vt 0.749886 0.000000
vt 0.749886 1.000000
vt 0.250114 0.000000
vt 0.250114 1.000000
vt 0.500000 0.000000
vt 0.500000 1.000000
vt 0.749886 0.500000
vt 0.250114 0.500000
vt 0.500000 0.500000
vt 0.749886 0.000000
vt 0.749886 1.000000
vt 0.250114 0.000000
vt 0.250114 1.000000
vt 0.500000 0.000000
vt 0.500000 1.000000
vt 0.749886 0.500000
vt 0.250114 0.500000
vt 0.500000 0.500000
vt 0.749886 0.000000
vt 0.749886 1.000000
vt 0.250114 0.000000
vt 0.250114 1.000000
vt 0.500000 0.000000
vt 0.500000 1.000000
vt 0.749886 0.500000
vt 0.250114 0.500000
vt 0.500000 0.500000
vt 0.749886 0.000000
vt 0.749886 1.000000
vt 0.250114 0.000000
vt 0.250114 1.000000
vt 0.500000 0.000000
vt 0.500000 1.000000
vt 0.749886 0.500000
vt 0.250114 0.500000
vt 0.500000 0.500000
vt 0.749886 0.000000
vt 0.749886 1.000000
vt 0.250114 0.000000
vt 0.250114 1.000000
vt 0.500000 0.000000
vt 0.500000 1.000000
vt 0.749886 0.500000
vt 0.250114 0.500000
vt 0.500000 0.500000
vt 0.749886 0.000000
vt 0.749886 1.000000
vt 0.250114 0.000000
vt 0.250114 1.000000
vt 0.500000 0.000000
vt 0.500000 1.000000
vt 0.749886 0.500000
vt 0.250114 0.500000
vt 0.500000 0.500000
vt 0.749886 0.000000
vt 0.749886 1.000000
vt 0.250114 0.000000
vt 0.250114 1.000000
vt 0.500000 0.000000
vt 0.500000 1.000000
vt 0.749886 0.500000
vt 0.250114 0.500000
vt 0.500000 0.500000
vt 0.749886 0.000000
vt 0.749886 1.000000
vt 0.250114 0.000000
vt 0.250114 1.000000
vt 0.500000 0.000000
vt 0.500000 1.000000
vt 0.749886 0.500000
vt 0.250114 0.500000
vt 0.500000 0.500000
vt 0.749886 0.000000
vt 0.749886 1.000000
vt 0.250114 0.000000
vt 0.250114 1.000000
vt 0.500000 0.000000
vt 0.500000 1.000000
vt 0.749886 0.500000
vt 0.250114 0.500000
vt 0.500000 0.500000
vt 0.749886 0.000000
vt 0.749886 1.000000
vt 0.250114 0.000000
vt 0.250114 1.000000
vt 0.500000 0.000000
vt 0.500000 1.000000
vt 0.749886 0.500000
vt 0.250114 0.500000
vt 0.500000 0.500000
vt 0.749886 0.000000
vt 0.749886 1.000000
vt 0.250114 0.000000
vt 0.250114 1.000000
vt 0.500000 0.000000
vt 0.500000 1.000000
vt 0.749886 0.500000
vt 0.250114 0.500000
vt 0.500000 0.500000
vt 0.749886 0.000000
vt 0.749886 1.000000
vt 0.250114 0.000000
vt 0.250114 1.000000
vt 0.500000 0.000000
vt 0.500000 1.000000
vt 0.749886 0.500000
vt 0.250114 0.500000
vt 0.500000 0.500000
s 1
usemtl mbushtro_tex
f 9/9/1 6/6/2 4/4/3 8/8/4
f 7/7/5 2/2/6 6/6/2 9/9/1
f 1/1/7 7/7/5 9/9/1 5/5/8
f 5/5/8 9/9/1 8/8/4 3/3/9
f 18/18/10 15/15/11 13/13/12 17/17/13
f 16/16/14 11/11/15 15/15/11 18/18/10
f 10/10/16 16/16/14 18/18/10 14/14/17
f 14/14/17 18/18/10 17/17/13 12/12/18
f 27/27/19 24/24/20 22/22/21 26/26/22
f 25/25/23 20/20/24 24/24/20 27/27/19
f 19/19/25 25/25/23 27/27/19 23/23/26
f 23/23/26 27/27/19 26/26/22 21/21/27
f 36/36/28 33/33/29 31/31/30 35/35/31
f 34/34/32 29/29/33 33/33/29 36/36/28
f 28/28/34 34/34/32 36/36/28 32/32/35
f 32/32/35 36/36/28 35/35/31 30/30/36
f 45/45/37 42/42/38 40/40/39 44/44/40
f 43/43/41 38/38/42 42/42/38 45/45/37
f 37/37/43 43/43/41 45/45/37 41/41/44
f 41/41/44 45/45/37 44/44/40 39/39/45
f 54/54/46 51/51/47 49/49/48 53/53/49
f 52/52/50 47/47/51 51/51/47 54/54/46
f 46/46/52 52/52/50 54/54/46 50/50/53
f 50/50/53 54/54/46 53/53/49 48/48/54
f 63/63/55 60/60/56 58/58/57 62/62/58
f 61/61/59 56/56/60 60/60/56 63/63/55
f 55/55/61 61/61/59 63/63/55 59/59/62
f 59/59/62 63/63/55 62/62/58 57/57/63
f 72/72/64 69/69/65 67/67/66 71/71/67
f 70/70/68 65/65/69 69/69/65 72/72/64
f 64/64/70 70/70/68 72/72/64 68/68/71
f 68/68/71 72/72/64 71/71/67 66/66/72
f 81/81/73 78/78/74 76/76/75 80/80/76
f 79/79/77 74/74/78 78/78/74 81/81/73
f 73/73/79 79/79/77 81/81/73 77/77/80
f 77/77/80 81/81/73 80/80/76 75/75/81
f 90/90/82 87/87/83 85/85/84 89/89/85
f 88/88/86 83/83/87 87/87/83 90/90/82
f 82/82/88 88/88/86 90/90/82 86/86/89
f 86/86/89 90/90/82 89/89/85 84/84/90
f 99/99/91 96/96/92 94/94/93 98/98/94
f 97/97/95 92/92/96 96/96/92 99/99/91
f 91/91/97 97/97/95 99/99/91 95/95/98
f 95/95/98 99/99/91 98/98/94 93/93/99
f 108/108/100 105/105/101 103/103/102 107/107/103
f 106/106/104 101/101/105 105/105/101 108/108/100
f 100/100/106 106/106/104 108/108/100 104/104/107
f 104/104/107 108/108/100 107/107/103 102/102/108
f 117/117/109 114/114/110 112/112/111 116/116/112
f 115/115/113 110/110/114 114/114/110 117/117/109
f 109/109/115 115/115/113 117/117/109 113/113/116
f 113/113/116 117/117/109 116/116/112 111/111/117
f 126/126/118 123/123/119 121/121/120 125/125/121
f 124/124/122 119/119/123 123/123/119 126/126/118
f 118/118/124 124/124/122 126/126/118 122/122/125
f 122/122/125 126/126/118 125/125/121 120/120/126
f 135/135/127 132/132/128 130/130/129 134/134/130
f 133/133/131 128/128/132 132/132/128 135/135/127
f 127/127/133 133/133/131 135/135/127 131/131/134
f 131/131/134 135/135/127 134/134/130 129/129/135
f 144/144/136 141/141/137 139/139/138 143/143/139
f 142/142/140 137/137/141 141/141/137 144/144/136
f 136/136/142 142/142/140 144/144/136 140/140/143
f 140/140/143 144/144/136 143/143/139 138/138/144
f 153/153/145 150/150/146 148/148/147 152/152/148
f 151/151/149 146/146/150 150/150/146 153/153/145
f 145/145/151 151/151/149 153/153/145 149/149/152
f 149/149/152 153/153/145 152/152/148 147/147/153
f 162/162/154 159/159/155 157/157/156 161/161/157
f 160/160/158 155/155/159 159/159/155 162/162/154
f 154/154/160 160/160/158 162/162/154 158/158/161
f 158/158/161 162/162/154 161/161/157 156/156/162
f 171/171/163 168/168/164 166/166/165 170/170/166
f 169/169/167 164/164/168 168/168/164 171/171/163
f 163/163/169 169/169/167 171/171/163 167/167/170
f 167/167/170 171/171/163 170/170/166 165/165/171
f 180/180/172 177/177/173 175/175/174 179/179/175
f 178/178/176 173/173/177 177/177/173 180/180/172
f 172/172/178 178/178/176 180/180/172 176/176/179
f 176/176/179 180/180/172 179/179/175 174/174/180
f 189/189/181 186/186/182 184/184/183 188/188/184
f 187/187/185 182/182/186 186/186/182 189/189/181
f 181/181/187 187/187/185 189/189/181 185/185/188
f 185/185/188 189/189/181 188/188/184 183/183/189
f 198/198/190 195/195/191 193/193/192 197/197/193
f 196/196/194 191/191/195 195/195/191 198/198/190
f 190/190/196 196/196/194 198/198/190 194/194/197
f 194/194/197 198/198/190 197/197/193 192/192/198
