# Blender 3.4.1
# www.blender.org
mtllib lboulderreg_0.mtl
o lboulderreg_0
v 0.045745 1.157798 -0.079703
v 1.052450 -0.446418 0.470198
v 0.813427 -0.362172 -0.862506
v 0.643025 0.614234 -0.366867
v 0.589252 0.278618 0.830310
v 0.941744 0.199480 -0.169061
v 0.452139 0.255712 -0.832368
v -1.195191 -0.335358 0.048472
v 0.171309 -0.308824 1.171440
v 0.224981 0.830257 0.530948
v -0.905424 -0.073026 -0.628029
v -0.473072 -0.243230 1.151445
v -0.252713 0.778870 0.685556
v 0.705232 0.589709 0.328623
v 0.025145 0.976471 -0.435004
v -1.110469 0.046709 0.322670
v -0.801757 -0.561143 0.673524
v 0.542419 -0.317388 0.960548
v -0.036564 -0.673461 1.099192
v -0.407697 -0.484248 -0.984702
v 0.012310 0.419506 0.975590
v -0.872494 -0.614026 -0.360406
v 0.567972 -0.653774 0.679500
v 0.006822 -0.876824 0.140715
v -0.442260 0.198792 -0.922732
v 0.015104 0.121938 -0.931811
v 0.167802 -0.744671 -0.362907
v 0.803598 0.093521 -0.630709
v 0.100053 0.645421 -0.657699
v -0.719370 0.504547 -0.398343
v -0.312273 0.700511 -0.631344
v 0.821885 -0.791851 0.122917
v 1.098713 -0.696557 -0.197400
v -0.302519 -0.699125 -0.803914
v -0.836356 -0.756785 0.056381
v -0.173491 -0.775478 0.673137
v 1.152794 -0.175524 0.288899
v 0.112614 -0.330612 -1.175681
v -0.522211 0.897694 0.255121
v -0.775708 0.456239 0.316705
v -0.649967 0.170874 0.824933
v 0.197492 -0.644919 -0.934551
v 1.196613 -0.220259 -0.227415
vn 0.7838 -0.3414 0.5187
vn 0.5727 0.3987 0.7163
vn 0.5780 -0.1808 0.7957
vn 0.9414 0.1718 0.2903
vn 0.7244 0.6432 0.2480
vn 0.8427 0.5162 -0.1531
vn 0.6684 0.6455 -0.3697
vn 0.7140 0.4201 -0.5601
vn 0.1871 0.5534 -0.8116
vn 0.0153 0.8187 -0.5741
vn 0.0608 0.9940 -0.0909
vn -0.3407 0.6659 -0.6637
vn -0.8116 0.1024 -0.5752
vn -0.3700 0.3811 -0.8473
vn -0.4397 -0.3785 -0.8145
vn -0.6117 0.7703 0.1803
vn -0.7321 0.5735 -0.3676
vn -0.6124 0.4115 0.6750
vn -0.7757 0.5755 0.2588
vn -0.9162 0.2999 0.2658
vn -0.2660 0.7124 0.6494
vn 0.0387 0.4876 0.8722
vn 0.3283 0.7884 0.5202
vn 0.2620 -0.0495 0.9638
vn 0.3251 -0.9360 0.1348
vn 0.7033 -0.6905 -0.1692
vn 0.0161 -0.9826 -0.1848
vn 0.1390 -0.8090 -0.5712
vn -0.2088 -0.8953 -0.3934
vn -0.5989 -0.6980 -0.3926
vn -0.0052 -0.9998 -0.0206
vn -0.4667 -0.8843 -0.0160
vn -0.9811 -0.1921 -0.0233
vn -0.6572 -0.5609 0.5036
vn -0.0942 -0.9654 0.2433
vn 0.0167 -0.7060 0.7080
vn 0.3750 -0.7863 0.4910
vn 0.9654 0.1464 -0.2157
vn 0.6292 -0.1888 -0.7539
vn 0.0685 -0.0997 -0.9927
vn 0.3623 0.4778 -0.8003
vn 0.0548 0.4774 -0.8770
vn -0.4422 -0.0295 0.8964
vt 0.312146 0.446288
vt 0.002480 0.275646
vt 0.747715 0.409322
vt 0.655342 0.000000
vt 0.894428 0.046886
vt 0.397202 0.218861
vt 0.464105 0.484774
vt 0.167388 0.219104
vt 0.083069 0.004574
vt 0.656218 0.156855
vt 0.234706 0.124824
vt 0.265968 0.295573
vt 0.000000 0.718101
vt 0.832106 0.438033
vt 1.000000 0.261432
vt 0.492289 0.115251
vt 0.000000 0.132172
vt 0.692374 0.305570
vt 0.429748 0.850252
vt 0.158157 0.759048
vt 0.681207 0.673465
vt 0.403105 0.220077
vt 0.129592 0.410680
vt 0.602051 0.360423
vt 0.096865 0.094620
vt 0.747715 0.209769
vt 0.071349 0.325451
vt 0.344294 0.524794
vt 0.397202 0.395819
vt 0.743421 0.451882
vt 0.005839 0.617613
vt 0.781436 0.592103
vt 0.561976 0.069893
vt 0.975995 0.174778
vt 0.938945 0.315050
vt 0.768174 0.771273
vt 0.416948 0.095579
vt 0.236245 0.844267
vt 0.439701 0.742783
vt 0.576578 0.254909
vt 0.764909 0.966587
vt 0.075104 0.800295
vt 0.548762 0.852517
vt 0.950976 0.463336
vt 0.889989 0.166480
vt 0.681207 0.676567
vt 0.747715 0.246052
vt 0.950976 0.681762
vt 0.284457 0.735223
vt 0.222100 0.410680
vt 0.268329 0.354187
vt 0.764909 0.771273
vt 0.585505 0.633151
vt 0.294843 0.210810
vt 0.156691 0.332472
vt 0.201017 0.630181
vt 0.115298 0.379465
vt 0.304411 0.611978
vt 0.681207 0.502728
vt 0.785659 0.083432
vt 0.749927 0.001386
vt 0.621917 0.438033
vt 0.397202 0.053587
vt 0.681207 0.838263
vt 0.500483 0.725355
vt 0.635710 0.852852
vt 0.904103 0.530079
vt 0.842578 0.708044
vt 0.846575 0.315050
vt 0.718284 0.033851
vt 0.895866 0.000000
vt 0.259675 0.000000
vt 0.344294 0.820362
vt 0.397202 0.628017
vt 0.377768 0.354278
vt 0.167690 0.468316
vt 0.604266 0.438033
vt 0.086534 0.539231
vt 0.503071 0.407300
vt 0.003797 0.503214
vt 0.451725 0.322502
vt 0.481155 0.616770
vt 0.328828 0.077918
s 1
usemtl lboulderreg_tex
f 2/4/1 5/10/2 18/33/3
f 37/70/4 5/10/2 2/4/1
f 37/72/4 14/25/5 5/9/2
f 6/11/6 14/25/5 37/72/4
f 4/8/7 6/11/6 28/54/8
f 29/55/9 15/27/10 4/8/7
f 4/8/7 15/27/10 1/2/11
f 29/55/9 31/57/12 15/27/10
f 11/20/13 25/49/14 20/38/15
f 15/28/10 39/76/16 1/1/11
f 31/58/12 30/56/17 39/76/16
f 30/56/17 31/58/12 11/20/13
f 41/80/18 40/78/19 16/31/20
f 39/77/16 13/24/21 1/3/11
f 21/40/22 10/18/23 13/24/21
f 18/33/3 5/10/2 9/16/24
f 32/60/25 33/61/26 2/5/1
f 27/53/27 33/62/26 32/59/25
f 42/82/28 34/65/29 20/39/15
f 27/53/27 42/82/28 33/62/26
f 22/43/30 27/53/27 24/46/31
f 22/41/30 34/64/29 27/52/27
f 24/46/31 35/66/32 22/43/30
f 8/14/33 35/67/32 17/32/34
f 35/67/32 36/68/35 17/32/34
f 19/35/36 23/45/37 18/34/3
f 36/68/35 19/36/36 17/32/34
f 23/45/37 36/69/35 24/47/31
f 33/61/26 37/71/4 2/5/1
f 28/54/8 43/83/38 3/6/39
f 28/54/8 6/11/6 43/83/38
f 20/39/15 38/74/40 42/82/28
f 38/75/40 7/12/41 3/6/39
f 25/49/14 38/73/40 20/38/15
f 7/12/41 38/75/40 26/51/42
f 22/43/30 11/19/13 20/39/15
f 8/13/33 11/20/13 22/42/30
f 16/30/20 17/32/34 12/21/43
f 11/20/13 8/13/33 16/31/20
f 10/17/23 14/25/5 1/2/11
f 6/11/6 4/8/7 14/25/5
f 14/25/5 4/8/7 1/2/11
f 4/8/7 7/12/41 29/55/9
f 3/6/39 7/12/41 28/54/8
f 7/12/41 4/8/7 28/54/8
f 26/51/42 29/55/9 7/12/41
f 26/51/42 25/50/14 31/57/12
f 29/55/9 26/51/42 31/57/12
f 31/58/12 25/49/14 11/20/13
f 15/28/10 31/58/12 39/76/16
f 30/56/17 40/78/19 39/76/16
f 16/31/20 40/78/19 30/56/17
f 12/22/43 41/81/18 16/29/20
f 13/23/21 40/78/19 41/80/18
f 13/24/21 39/77/16 40/79/19
f 41/81/18 21/40/22 13/24/21
f 1/3/11 13/24/21 10/18/23
f 21/40/22 5/10/2 10/18/23
f 5/10/2 14/26/5 10/18/23
f 23/45/37 32/60/25 2/5/1
f 24/46/31 27/53/27 32/59/25
f 24/47/31 32/60/25 23/45/37
f 27/53/27 34/65/29 42/82/28
f 33/62/26 42/82/28 3/7/39
f 20/39/15 34/65/29 22/43/30
f 24/48/31 36/68/35 35/67/32
f 19/35/36 36/69/35 23/45/37
f 18/34/3 23/45/37 2/5/1
f 18/34/3 9/15/24 19/35/36
f 3/6/39 43/83/38 33/63/26
f 43/83/38 37/72/4 33/63/26
f 37/72/4 43/83/38 6/11/6
f 42/82/28 38/74/40 3/7/39
f 25/50/14 26/51/42 38/75/40
f 22/44/30 35/67/32 8/14/33
f 16/30/20 8/14/33 17/32/34
f 30/56/17 11/20/13 16/31/20
f 17/32/34 19/36/36 12/21/43
f 19/37/36 9/16/24 12/22/43
f 41/81/18 12/22/43 21/40/22
f 21/40/22 12/22/43 9/16/24
f 21/40/22 9/16/24 5/10/2
