# Blender 3.4.1
# www.blender.org
mtllib sboulderdes_0.mtl
o sboulderdes_0
v 0.431621 0.059979 0.107208
v -0.151027 0.434399 0.321750
v -0.413115 0.217193 0.348792
v 0.060057 -0.271154 -0.221499
v 0.081356 -0.175191 0.432671
v -0.333448 -0.255883 -0.113027
v -0.355360 0.135262 -0.327644
v -0.381520 -0.127683 0.262368
v 0.378160 0.228577 0.232642
v -0.349086 -0.086210 -0.341117
v -0.085726 -0.362058 0.099741
v -0.026278 0.453794 0.053258
v -0.164379 -0.110498 -0.466955
v 0.308855 0.090398 0.495954
v 0.409635 -0.094128 0.298149
v -0.043894 0.136774 -0.447130
vn 0.7794 0.6192 0.0958
vn 0.4834 0.1505 0.8624
vn 0.9512 0.0581 -0.3029
vn -0.0413 -0.9877 0.1511
vn 0.4366 -0.7418 -0.5091
vn 0.8359 -0.4798 0.2666
vn -0.6860 -0.7049 -0.1801
vn 0.2876 0.4005 -0.8700
vn 0.0297 -0.6087 0.7928
vn -0.7882 0.3192 0.5262
vn -0.7752 -0.4478 0.4455
vn -0.7318 0.4401 -0.5203
vn -0.8014 -0.3053 -0.5143
vn -0.0564 -0.3972 -0.9160
vn 0.0650 0.9737 -0.2185
vn -0.2407 0.8635 0.4433
vt 0.552939 0.860973
vt 0.233969 0.377152
vt 0.794622 0.395973
vt 0.603688 0.295124
vt 0.825411 0.760536
vt 0.364105 0.735588
vt 0.445760 0.333670
vt 1.000000 0.000000
vt 0.532428 0.746663
vt 0.000000 0.356052
vt 0.603688 0.684594
vt 0.603688 0.172517
vt 0.257743 0.155185
vt 0.429196 0.019899
vt 0.794622 0.257095
vt 0.790300 0.609799
vt 1.000000 0.337951
vt 0.532428 0.409113
vt 0.265670 0.740023
vt 0.835612 0.063991
vt 0.308805 0.356052
vt 0.308805 0.231527
vt 0.825411 0.464732
vt 0.482274 0.941370
vt 0.129120 0.356052
vt 0.969694 0.515860
vt 0.156573 0.743583
vt 0.825411 0.744252
vt 0.892277 0.357927
vt 0.176472 0.343019
vt 0.654685 0.512340
vt 0.970905 0.760536
vt 0.000000 0.564302
vt 0.308805 0.599874
vt 0.662814 0.000000
vt 0.736553 0.809291
vt 0.140617 0.852994
vt 0.350998 0.867133
vt 0.207324 0.000000
vt 0.603688 0.000000
vt 0.829331 0.464732
vt 0.463068 0.779024
vt 0.711998 0.464732
vt 0.109799 0.055555
vt 0.411393 0.333670
vt 0.233969 0.740023
vt 0.794622 0.033733
vt 0.265670 0.903814
s 1
usemtl sboulderdes_tex
f 9/24/1 14/38/2 1/1/3
f 11/30/4 4/10/5 15/44/6
f 15/42/6 1/1/3 14/38/2
f 4/11/5 11/31/4 6/16/7
f 16/46/8 9/25/1 1/2/3
f 4/12/5 16/47/8 1/3/3
f 5/13/9 15/44/6 14/39/2
f 3/8/10 6/15/7 8/20/11
f 3/8/10 7/17/12 10/29/13
f 15/43/6 4/12/5 1/3/3
f 11/30/4 5/13/9 8/21/11
f 11/30/4 15/44/6 5/13/9
f 13/36/14 4/11/5 6/16/7
f 16/45/8 7/18/12 12/34/15
f 12/34/15 7/18/12 3/9/10
f 9/26/1 12/32/15 2/5/16
f 16/46/8 12/33/15 9/25/1
f 7/19/12 13/37/14 10/27/13
f 4/12/5 13/35/14 16/47/8
f 10/28/13 13/36/14 6/16/7
f 7/19/12 16/48/8 13/37/14
f 2/4/16 3/7/10 14/40/2
f 3/7/10 5/14/9 14/40/2
f 9/26/1 2/5/16 14/41/2
f 3/7/10 8/22/11 5/14/9
f 3/8/10 10/29/13 6/15/7
f 8/23/11 6/16/7 11/31/4
f 2/6/16 12/34/15 3/9/10
