# Blender 3.4.1
# www.blender.org
mtllib sboulderswa_1.mtl
o sboulderreg_1
v 0.055198 0.543568 -0.100823
v -0.272399 0.299878 -0.178601
v 0.084729 -0.226969 -0.354962
v -0.020224 -0.260711 0.459282
v 0.497379 -0.292313 -0.077919
v -0.173427 0.436704 0.023647
v -0.083694 0.434247 0.275936
v -0.319811 -0.199852 0.369888
v 0.539069 -0.135245 0.118842
v -0.122840 -0.066403 0.563685
v 0.299463 0.271471 0.102697
v -0.132574 0.209819 -0.349977
v -0.028619 0.184199 0.493804
v 0.273944 0.155855 0.379229
v -0.455322 -0.212049 -0.013757
v -0.346844 -0.271533 0.080655
v 0.520089 -0.018990 -0.117910
v -0.187499 -0.113897 -0.404007
v 0.133082 -0.090121 -0.451238
v -0.472364 0.094319 0.202630
v -0.447169 0.043732 -0.136806
v 0.196274 0.206944 -0.316612
v 0.083913 -0.361898 0.108108
vn -0.2882 0.4391 -0.8510
vn -0.6798 0.6056 -0.4136
vn 0.1755 0.9519 -0.2512
vn -0.5936 0.8047 -0.0007
vn -0.9030 0.2872 0.3195
vn -0.1427 0.8393 0.5246
vn -0.8880 0.1835 -0.4216
vn -0.0350 0.4592 0.8876
vn 0.0226 -0.8057 -0.5919
vn 0.6747 -0.7136 -0.1885
vn 0.0644 -0.9949 0.0782
vn 0.2555 -0.1363 -0.9572
vn 0.8992 0.2458 -0.3619
vn -0.7860 -0.5927 -0.1755
vn -0.3709 -0.9286 -0.0152
vn -0.6341 -0.5424 0.5511
vn 0.1356 -0.7144 0.6865
vn -0.1723 -0.0733 0.9823
vn 0.8871 -0.1892 0.4210
vn -0.4392 -0.3415 -0.8309
vn 0.6273 0.3422 0.6996
vn 0.7154 0.6691 0.2015
vn 0.4407 0.4804 -0.7583
vt 0.297664 0.687833
vt 0.154875 0.692221
vt 0.624583 0.153031
vt 0.746429 0.661216
vt 0.955030 0.993937
vt 0.826931 0.001246
vt 0.378283 0.305216
vt 0.234285 0.622019
vt 0.306976 0.551395
vt 0.841208 0.478804
vt 0.789857 0.540962
vt 0.146698 0.239086
vt 0.821598 1.003248
vt 0.504681 0.280265
vt 0.732270 0.780499
vt 0.070376 0.381291
vt 0.354310 0.256776
vt 0.653381 0.621885
vt 0.463379 0.670083
vt 0.168219 0.802144
vt 0.367208 0.420714
vt 0.547533 0.503685
vt 0.644327 0.873698
vt 0.665635 0.478804
vt 0.146698 0.041117
vt 0.955030 0.576631
vt 0.744246 0.430674
vt 0.450891 0.191174
vt 0.588177 0.898837
vt 0.025262 0.940553
vt 0.525294 0.273321
vt 0.213670 0.062684
vt 0.554598 0.105681
vt 0.245205 1.044014
vt 0.063007 0.436200
vt -0.000809 0.114148
vt -0.022916 0.655534
vt 0.543738 0.440883
vt 0.008045 -0.009652
vt 0.322347 0.846782
vt 0.921852 0.755207
vt 0.851076 0.241322
s 1
usemtl sboulderswa_tex
f 12/20/1 2/2/2 1/1/3
f 6/8/4 20/35/5 7/9/6
f 21/37/7 20/35/5 6/8/4
f 6/8/4 7/9/6 1/1/3
f 13/21/8 7/9/6 20/35/5
f 3/3/9 5/6/10 23/42/11
f 5/7/10 19/32/12 17/28/13
f 23/42/11 15/24/14 3/3/9
f 15/24/14 16/27/15 8/10/16
f 8/11/16 16/26/15 4/4/17
f 8/11/16 4/4/17 10/18/18
f 23/41/11 4/4/17 16/26/15
f 9/13/19 4/4/17 23/41/11
f 12/20/1 19/34/12 18/30/20
f 20/36/5 15/25/14 8/12/16
f 8/12/16 10/16/18 20/36/5
f 20/35/5 10/17/18 13/21/8
f 10/17/18 14/22/21 13/21/8
f 9/15/19 11/19/22 14/22/21
f 22/40/23 1/1/3 17/29/13
f 11/19/22 17/29/13 1/1/3
f 22/40/23 17/29/13 19/34/12
f 1/1/3 22/40/23 12/20/1
f 21/37/7 12/20/1 18/30/20
f 2/2/2 6/8/4 1/1/3
f 21/37/7 2/2/2 12/20/1
f 21/37/7 6/8/4 2/2/2
f 13/21/8 14/22/21 7/9/6
f 23/41/11 5/5/10 9/13/19
f 5/6/10 3/3/9 19/33/12
f 19/33/12 3/3/9 18/31/20
f 18/31/20 3/3/9 15/24/14
f 15/24/14 23/42/11 16/27/15
f 18/31/20 15/24/14 21/38/7
f 4/4/17 9/13/19 14/23/21
f 11/19/22 1/1/3 7/9/6 14/22/21
f 5/7/10 17/28/13 9/14/19
f 11/19/22 9/15/19 17/29/13
f 22/40/23 19/34/12 12/20/1
f 20/36/5 21/39/7 15/25/14
f 14/23/21 10/18/18 4/4/17
