# Blender 3.4.1
# www.blender.org
mtllib birchnak_1.mtl
o birchnak_1
v 0.000000 -0.012178 -0.158924
v -0.000000 2.013849 -0.244659
v 0.151146 -0.012178 -0.049110
v 0.106679 2.013849 -0.167152
v 0.093413 -0.012178 0.128572
v 0.065931 2.013849 -0.041744
v -0.093413 -0.012178 0.128572
v -0.065931 2.013849 -0.041744
v -0.151146 -0.012178 -0.049110
v -0.106679 2.013849 -0.167152
v 0.030987 3.394390 0.827720
v -0.035103 3.393934 0.865281
v 0.045592 2.703690 0.419414
v -0.045591 2.703690 0.419414
v -0.073769 2.703690 0.332694
v 0.073769 2.703690 0.332694
v 0.000000 2.703690 0.279097
v -0.491211 3.280870 0.454776
v -0.481224 3.281592 0.403523
v -0.345790 2.961441 -0.716995
v -0.407013 2.961441 -0.761477
v -0.369175 2.961441 -0.645022
v -0.444852 2.961441 -0.645022
v -0.468237 2.961441 -0.716995
v -0.383317 3.577094 -0.719387
v -0.427840 3.577584 -0.680321
v -0.255391 2.487645 -0.343383
v -0.151622 2.487645 -0.343383
v -0.287458 2.487645 -0.442074
v -0.119555 2.487645 -0.442074
v -0.203507 2.487645 -0.503068
v 0.084543 3.150868 -1.042163
v 0.141835 3.150446 -1.035049
v 0.578773 2.970095 -0.155454
v 0.508098 2.970095 -0.206802
v 0.551777 2.970095 -0.072371
v 0.464419 2.970095 -0.072371
v 0.437424 2.970095 -0.155454
v 0.714960 3.736132 -0.444386
v 0.743600 3.736581 -0.379626
v 0.585855 3.352918 -0.224778
v 0.565060 3.352918 -0.288780
v 0.673947 3.352918 -0.288780
v 0.653151 3.352918 -0.224778
v 0.619503 3.352918 -0.328336
v 0.595780 3.697593 -0.057006
v 0.646481 3.697081 -0.028220
vn -0.4841 -0.4188 0.7682
vn -0.8789 0.0948 0.4675
vn -0.9297 -0.0607 -0.3633
vn 0.0645 0.5451 -0.8359
vn -0.2954 0.3425 0.8919
vn 0.8921 0.3785 -0.2469
vn -0.6820 0.0834 0.7265
vn 0.5001 0.3988 0.7687
vn 0.4844 0.6094 -0.6277
vn 0.9214 0.0896 -0.3781
vn -0.0641 -0.2085 -0.9759
vn 0.6327 0.3643 -0.6834
vn -0.9180 -0.2018 -0.3413
vn -0.9606 -0.2043 -0.1886
vn -0.5673 0.4048 0.7172
vn 0.9689 0.2457 0.0297
vn -0.0463 -0.5090 -0.8595
vn 0.9469 -0.0772 -0.3123
vn -0.0882 0.7450 -0.6612
vn 0.6175 -0.0323 0.7859
vn -0.6393 0.1971 0.7433
vn 0.5301 0.6300 0.5675
vn -0.8962 0.2696 -0.3525
vn 0.0296 -0.0197 -0.9994
vn 0.5930 -0.0297 0.8047
vn 0.4749 -0.5670 0.6730
vn 0.7706 -0.5940 -0.2308
vn 0.9416 0.0437 -0.3339
vn -0.4749 -0.5670 0.6730
vn -0.6183 0.0679 0.7830
vn -0.7706 -0.5940 -0.2308
vn -0.9534 0.0647 -0.2948
vn -0.0000 -0.6115 -0.7912
vn 0.0080 0.0209 -0.9997
vn 0.6810 -0.1561 0.7155
vn -0.7938 0.3189 0.5179
vn -0.2111 0.1489 0.9660
vn 0.4207 0.6205 0.6618
vn 0.9654 -0.0152 -0.2604
vn 0.9871 0.0980 0.1263
vn -0.8843 0.3825 -0.2677
vn -0.4738 0.3488 0.8086
vn -0.3306 0.3090 -0.8918
vn 0.5788 -0.0415 0.8144
vn 0.9090 -0.3564 -0.2161
vn 0.0236 -0.1731 -0.9846
vn 0.8203 0.2209 0.5276
vt 0.021948 0.767599
vt 0.824465 0.728601
vt 0.833801 0.966738
vt 0.950123 0.337059
vt 0.760157 0.353483
vt 0.279454 0.005343
vt 0.057461 0.779138
vt 0.855661 0.731787
vt 0.856094 0.952682
vt 0.971455 0.334635
vt 0.714010 0.659046
vt 0.242163 0.400901
vt 0.782175 0.355730
vt 0.242497 0.000000
vt 0.506832 0.006433
vt 0.057461 0.816478
vt 0.737657 0.653599
vt 0.859870 0.000824
vt 0.216079 0.397130
vt 0.431637 0.404518
vt 0.470049 0.000000
vt 0.740145 0.005869
vt 0.021948 0.828017
vt 0.614180 0.653599
vt 0.886212 0.000000
vt 0.621797 0.357907
vt 0.405676 0.399977
vt 0.703858 0.000000
vt 0.796112 0.741997
vt 0.000000 0.797808
vt 0.813543 0.949880
vt 0.928812 0.334450
vt 0.632352 0.665039
vt 0.596185 0.353765
vt 0.740145 0.362936
vt 0.381915 0.641640
vt 0.005083 0.649634
vt 0.851794 0.751926
vt 0.736729 0.653047
vt 0.371971 0.639902
vt 0.842236 0.745260
vt 0.108039 0.523015
vt 0.406775 0.523079
vt 0.680971 0.505753
vt 0.388824 0.519939
vt 0.876340 0.874768
vt 0.826669 0.850625
vt 0.663260 0.502889
vt 0.856094 0.852562
vt 0.126077 0.525622
vt 0.889685 0.882262
vt 0.840678 0.862283
vt 0.643450 0.642412
vt 0.056495 0.614590
vt 0.281674 0.615618
vt 0.746192 0.829372
vt 0.887218 0.743483
vt 0.636662 0.641314
vt 0.063407 0.615590
vt 0.880134 0.538970
vt 0.683928 0.894021
vt 0.597850 0.857637
vt 0.867891 0.540361
vt 0.953702 0.219138
vt 0.697499 0.890895
vt 0.968820 0.218665
vt 0.578834 0.842233
vt 0.589263 0.848799
vt 0.855661 0.538864
vt 0.871550 0.660217
vt 0.516769 0.948447
vt 0.730565 1.000000
vt 0.966083 0.334288
vt 0.509098 0.941824
vt 0.737657 0.998366
vt 0.596506 0.747916
vt 0.927516 0.109333
vt 0.906786 0.109981
vt 0.717578 0.772246
vt 0.892236 0.436657
vt 0.610807 0.756919
vt 0.925794 0.436803
vt 0.876339 0.741996
vt 0.698969 0.776534
vt 0.909007 0.438710
vt 0.856094 0.746497
vt 0.630377 0.948107
vt 0.968152 0.587635
vt 0.863352 0.284850
vt 0.868828 0.875611
vt 0.855661 0.285090
vt 0.876339 0.873941
vt 0.634582 0.909345
vt 0.845498 0.166676
vt 0.239715 0.606066
vt 0.830911 0.165186
vt 0.494631 0.607989
vt 0.222435 0.603568
vt 0.477432 0.604982
vt 0.596929 0.491274
vt 0.817653 0.171450
vt 0.579961 0.488530
vt 0.506832 0.593547
vt 0.845327 0.001156
vt 0.274755 0.766920
vt 0.502787 0.772749
vt 0.516006 0.595030
vt 0.855661 0.000805
vt 0.556468 0.543152
vt 0.487483 0.688406
vt 0.057461 0.821012
vt 0.829129 0.087418
vt 0.543396 0.541038
vt 0.850579 0.083740
vt 0.079120 0.823132
vt 0.259584 0.686833
vt 0.500731 0.690723
vt 0.246273 0.684908
vt 0.839342 0.082594
vt 0.067521 0.829940
vt 0.578194 0.614720
vt 0.069949 0.774800
vt 0.479766 0.749016
vt 0.078016 0.770925
vt 0.487419 0.750354
vt 0.198952 0.748218
s 1
usemtl birchbark_tex
f 14/44/1 12/39/2 15/48/3
f 17/52/4 19/56/5 16/49/6
f 15/46/3 19/57/5 17/51/4
f 23/66/7 22/64/8 26/73/9
f 20/60/10 21/63/11 25/70/12
f 24/68/13 23/67/7 26/74/9
f 29/81/14 27/76/15 32/87/16
f 31/85/17 29/80/14 32/88/16
f 43/116/18 40/105/19 44/118/20
f 44/117/20 40/106/19 41/110/21
f 41/109/21 46/121/22 42/113/23
f 42/111/23 46/122/22 45/120/24
f 6/19/25 5/14/26 3/6/27 4/12/28
f 7/21/29 5/15/26 6/20/25 8/27/30
f 9/28/31 7/22/29 8/26/30 10/34/32
f 1/2/33 9/29/31 10/35/32 2/5/34
f 7/23/29 9/30/31 1/1/33 3/7/27 5/16/26
f 12/40/2 14/45/1 13/43/35 11/36/36
f 11/38/36 17/52/4 15/47/3 12/41/2
f 13/42/35 16/50/6 11/37/36
f 17/52/4 16/49/6 4/9/28 2/3/34
f 16/49/6 17/52/4 11/38/36
f 17/52/4 2/3/34 10/31/32 15/47/3
f 16/50/6 13/42/35 6/19/25 4/12/28
f 15/48/3 10/34/32 8/26/30 14/44/1
f 14/45/1 8/27/30 6/20/25 13/43/35
f 18/53/37 19/58/5 15/48/3 14/44/1
f 19/59/5 18/54/37 13/42/35 16/50/6
f 14/45/1 13/43/35 18/55/37
f 22/64/8 23/66/7 27/77/15 28/78/38
f 26/74/9 25/71/12 21/62/11 24/68/13
f 23/67/7 24/68/13 29/81/14 27/76/15
f 22/65/8 28/79/38 30/84/39 20/61/10
f 24/69/13 21/63/11 31/85/17 29/80/14
f 20/60/10 30/82/39 31/85/17 21/63/11
f 25/72/12 26/75/9 22/65/8 20/61/10
f 30/82/39 4/10/28 2/4/34 31/85/17
f 29/80/14 31/85/17 2/4/34 10/32/32
f 28/79/38 6/17/25 4/11/28 30/84/39
f 27/76/15 29/81/14 10/33/32 8/24/30
f 28/78/38 27/77/15 8/25/30 6/18/25
f 32/89/16 27/77/15 28/78/38 33/91/40
f 33/92/40 30/83/39 31/86/17 32/90/16
f 30/84/39 33/93/40 28/79/38
f 38/102/41 10/34/32 8/26/30 37/100/42
f 40/107/19 39/103/43 42/113/23 41/109/21
f 36/98/44 6/19/25 4/12/28 34/95/45
f 38/101/41 35/96/46 2/5/34 10/35/32
f 35/96/46 34/94/45 4/13/28 2/5/34
f 37/99/42 8/27/30 6/20/25 36/97/44
f 39/104/43 40/108/19 43/114/18 45/119/24
f 45/119/24 42/112/23 39/104/43
f 4/13/28 3/8/27 1/2/33 2/5/34
f 45/119/24 43/114/18 34/94/45 35/96/46
f 41/110/21 37/99/42 36/97/44 44/117/20
f 42/112/23 45/119/24 35/96/46 38/101/41
f 44/118/20 36/98/44 34/95/45 43/116/18
f 41/109/21 42/113/23 38/102/41 37/100/42
f 46/122/22 47/124/47 43/115/18 45/120/24
f 47/125/47 46/123/22 41/110/21 44/117/20
f 44/118/20 43/116/18 47/126/47
