# Blender 3.4.1
# www.blender.org
mtllib fallentree_1.mtl
o fallentree_1
v 0.265941 0.518487 -0.498235
v 0.312427 0.003348 -0.443076
v -0.164129 -0.183044 -0.349679
v -0.493353 0.213388 -0.351602
v -0.226946 0.639167 -0.442802
v -0.353884 0.018750 2.045742
v -0.379892 0.337055 2.010461
v -0.647289 -0.099123 2.102826
v -0.854631 0.146332 2.102826
v -0.689371 0.415905 2.045742
v -0.419131 0.080257 5.158940
v -0.445140 0.398563 5.123660
v -0.712536 -0.037616 5.216024
v -0.919879 0.207840 5.216024
v -0.754619 0.477413 5.158940
v -1.710606 0.301797 7.031363
v -1.845085 0.395206 7.245656
v -1.917880 0.293910 7.271195
v -0.262263 1.459569 3.914455
v -0.282660 1.709198 3.886787
v -0.492365 1.367127 3.959224
v -0.654972 1.559625 3.959224
v -0.525368 1.771036 3.914455
v -0.338833 1.988255 5.314415
v -0.502898 1.902304 5.345092
v 1.236386 -0.003803 4.071901
v 1.210378 0.314502 4.036621
v 0.942981 -0.121676 4.128986
v 0.735638 0.123779 4.128986
v 0.900899 0.393352 4.071901
v 0.715424 -0.438418 7.317363
v 0.827185 -0.292051 7.284637
v 1.442285 2.260825 6.028014
v 1.533358 2.123036 6.028769
v -1.186276 2.007847 6.225695
v -1.188667 1.895773 6.241534
v -1.430126 0.020375 0.789291
v -0.458108 -0.843659 0.572525
v 0.713695 -0.422602 0.138993
v 0.913480 0.862489 0.177681
v -0.058538 1.726524 0.138993
v -1.230341 1.305467 0.293841
v 0.217329 -0.118090 -2.134552
v -0.258323 0.441432 0.355759
vn -0.9983 -0.0472 -0.0335
vn -0.1328 -0.8957 0.4243
vn -0.7215 -0.3665 0.5875
vn -0.0747 -0.9736 0.2158
vn -0.6904 -0.7111 0.1330
vn -0.9108 -0.0624 0.4081
vn -0.3484 0.9321 -0.0988
vn 0.5877 -0.3273 0.7399
vn 0.7602 0.5458 -0.3524
vn -0.3189 0.9100 -0.2650
vn 0.0553 0.9874 0.1485
vn 0.7662 0.6303 -0.1254
vn -0.7611 -0.1907 0.6200
vn 0.1253 -0.2035 -0.9710
vn -0.1165 -0.8236 0.5550
vn 0.7353 -0.5487 0.3978
vn 0.8380 0.3571 0.4127
vn 0.1386 0.9557 0.2597
vn 0.2006 0.1351 0.9703
vn -0.7120 0.6452 0.2770
vn -0.8033 -0.0867 -0.5892
vn -0.2924 0.7392 -0.6067
vn 0.6317 0.4994 -0.5929
vn 0.7194 -0.4502 -0.5289
vn -0.1771 -0.8321 -0.5256
vn 0.7866 0.5702 0.2367
vn 0.7468 0.6483 -0.1480
vn -0.4491 0.8889 -0.0900
vn -0.2154 0.9758 0.0373
vn -0.9789 -0.1004 0.1780
vn -0.2682 -0.9385 0.2176
vn 0.8113 -0.5846 -0.0097
vn -0.3223 0.8133 0.4844
vn -0.9591 -0.1081 -0.2617
vn -0.6839 -0.4405 0.5815
vn -0.1192 -0.9872 0.1060
vn 0.8446 -0.4550 0.2823
vn 0.7856 -0.0866 0.6126
vn 0.8799 -0.3914 0.2693
vn -0.4095 -0.1759 0.8952
vn -0.7021 -0.6531 0.2839
vn 0.8793 -0.4761 -0.0137
vn 0.6452 -0.4245 0.6352
vn 0.0611 0.9544 0.2921
vt 0.858063 -0.164497
vt -0.015908 -0.164497
vt 0.523047 -0.164497
vt 0.928433 -0.161882
vt 0.241253 0.757212
vt 0.450196 -0.157587
vt 0.965073 -0.129561
vt 0.302587 0.763462
vt 0.917574 -0.113335
vt 0.852505 -0.134912
vt 0.055062 -0.155186
vt 1.014827 -0.164497
vt 0.458656 0.204307
vt 0.325632 0.460218
vt 1.145006 -0.164497
vt 0.978233 -0.140826
vt 0.052971 0.187020
vt 0.503640 0.199756
vt 0.959620 0.219969
vt 1.062479 -0.164497
vt 1.045053 -0.161649
vt 0.363321 0.464337
vt 1.100629 -0.158004
vt 1.045714 0.838602
vt 0.397942 0.448881
vt 0.930288 0.230328
vt 1.100629 -0.155723
vt 1.006701 0.834194
vt 0.097669 0.192960
vt 0.889168 0.216903
vt 0.325632 0.078638
vt 0.466135 0.622479
vt 0.052971 0.625056
vt 0.511118 0.617927
vt 0.363321 0.082757
vt 0.453012 0.643600
vt 0.946371 0.639479
vt 0.397942 0.067302
vt 0.917039 0.649838
vt 0.097669 0.630996
vt 0.875919 0.636414
vt 0.525797 0.636236
vt 0.512715 0.926305
vt 0.908208 0.962677
vt 0.525797 0.963762
vt 0.923896 0.968735
vt 0.512425 0.970749
vt 1.045053 0.103029
vt 0.993771 0.161465
vt 1.137769 0.720472
vt 1.166198 0.362226
vt 1.167756 1.075445
vt 1.145006 0.161463
vt 0.965073 0.180029
vt 1.102481 0.717002
vt 1.017476 0.163698
vt 1.070710 0.111540
vt 1.137769 0.370936
vt 0.275759 1.105242
vt 1.100629 0.116632
vt 0.995668 0.538029
vt 0.298179 1.095624
vt 1.136605 1.058709
vt 0.965073 0.534572
vt 1.110204 0.168344
vt 0.331049 1.104011
vt 1.051853 0.306358
vt 1.031046 0.367219
vt 1.143023 0.354183
vt 1.045053 0.362226
vt 1.069300 0.311982
vt 1.045714 0.362226
vt 0.097669 0.201242
vt 0.435550 0.403595
vt 1.072911 0.369111
vt 0.375591 0.763462
vt -0.167756 0.470017
vt 0.480534 0.399043
vt 1.045713 0.403166
vt 0.922212 0.421339
vt 0.135358 0.205361
vt 1.045714 0.786129
vt 1.102480 0.362226
vt 1.136605 1.081767
vt 0.169979 0.189905
vt 0.892881 0.431698
vt 1.084382 0.787668
vt 1.102481 1.062353
vt 0.331049 0.771355
vt 0.851761 0.418273
vt -0.123058 0.475957
vt 0.965073 0.855989
vt 0.148585 -0.157081
vt 0.942244 0.847506
vt 0.136689 -0.164497
vt -0.155620 0.921443
vt 0.397942 0.851548
vt 1.136605 0.720472
vt 0.375591 1.145075
vt 1.084382 1.072622
vt 1.096155 0.786129
vt 1.066054 1.071817
vt 1.102480 0.769644
vt 1.167756 0.720472
vt 1.121865 0.362226
vt 0.331049 0.764063
vt 1.137769 0.362805
vt 1.166198 0.693952
vt 0.315387 0.763462
vt 0.542199 0.043659
vt 0.641099 0.311478
vt 0.519316 0.133747
vt 0.638377 0.759338
vt 0.761263 0.379932
vt 0.748731 0.785596
vt 0.198744 0.904247
vt 0.761263 0.518234
vt 0.332093 0.904247
vt 0.519316 0.804946
vt 0.642584 0.581794
vt 0.638378 0.846615
vt 0.763390 0.001924
vt 0.520936 0.519630
vt 0.681081 0.000000
vt 0.519316 0.388189
vt 0.748731 0.581794
vt 0.245419 0.694835
vt 0.638378 0.581794
vt 0.763390 0.311478
vt 0.641099 0.449781
s 1
usemtl dirt_tex
f 37/110/13 43/129/14 38/112/15
f 38/113/15 43/126/14 39/115/16
f 39/116/16 43/127/14 40/118/17
f 40/119/17 43/128/14 41/121/18
f 37/111/13 44/130/19 42/125/20
f 41/122/18 43/129/14 42/124/20
f 42/124/20 43/129/14 37/110/13
f 41/123/18 44/130/19 40/120/17
f 44/130/19 37/111/13 38/114/15
f 40/120/17 44/130/19 39/117/16
f 42/125/20 44/130/19 41/123/18
f 39/117/16 44/130/19 38/114/15
usemtl poplarbark_tex
f 22/60/1 21/57/2 25/71/3
f 28/80/4 31/92/5 29/86/6
f 30/88/7 29/84/6 33/98/8
f 27/76/9 30/89/7 33/99/8
f 23/63/10 35/104/11 20/52/12
f 4/9/21 5/10/22 1/1/23 2/4/24 3/7/25
f 12/33/26 7/17/27 10/29/28 15/40/29
f 9/26/30 4/9/21 3/7/25 8/19/31
f 10/30/28 5/10/22 4/9/21 9/26/30
f 8/22/31 3/8/25 2/5/24 6/14/32
f 10/29/28 7/17/27 1/2/23 5/11/22
f 17/44/33 15/41/29 14/39/34 18/46/35
f 14/38/34 9/25/30 8/22/31 13/35/36
f 12/34/26 11/32/37 6/13/32 7/18/27
f 15/41/29 10/30/28 9/26/30 14/39/34
f 11/31/37 13/35/36 8/22/31 6/14/32
f 16/43/38 18/47/35 13/36/36 11/32/37
f 16/43/38 12/34/26 15/42/29 17/45/33
f 20/53/12 7/15/27 10/27/28 23/65/10
f 14/39/34 13/37/36 18/46/35
f 11/32/37 12/34/26 16/43/38
f 16/43/38 17/45/33 18/47/35
f 21/57/2 22/60/1 9/23/30 8/20/31
f 19/49/39 6/12/32 7/16/27 20/54/12
f 22/61/1 23/64/10 10/28/28 9/24/30
f 21/56/2 8/21/31 6/12/32 19/49/39
f 24/67/40 25/71/3 21/57/2 19/48/39
f 25/72/3 24/68/40 23/64/10 22/61/1
f 7/18/27 6/13/32 2/6/24 1/3/23
f 23/65/10 24/69/40 20/53/12
f 20/54/12 24/70/40 19/49/39
f 30/91/7 27/77/9 7/17/27 10/29/28
f 32/94/41 30/90/7 29/86/6 31/92/5
f 29/85/6 9/25/30 8/22/31 28/81/4
f 27/78/9 26/74/42 6/13/32 7/18/27
f 30/90/7 10/30/28 9/26/30 29/86/6
f 28/81/4 8/22/31 6/14/32 26/73/42
f 31/93/5 28/81/4 26/73/42 32/95/41
f 33/100/8 29/87/6 28/82/4 34/102/43
f 27/77/9 30/91/7 32/96/41
f 26/74/42 27/78/9 32/97/41
f 26/75/42 34/103/43 28/83/4
f 34/103/43 26/75/42 27/79/9 33/101/8
f 36/107/44 19/50/39 20/55/12 35/105/11
f 21/58/2 19/51/39 36/108/44
f 22/62/1 21/59/2 36/109/44
f 35/106/11 23/66/10 22/62/1 36/109/44
