# Blender 3.4.1
# www.blender.org
mtllib palm_1.mtl
o palm_1
v 0.000000 -0.034932 -0.308127
v -0.000000 4.258042 0.324157
v 0.263185 -0.038013 -0.116937
v 0.162830 4.243613 0.441577
v 0.162657 -0.042999 0.192416
v 0.100634 4.220266 0.631566
v -0.162657 -0.042999 0.192416
v -0.100634 4.220266 0.631566
v -0.263185 -0.038013 -0.116937
v -0.162830 4.243613 0.441577
v 0.000000 2.082982 0.456802
v 0.213007 2.064106 0.610406
v 0.131646 2.033565 0.858942
v -0.131646 2.033565 0.858942
v -0.213007 2.064106 0.610406
v 0.229665 4.333259 0.430713
v 0.000000 4.353610 0.265098
v 0.141941 4.300329 0.698685
v -0.141941 4.300329 0.698685
v -0.229665 4.333259 0.430713
v 0.229665 4.739708 0.480660
v -0.000000 4.760060 0.315044
v 0.141941 4.706779 0.748632
v -0.141941 4.706779 0.748632
v -0.229665 4.739708 0.480660
v 0.107679 4.857815 0.535107
v -0.000000 4.867357 0.457458
v 0.066549 4.842376 0.660746
v -0.066549 4.842376 0.660746
v -0.107679 4.857815 0.535107
v 1.156568 3.485158 1.743655
v 2.216170 3.993983 0.523034
v -0.319421 4.766926 0.606907
v 1.164301 3.758884 -0.787465
v 0.925980 5.050706 0.646310
v 1.701653 3.663661 0.291050
v 1.248353 4.211508 -1.247118
v -0.191828 4.728570 0.919037
v -0.395392 3.802919 -1.145808
v 0.514785 5.137981 -0.063912
v 0.668971 3.830750 -1.068668
v -0.937690 4.233540 -1.426405
v 0.149528 4.725747 0.942010
v -1.629333 3.660499 0.013165
v -0.385307 5.147254 -0.139374
v -1.186552 3.791349 -0.748033
v -2.179320 3.983071 0.611832
v 0.353489 4.769216 0.588273
v -1.063482 3.444474 1.771110
v -0.890498 5.046287 0.682266
v -1.643873 3.601068 0.800412
v -1.059203 3.765495 2.382405
v 0.201839 4.805396 0.293846
v 0.566264 3.410254 2.049587
v -0.416745 4.957887 1.401640
v -0.360678 3.448814 2.039414
v 1.294674 3.794086 2.149742
v -0.237644 4.812086 0.239408
v 1.665509 3.600013 0.505381
v 0.515711 4.975457 1.258659
vn -0.0000 0.1452 -0.9894
vn -0.0000 -0.3439 -0.9390
vn 0.8603 -0.3612 -0.3598
vn 0.9712 0.0527 -0.2325
vn 0.5820 -0.3803 0.7188
vn 0.5529 -0.0797 0.8294
vn -0.5820 -0.3803 0.7188
vn -0.5529 -0.0797 0.8294
vn -0.8603 -0.3612 -0.3598
vn -0.5611 -0.3900 0.7301
vn -0.9078 -0.2599 -0.3291
vn -0.9712 0.0527 -0.2325
vn -0.0000 -0.4586 -0.8887
vn 0.7729 -0.5306 -0.3479
vn 0.4794 -0.6847 0.5490
vn -0.4794 -0.6847 0.5490
vn -0.7729 -0.5306 -0.3479
vn -0.0000 -0.1794 -0.9838
vn -0.8923 0.3789 -0.2455
vn -0.0000 0.4580 -0.8890
vn 0.9078 -0.2599 -0.3291
vn 0.5611 -0.3900 0.7301
vn -0.5514 0.2510 0.7956
vn -0.2864 0.8187 0.4977
vn -0.4633 0.8851 -0.0429
vn 0.5514 0.2510 0.7956
vn 0.8923 0.3789 -0.2455
vn 0.4633 0.8851 -0.0429
vn -0.0000 0.9262 -0.3770
vn 0.2864 0.8187 0.4977
vn 0.2685 0.5791 0.7698
vn 0.6362 0.7670 0.0832
vn 0.1674 0.9794 0.1131
vn -0.2241 0.9689 0.1051
vn 0.2700 0.7372 -0.6194
vn 0.7239 0.6430 0.2500
vn 0.3500 0.8305 -0.4333
vn 0.0885 0.9959 -0.0210
vn -0.1379 0.9456 0.2947
vn -0.4293 0.7270 -0.5359
vn 0.5089 0.7298 -0.4565
vn -0.2852 0.8351 -0.4705
vn -0.0789 0.9965 -0.0265
vn 0.0845 0.9418 0.3253
vn -0.7521 0.6438 0.1411
vn -0.3038 0.7465 -0.5921
vn -0.6348 0.7604 0.1374
vn -0.1668 0.9766 0.1359
vn 0.2245 0.9669 0.1211
vn -0.2334 0.5638 0.7923
vn -0.7356 0.6769 -0.0263
vn -0.3044 0.6976 0.6486
vn -0.0764 0.9603 0.2683
vn 0.1226 0.9901 -0.0678
vn 0.4796 0.5802 0.6583
vn -0.3874 0.5863 0.7115
vn 0.3954 0.7049 0.5889
vn 0.1075 0.9628 0.2478
vn -0.1252 0.9899 -0.0661
vn 0.7237 0.6774 -0.1322
vt 0.586834 0.235904
vt 0.503892 0.848618
vt 0.419556 0.151382
vt 0.419556 0.848163
vt 0.503892 0.151837
vt 0.523606 0.594297
vt 0.312232 0.463932
vt 0.556129 0.193643
vt 0.224382 0.151382
vt 0.367470 0.155366
vt 0.387240 0.848618
vt 0.224383 0.844917
vt 0.456349 0.594297
vt 0.275223 0.463932
vt 0.586834 0.151382
vt 0.556129 0.151382
vt 0.172491 0.157387
vt 0.192067 0.845377
vt 0.546170 0.839579
vt 0.419340 0.594297
vt 0.456349 0.451605
vt 0.636514 0.167524
vt 0.283329 0.839373
vt 0.503892 0.151382
vt 0.513851 0.839579
vt 0.560615 0.451605
vt 0.302904 0.151382
vt 0.419340 0.451605
vt 0.636514 0.219762
vt 0.451806 0.844634
vt 0.335220 0.845378
vt 0.523606 0.451605
vt 0.335220 0.151843
vt 0.471577 0.151382
vt 0.560615 0.594297
vt 0.461829 0.494359
vt 0.377493 0.505641
vt 0.155819 0.501298
vt 0.335220 0.506236
vt 0.551149 0.494099
vt 0.113546 0.501900
vt 0.224383 0.494859
vt 0.508871 0.494099
vt 0.419556 0.493764
vt 0.266656 0.495462
vt 0.267627 0.482353
vt 0.463944 0.612718
vt 0.516010 0.612718
vt 0.319827 0.482353
vt 0.463944 0.470026
vt 0.411744 0.612718
vt 0.411744 0.470026
vt 0.568210 0.470026
vt 0.568210 0.612718
vt 0.516010 0.470026
vt 0.267627 0.554558
vt 0.463944 0.684923
vt 0.442427 0.399539
vt 0.516010 0.684923
vt 0.319827 0.554558
vt 0.411744 0.357308
vt 0.463944 0.542231
vt 0.411744 0.684923
vt 0.492072 0.383408
vt 0.411744 0.542231
vt 0.568210 0.542231
vt 0.492072 0.331208
vt 0.568210 0.684923
vt 0.516010 0.542231
vt 0.442427 0.315078
vt 0.449715 0.377108
vt 0.435330 0.357308
vt 0.472991 0.369545
vt 0.472991 0.345071
vt 0.449715 0.337508
vt -0.068189 0.477853
vt 0.495078 -0.085415
vt 0.495078 1.041120
vt 1.058346 0.477853
vt 0.495078 0.609604
vt -0.068189 0.477853
vt 0.495078 -0.085415
vt 0.495078 1.041120
vt 1.058346 0.477853
vt 0.495078 0.609604
vt -0.068189 0.477853
vt 0.495078 -0.085415
vt 0.495078 1.041120
vt 1.058346 0.477853
vt 0.495078 0.609604
vt -0.068189 0.477853
vt 0.495078 -0.085415
vt 0.495078 1.041120
vt 1.058346 0.477853
vt 0.495078 0.609604
vt -0.068189 0.477853
vt 0.495078 -0.085415
vt 0.495078 1.041120
vt 1.058346 0.477853
vt 0.495078 0.609604
vt -0.068189 0.477853
vt 0.495078 -0.085415
vt 0.495078 1.041120
vt 1.058346 0.477853
vt 0.495078 0.609604
s 1
usemtl palmbark_tex
f 11/37/1 2/4/2 4/11/3 12/39/4
f 12/38/4 4/12/3 6/18/5 13/41/6
f 13/40/6 6/19/5 8/25/7 14/43/8
f 14/42/8 8/27/7 10/33/9 15/45/12
f 15/44/12 10/34/9 2/5/2 11/36/1
f 1/1/13 3/8/14 5/15/15 7/22/16 9/29/17
f 9/30/17 15/44/12 11/36/1 1/2/13
f 7/23/16 14/42/8 15/45/12 9/31/17
f 5/16/15 13/40/6 14/43/8 7/24/16
f 3/9/14 12/38/4 13/41/6 5/17/15
f 1/3/13 11/37/1 12/39/4 3/10/14
usemtl poplarbark_tex
f 10/32/9 8/26/7 19/53/10 20/55/11
f 17/48/18 20/54/11 25/68/19 22/59/20
f 6/20/5 4/13/3 16/47/21 18/51/22
f 2/6/2 10/35/9 20/54/11 17/48/18
f 4/14/3 2/7/2 17/49/18 16/46/21
f 8/28/7 6/21/5 18/50/22 19/52/10
f 25/70/19 24/67/23 29/74/24 30/75/25
f 19/52/10 18/50/22 23/62/26 24/65/23
f 16/46/21 17/49/18 22/60/20 21/56/27
f 20/55/11 19/53/10 24/66/23 25/69/19
f 18/51/22 16/47/21 21/57/27 23/63/26
f 26/71/28 27/72/29 30/75/25 29/74/24 28/73/30
f 23/64/26 21/58/27 26/71/28 28/73/30
f 22/61/20 25/70/19 30/75/25 27/72/29
f 24/67/23 23/64/26 28/73/30 29/74/24
f 21/58/27 22/61/20 27/72/29 26/71/28
usemtl palmleaves_tex
f 31/76/31 32/77/32 35/80/33
f 33/78/34 35/80/33 34/79/35
f 34/79/35 35/80/33 32/77/32
f 35/80/33 33/78/34 31/76/31
f 36/81/36 37/82/37 40/85/38
f 38/83/39 40/85/38 39/84/40
f 39/84/40 40/85/38 37/82/37
f 40/85/38 38/83/39 36/81/36
f 41/86/41 42/87/42 45/90/43
f 43/88/44 45/90/43 44/89/45
f 44/89/45 45/90/43 42/87/42
f 45/90/43 43/88/44 41/86/41
f 46/91/46 47/92/47 50/95/48
f 48/93/49 50/95/48 49/94/50
f 49/94/50 50/95/48 47/92/47
f 50/95/48 48/93/49 46/91/46
f 51/96/51 52/97/52 55/100/53
f 53/98/54 55/100/53 54/99/55
f 54/99/55 55/100/53 52/97/52
f 55/100/53 53/98/54 51/96/51
f 56/101/56 57/102/57 60/105/58
f 58/103/59 60/105/58 59/104/60
f 59/104/60 60/105/58 57/102/57
f 60/105/58 58/103/59 56/101/56
