# Blender 3.4.1
# www.blender.org
mtllib poplarnak_0.mtl
o poplar_0
v 0.032839 -0.009240 -0.139301
v 0.257394 -0.010070 0.035210
v 0.176855 -0.009236 0.308467
v -0.108902 -0.010860 0.304141
v -0.206561 -0.009304 0.037294
v 0.314985 1.942783 -0.005108
v 0.140467 1.942783 -0.133044
v 0.228869 1.942783 0.220025
v 0.022107 1.942783 0.220025
v -0.051043 1.942783 -0.005108
v -0.051405 2.642184 -0.325018
v -0.260314 2.642184 -0.430691
v -0.106961 2.642184 -0.154036
v -0.350204 2.642184 -0.154036
v -0.405760 2.642184 -0.325018
v 0.742858 2.959595 0.128472
v 0.503920 2.959595 0.120125
v 0.684916 2.959595 0.318469
v 0.565225 2.959595 0.414083
v 0.410890 2.959595 0.248504
v 1.261417 3.801734 -0.632854
v 0.713731 4.063531 0.479454
v 0.592671 4.063531 0.455894
v 0.728733 4.063531 0.601869
v 0.616946 4.063531 0.653966
v 0.532855 4.063531 0.563748
v 0.351901 4.619075 0.550816
v 0.924119 4.477816 1.004699
v -0.061535 3.311257 -0.142233
v -0.207332 3.311257 -0.248160
v -0.117225 3.311257 0.029161
v -0.297439 3.311257 0.029161
v -0.353128 3.311257 -0.142233
v -0.078704 3.898179 -0.136655
v -0.207332 3.898179 -0.230108
v -0.127835 3.898179 0.014557
v -0.286828 3.898180 0.014557
v -0.335960 3.898179 -0.136655
v -0.529578 4.098292 0.477925
v -0.093251 4.523204 -0.376567
v -0.207331 4.523204 -0.459451
v -0.136825 4.523203 -0.242458
v -0.277836 4.523204 -0.242458
v -0.321411 4.523203 -0.376567
v -0.207330 4.958256 -0.726673
v 0.139114 4.768952 -0.154737
v -0.412592 4.369583 -0.924486
v 0.387916 2.711171 0.685247
v 0.146623 2.711171 0.555364
v 0.295750 2.711171 0.893351
v 0.180701 2.711171 0.871183
v 0.088536 2.711171 0.685247
v 0.594862 3.492132 1.376310
v 0.733915 2.959595 0.128472
v 0.743910 3.009199 0.293871
v 0.733915 2.959595 0.128473
vn -0.4579 0.1990 -0.8664
vn -0.8994 0.4368 0.0151
vn 0.5396 0.5633 -0.6258
vn 0.7471 -0.3935 -0.5357
vn -0.1980 0.1367 0.9706
vn -0.9871 0.1046 0.1212
vn -0.4488 0.8936 -0.0003
vn -0.3544 0.3849 -0.8522
vn 0.6823 0.4343 -0.5881
vn 0.8930 -0.1665 0.4181
vn 0.4204 0.6179 0.6644
vn 0.9228 0.2371 -0.3037
vn 0.0096 0.3205 -0.9472
vn -0.3111 0.7730 0.5529
vn 0.6407 -0.0462 0.7664
vn -0.5609 -0.2659 0.7840
vn 0.9165 -0.0484 -0.3971
vn -0.0000 0.7577 -0.6526
vn 0.5143 0.0497 0.8561
vn -0.5382 0.5721 0.6190
vn -0.0349 -0.1367 -0.9900
vn -0.9120 0.3247 -0.2504
vn 0.7367 0.5505 0.3928
vn -0.9912 -0.0110 -0.1316
vn -0.4955 0.4041 0.7689
vn -0.2096 0.4885 -0.8470
vn 0.0429 -0.4710 -0.8811
vn 0.5054 0.4196 0.7540
vn 0.3613 -0.6022 0.7119
vn 0.3343 0.7319 0.5938
vn -0.6180 -0.2844 0.7329
vn -0.9377 0.3474 0.0065
vn -0.4844 -0.5754 0.6590
vn -0.7881 -0.5673 -0.2389
vn -0.0024 -0.5880 -0.8089
vn 0.7526 -0.6169 -0.2302
vn 0.4617 -0.5796 0.6715
vn -0.1087 -0.0878 -0.9902
vn -0.0085 0.1124 -0.9936
vn -0.9623 0.0447 -0.2684
vn -0.9095 -0.1750 -0.3771
vn -0.5873 -0.0146 0.8093
vn 0.6153 -0.1749 0.7687
vn 0.9309 0.0791 -0.3567
vn -0.9297 0.1286 -0.3452
vn -0.7073 -0.1092 0.6985
vn 0.5771 0.2507 0.7773
vn 0.8558 0.1590 -0.4922
vn 0.7503 -0.0909 0.6548
vn 0.5555 0.0896 -0.8266
vn 0.9700 -0.2426 -0.0150
vn 0.7806 -0.0208 0.6247
vn -0.2253 -0.1588 0.9613
vn 0.9684 0.1769 -0.1759
vn -0.1714 0.7046 -0.6886
vn 0.9515 0.1077 -0.2883
vt 0.184247 0.800130
vt 0.306226 0.671017
vt 0.719904 0.000000
vt 0.164241 0.736916
vt 0.569359 0.006999
vt 0.658217 0.011120
vt 0.213307 0.697227
vt 0.503309 0.000000
vt 0.882014 0.394012
vt 0.266123 0.737127
vt 0.199184 0.687947
vt 0.816385 0.387417
vt 0.250908 0.800130
vt 0.256628 0.697227
vt 1.000000 0.747813
vt 0.654092 0.245790
vt 0.554843 0.266255
vt 0.886122 0.946692
vt 0.262721 0.890172
vt 0.947962 0.037687
vt 0.288665 0.432113
vt 0.711654 0.235948
vt 0.934025 0.976677
vt 0.410152 0.778635
vt 0.306226 0.804305
vt 0.938494 0.776110
vt 0.486962 0.258561
vt 0.852134 0.619715
vt 0.356488 0.802195
vt 0.356488 0.778635
vt 0.849402 0.000000
vt 0.184958 0.448860
vt 0.794558 0.614625
vt 0.199965 0.890172
vt 0.899589 0.016823
vt 0.244230 0.457490
vt 0.564047 0.382821
vt 0.742322 0.343230
vt 0.255406 0.800130
vt 0.302462 0.357766
vt 0.794558 0.337816
vt 0.410152 0.931072
vt 0.523471 0.378338
vt 0.105430 0.697227
vt 0.359548 0.953288
vt 0.237432 0.367988
vt 0.050926 0.697227
vt 0.216245 0.801715
vt 0.273514 0.373241
vt 0.947962 0.197927
vt 0.882014 0.776110
vt 0.653567 0.639981
vt 0.647337 0.639981
vt 0.931459 0.577293
vt 0.990247 0.233107
vt 0.850003 0.190531
vt 0.934025 0.787682
vt 0.299906 0.963052
vt 0.704401 0.647541
vt 0.333828 0.971877
vt 0.704401 0.673207
vt 0.597815 0.658954
vt 0.882014 0.597054
vt 0.356488 0.970017
vt 0.794558 0.171392
vt 0.709940 0.639981
vt 0.569359 0.668599
vt 0.009638 0.959065
vt 0.761511 0.642575
vt 0.817522 0.177466
vt 0.266123 0.959382
vt 0.050926 0.974198
vt 0.947962 0.387417
vt 0.990247 0.000000
vt 0.761511 0.894940
vt 1.000000 0.387417
vt 0.761511 0.971182
vt 0.791110 0.978988
vt 0.647337 0.843036
vt 0.645451 0.843133
vt 0.778502 0.983717
vt 0.299906 0.770013
vt 0.668349 0.843573
vt 0.124573 0.884644
vt 0.778502 0.963237
vt 0.628031 0.850267
vt 0.143031 0.884644
vt 0.947962 0.256255
vt 0.613774 0.854759
vt 0.124573 0.892380
vt 0.000000 0.776835
vt 0.962836 0.248893
vt 0.279791 0.766601
vt 0.016773 0.782983
vt 0.105431 0.890488
vt 0.972876 0.233107
vt 0.296765 0.697227
vt 0.704401 0.941541
vt 0.647337 0.940718
vt 0.143031 0.985268
vt 0.050926 0.697227
vt 0.778502 0.860109
vt 0.791110 0.860109
vt 0.124573 0.982852
vt 0.972876 0.354514
vt 0.164241 0.697227
vt 0.983750 0.931514
vt 0.741340 0.461131
vt 0.520650 0.493427
vt 0.779733 0.454637
vt 0.262082 0.251589
vt 0.127017 0.703166
vt 0.958156 0.899889
vt 0.199965 0.966841
vt 0.480075 0.488945
vt 0.097757 0.813735
vt 0.164241 0.950378
vt 0.197052 0.261810
vt 0.057472 0.813735
vt 0.934025 0.797463
vt 0.233134 0.267064
vt 0.958156 0.776110
vt 0.105430 0.725333
vt 0.754388 0.556201
vt 0.502409 0.591830
vt 0.517154 0.802605
vt 0.517153 0.778635
vt 0.779973 0.551873
vt 0.240748 0.162450
vt 0.500339 0.796360
vt 0.761511 0.860109
vt 0.082245 0.899527
vt 0.475369 0.588843
vt 0.526770 0.778635
vt 0.564489 0.941412
vt 0.553599 0.781212
vt 0.788731 0.860109
vt 0.055400 0.899527
vt 0.197413 0.169262
vt 0.553599 0.922906
vt 0.476017 0.794370
vt 0.221457 0.172763
vt 0.983750 0.776110
vt 0.199965 0.800130
vt 0.958156 0.950476
vt 0.164241 0.884645
vt 0.447400 0.853143
vt 0.222021 0.958125
vt 0.222021 0.955439
vt 0.771867 0.639981
vt 0.528086 0.701321
vt 0.232306 0.977887
vt 0.794558 0.636143
vt 0.268693 0.066817
vt 0.436759 0.831513
vt 0.199965 0.945861
vt 0.763002 0.750639
vt 0.504105 0.698672
vt 0.143031 0.904085
vt 0.787144 0.750639
vt 0.230259 0.072859
vt 0.155780 0.884644
vt 0.410152 0.857314
vt 0.251584 0.075964
vt 0.413739 0.834092
vt 0.569359 0.778635
vt 0.775090 0.639981
vt 0.306226 0.000000
vt 0.476017 0.778635
vt 0.232306 0.890172
vt 0.222021 0.890172
vt 0.155780 0.965953
vt 0.476017 0.897112
vt 0.564489 0.778635
vt 0.553599 0.959278
vt 0.517154 0.938812
vt 0.631624 0.414885
vt 0.420047 0.385240
vt 0.138731 0.317115
vt 0.677459 0.409672
vt 0.843105 0.780638
vt 0.381430 0.380752
vt 0.823343 0.777194
vt 0.086601 0.315181
vt 0.115283 0.321978
vt 0.882014 0.941226
vt 0.000000 0.165047
vt 0.569359 0.580048
vt 0.306226 0.510891
vt 0.882065 0.778241
vt 0.932316 0.579424
vt 0.707765 0.686268
vt 0.888963 0.584705
vt 0.639694 0.642910
vt 0.923828 0.580343
s 1
usemtl poplarbark_tex
f 17/56/1 20/70/2 21/73/3
f 16/50/4 17/55/1 21/74/3
f 20/69/2 19/66/5 21/75/3
f 26/93/6 27/97/7 23/82/8
f 23/83/8 27/98/7 22/79/9
f 22/80/9 27/99/7 24/86/10
f 22/77/9 23/81/8 28/102/11
f 24/85/10 22/78/9 28/103/11
f 29/106/12 30/112/13 39/146/14
f 31/113/15 29/107/12 39/143/14
f 32/117/16 31/114/15 39/144/14
f 40/151/17 45/166/18 42/158/19
f 42/157/19 45/167/18 43/160/20
f 41/155/21 45/169/18 40/147/17
f 41/155/21 44/165/22 46/173/23
f 40/148/17 41/152/21 46/170/23
f 42/156/19 40/149/17 46/171/23
f 38/140/24 37/135/25 47/174/26
f 35/130/27 38/141/24 47/176/26
f 37/136/25 36/134/28 47/175/26
f 50/181/29 53/186/30 51/183/31
f 51/184/31 53/187/30 52/185/32
f 4/10/33 5/13/34 1/1/35 2/4/36 3/7/37
f 12/39/38 7/19/39 10/34/40 15/48/41
f 9/32/42 10/36/40 5/14/34 4/11/33
f 8/27/43 3/8/37 2/5/36 6/17/44
f 10/36/40 7/21/39 1/2/35 5/14/34
f 7/22/39 6/16/44 2/6/36 1/3/35
f 33/121/45 15/49/41 14/46/46 32/118/16
f 13/42/47 14/45/46 9/29/42 8/24/43
f 11/38/48 6/16/44 7/22/39 12/41/38
f 14/46/46 15/49/41 10/36/40 9/32/42
f 13/43/47 8/27/43 6/17/44 11/37/48
f 20/70/2 17/56/1 7/20/39 10/35/40
f 19/64/5 9/30/42 8/25/43 18/60/49
f 17/57/1 16/51/4 54/190/50 7/23/39
f 20/70/2 10/35/40 9/31/42 19/65/5
f 18/63/49 8/26/43 6/15/44 54/191/50 56/195/51
f 23/82/8 17/58/1 20/71/2 26/93/6
f 18/61/49 55/192/52 21/75/3 19/66/5
f 16/54/4 21/76/3 55/193/52 56/195/51
f 24/86/10 25/89/53 19/67/5 18/62/49
f 23/83/8 22/79/9 16/52/4 17/59/1
f 26/94/6 20/72/2 19/68/5 25/91/53
f 22/80/9 24/86/10 18/62/49 56/194/51 16/53/4
f 34/124/54 29/108/12 30/110/13 35/128/27
f 25/90/53 24/87/10 27/100/7
f 26/94/6 25/91/53 27/101/7
f 26/95/6 28/104/11 23/84/8
f 24/88/10 28/105/11 25/92/53
f 25/92/53 28/105/11 26/96/6
f 29/109/12 31/115/15 13/43/47 11/37/48
f 30/111/13 12/40/38 15/49/41 33/121/45
f 32/119/16 14/47/46 13/44/47 31/116/15
f 30/110/13 29/108/12 11/38/48 12/41/38
f 43/160/20 37/137/25 36/131/28 42/157/19
f 38/142/24 33/121/45 32/118/16 37/139/25
f 36/133/28 31/115/15 29/109/12 34/125/54
f 35/129/27 30/111/13 33/121/45 38/142/24
f 37/138/25 32/119/16 31/116/15 36/132/28
f 40/150/17 34/124/54 35/128/27 41/153/21
f 32/120/16 39/145/14 33/122/45
f 33/123/45 39/146/14 30/112/13
f 44/164/22 43/161/20 45/168/18
f 43/161/20 44/164/22 38/142/24 37/139/25
f 42/158/19 36/133/28 34/125/54 40/151/17
f 44/164/22 41/154/21 35/129/27 38/142/24
f 49/179/55 7/21/39 10/36/40 52/185/32
f 41/155/21 44/165/22 45/169/18
f 42/159/19 46/172/23 43/162/20
f 43/163/20 46/173/23 44/165/22
f 34/126/54 47/175/26 36/134/28
f 35/130/27 47/176/26 34/127/54
f 51/183/31 9/33/42 8/28/43 50/181/29
f 49/180/55 48/177/56 6/16/44 7/22/39
f 52/185/32 10/36/40 9/32/42 51/184/31
f 48/178/56 50/182/29 8/27/43 6/17/44
f 9/33/42 4/12/33 3/9/37 8/28/43
f 49/179/55 52/185/32 53/187/30
f 48/177/56 49/180/55 53/188/30
f 50/182/29 48/178/56 53/189/30
f 54/190/50 6/18/44 7/23/39
f 55/193/52 18/63/49 56/195/51
f 54/191/50 56/195/51 16/54/4
