# Blender 3.4.1
# www.blender.org
mtllib poplarsno_1.mtl
o poplarsno_1
v 0.032839 -0.009240 -0.139301
v 0.257394 -0.010070 0.035210
v 0.176855 -0.009236 0.308467
v -0.108902 -0.010860 0.304141
v -0.206561 -0.009304 0.037294
v 0.314985 1.335916 -0.005108
v 0.140467 1.335916 -0.133044
v 0.228869 1.335916 0.220025
v 0.022107 1.335916 0.220025
v -0.051043 1.335916 -0.005108
v -0.051405 2.642184 -0.395369
v -0.260314 2.642184 -0.501042
v -0.106961 2.642184 -0.224388
v -0.350204 2.642184 -0.224388
v -0.405760 2.642184 -0.395369
v 0.742858 2.959595 0.128472
v 0.503920 2.959595 0.120125
v 0.684916 2.959595 0.318469
v 0.565225 2.959595 0.414083
v 0.410890 2.959595 0.248504
v 1.261417 3.648812 -0.165310
v 0.590123 4.063531 0.055701
v 0.469063 4.063531 0.032141
v 0.605125 4.063530 0.178116
v 0.493338 4.063531 0.230213
v 0.409247 4.063531 0.139995
v 0.228293 4.619075 0.127063
v 0.800510 4.477816 0.580945
v 0.012070 3.009933 -0.551450
v -0.133727 3.009933 -0.657378
v -0.043619 3.009933 -0.380057
v -0.223834 3.009933 -0.380057
v -0.279523 3.009933 -0.551450
v -0.005098 3.596855 -0.545872
v -0.133727 3.596855 -0.639326
v -0.054230 3.596855 -0.394661
v -0.213223 3.596855 -0.394661
v -0.262355 3.596855 -0.545872
v -0.707353 3.796968 -0.227130
v -0.019646 4.221879 -0.785785
v -0.133726 4.221879 -0.868669
v -0.063220 4.221879 -0.651676
v -0.204231 4.221879 -0.651676
v -0.247805 4.221879 -0.785785
v -0.133725 4.656931 -1.135890
v 0.212720 4.467628 -0.563955
v -0.338987 4.210942 -1.036512
v 0.387916 2.711171 0.685247
v 0.146623 2.711171 0.555364
v 0.295750 2.711171 0.893351
v 0.180701 2.711171 0.871183
v 0.088536 2.711171 0.685247
v -0.011420 3.492132 0.919243
v 0.733915 2.959595 0.128472
v 0.743910 3.009199 0.293871
v 0.733915 2.959595 0.128473
v 1.308313 1.033354 -0.760367
v 1.982365 2.973468 -0.113886
v 1.647160 1.736482 1.443295
v 0.030576 2.627490 1.548906
v -0.783769 3.081910 0.472019
v 0.908567 2.061872 -1.023454
v -1.005579 2.091551 0.499838
v -0.634438 2.514647 2.301811
v 0.571965 3.708935 0.404491
v 1.153085 2.054419 1.849042
v -0.807015 1.532332 1.247738
v -1.156474 3.472446 0.381619
v -0.211886 2.235460 -0.900928
v 1.305697 3.126468 -0.333971
v 1.606506 3.580888 0.982219
v -0.550406 2.560850 1.651674
v 1.820200 2.590529 1.047856
v 2.221070 3.013626 -0.747738
v 0.342432 4.207913 0.487557
v 0.405162 2.553397 -1.068236
v -1.302088 0.407228 -0.268892
v -0.810606 2.347341 -1.063076
v 0.782244 1.110355 -1.060414
v 1.223084 2.001363 0.498482
v 0.339978 2.455783 1.519740
v -1.475904 1.435745 0.176977
v 0.413500 1.465424 1.730851
v 2.098253 1.888521 0.991624
v -0.009151 3.082809 0.207992
v 1.282213 1.428292 -0.661954
v -1.302088 2.213638 -0.513188
v -0.810605 4.153751 -1.307372
v 0.782244 2.916766 -1.304710
v 1.223084 3.807774 0.254187
v 0.339978 4.262194 1.275444
v -1.475904 3.242156 -0.067318
v 0.413500 3.271835 1.486556
v 2.098253 3.694932 0.747328
v -0.009151 4.889219 -0.036304
v 1.282214 3.234703 -0.906249
v -0.012262 2.261725 1.309494
v -0.928550 4.201838 1.128660
v -1.486155 2.964852 -0.363404
v -0.181826 3.855861 -1.324249
v 1.084741 4.310280 -0.856647
v 0.466253 3.290242 1.315429
v 1.256518 3.319921 -0.999707
v -0.027915 3.743018 -2.316933
v -0.020472 4.937305 -0.068561
v -1.288946 3.282789 -0.971556
v 1.294895 1.512849 -0.968631
v 1.446964 3.452962 -0.047134
v 0.245304 2.215977 0.998422
v -1.112018 3.106984 0.114015
v -1.118411 3.561404 -1.236096
v 1.132600 2.541366 -1.418823
v -1.312636 2.571045 -1.346776
v -2.095614 2.994142 0.318096
v 0.007283 4.188430 -0.477553
v -0.393382 2.533913 1.027071
v 0.827463 0.663894 1.222415
v -0.064201 2.604007 1.500296
v -1.265700 1.367021 0.454555
v -0.577230 2.258029 -1.011905
v 0.759060 2.712449 -1.204703
v 1.250926 1.692411 0.999499
v 0.841854 1.722090 -1.412353
v -0.915200 2.145187 -1.957890
v 0.163257 3.339475 0.014966
v -1.382284 1.684958 -0.174054
v 2.102746 2.110494 -0.656087
v 2.306539 4.050608 0.255369
v 1.165753 2.813622 1.367027
v -0.239283 3.704630 0.560571
v -0.321803 4.159050 -0.787032
v 1.915322 3.139011 -1.096409
v -0.521961 3.168690 -0.886583
v -1.209805 3.591787 0.819794
v 0.844876 4.786075 -0.093177
v 0.529699 3.131559 1.431648
vn -0.4474 0.1695 -0.8781
vn -0.9366 0.3485 0.0377
vn 0.6659 0.6310 -0.3980
vn 0.6926 -0.4151 -0.5899
vn -0.1958 0.2745 0.9414
vn -0.9943 0.0874 0.0618
vn -0.4488 0.8936 -0.0003
vn -0.3605 0.2474 -0.8994
vn 0.6434 0.3983 -0.6538
vn 0.9122 -0.0446 0.4073
vn 0.4204 0.6179 0.6644
vn 0.9250 0.1209 -0.3603
vn 0.0617 0.0608 -0.9962
vn -0.5605 0.7827 0.2706
vn 0.6600 0.2094 0.7215
vn -0.5377 0.0400 0.8422
vn 0.9165 -0.0484 -0.3971
vn -0.0000 0.7577 -0.6526
vn 0.5143 0.0497 0.8561
vn -0.5382 0.5721 0.6190
vn -0.0349 -0.1367 -0.9900
vn -0.9120 0.3247 -0.2504
vn 0.7367 0.5505 0.3928
vn -0.9819 -0.0634 -0.1783
vn -0.5061 0.3269 0.7981
vn -0.2422 0.7393 -0.6283
vn 0.0468 -0.3029 -0.9519
vn 0.5225 0.3618 0.7721
vn 0.5288 -0.1048 0.8423
vn -0.2833 0.9329 0.2226
vn -0.5194 -0.2587 0.8145
vn -0.9993 -0.0096 -0.0356
vn -0.4926 -0.5624 0.6641
vn -0.7975 -0.5553 -0.2358
vn -0.0099 -0.5878 -0.8090
vn 0.7496 -0.6215 -0.2277
vn 0.4577 -0.5763 0.6770
vn -0.1441 -0.3112 -0.9393
vn -0.0273 0.0628 -0.9977
vn -0.9622 0.0545 -0.2667
vn -0.9634 -0.0373 -0.2654
vn -0.5641 0.0027 0.8257
vn 0.6127 -0.0887 0.7853
vn 0.9405 0.0245 -0.3390
vn -0.8983 -0.0490 -0.4366
vn -0.6409 0.2458 0.7272
vn 0.5028 0.3432 0.7934
vn 0.9353 -0.0895 -0.3423
vn 0.7389 -0.0778 0.6693
vn 0.6194 0.1220 -0.7756
vn 0.9851 -0.1722 0.0007
vn 0.7492 -0.2998 0.5906
vn -0.2465 -0.0409 0.9683
vn 0.9722 0.1275 -0.1966
vn -0.1671 0.4279 -0.8882
vn 0.9468 0.2417 -0.2125
vn -0.7163 0.6976 -0.0163
vn 0.3396 0.6835 0.6462
vn 0.6465 0.6976 0.3087
vn -0.0446 0.6835 -0.7286
vn 0.1336 0.6976 0.7039
vn 0.5610 0.6835 -0.4671
vn 0.6119 0.6977 -0.3726
vn -0.6345 0.6835 -0.3609
vn -0.5636 0.6976 -0.4423
vn -0.1154 0.6835 0.7208
vn 0.3603 0.6976 -0.6193
vn -0.7298 0.6835 -0.0148
vn -0.5876 0.6977 -0.4099
vn -0.0746 0.6835 0.7262
vt 0.553937 0.882288
vt 0.722520 0.813615
vt 0.479894 0.007773
vt 0.508512 0.895519
vt 0.643729 0.005726
vt 0.431973 0.000000
vt 0.479894 0.856623
vt 0.606328 0.001513
vt 0.508711 0.817645
vt 0.217036 0.832358
vt 0.566130 0.000000
vt 0.553937 0.831307
vt 0.263681 0.821925
vt 0.672264 0.817743
vt 0.901730 0.825553
vt 0.389800 0.225021
vt 0.639720 0.236320
vt 0.958062 0.284562
vt 0.707600 0.596106
vt 0.825838 0.015168
vt 0.976784 0.980771
vt 0.426208 0.230625
vt 0.990381 0.295898
vt 0.814774 0.835478
vt 0.862263 0.828908
vt 0.606105 0.232642
vt 0.789253 0.839955
vt 0.938701 0.732657
vt 0.171007 0.604991
vt 0.576708 0.231702
vt 0.668950 0.598756
vt 0.789400 0.000000
vt 0.903844 0.740142
vt 0.938701 0.973007
vt 0.209586 0.596494
vt 0.609123 0.463316
vt 0.441584 0.458744
vt 0.674074 0.357520
vt 0.479894 0.463419
vt 0.584993 0.460567
vt 0.222353 0.367220
vt 0.550409 0.459461
vt 0.251653 0.360767
vt 0.643729 0.359944
vt 0.777005 0.290027
vt 0.846868 0.573495
vt 0.889279 0.001089
vt 0.825838 0.291156
vt 0.635510 0.817645
vt 0.745870 0.278518
vt 0.949959 0.438104
vt 0.920587 0.000000
vt 0.746412 0.592481
vt 0.852279 0.290485
vt 0.814774 0.574609
vt 0.901730 0.757043
vt 0.938701 0.437636
vt 0.722520 0.602970
vt 0.878388 0.288754
vt 0.958062 0.000000
vt 0.935328 0.740142
vt 0.722520 0.268227
vt 0.901730 0.449064
vt 0.976826 0.437636
vt 0.920587 0.006123
vt 0.825838 0.437636
vt 0.935328 0.909539
vt 0.814774 0.437636
vt 0.901730 0.437636
vt 0.576764 0.923843
vt 0.339601 0.943344
vt 0.894140 0.187482
vt 0.827089 0.100305
vt 0.938701 0.623779
vt 0.912189 0.187647
vt 0.589839 0.940003
vt 0.878388 0.183031
vt 0.327808 0.928083
vt 0.836724 0.100679
vt 0.315767 0.929082
vt 0.857536 0.099019
vt 0.958062 0.192105
vt 0.295504 0.928879
vt 0.315767 0.842142
vt 0.959075 0.622712
vt 0.937643 0.195441
vt 0.609667 0.933019
vt 0.327808 0.824833
vt 0.976826 0.721208
vt 0.920587 0.275611
vt 0.878388 0.000000
vt 0.936197 0.290659
vt 0.339601 0.824833
vt 0.609667 0.817645
vt 0.315767 0.824833
vt 0.327808 0.946257
vt 0.938258 0.291156
vt 1.000000 0.911988
vt 0.440097 0.526407
vt 0.628586 0.528653
vt 0.909352 0.299261
vt 0.470407 0.531049
vt 0.700460 0.292215
vt 0.576764 0.817645
vt 0.976784 0.896624
vt 0.869499 0.423356
vt 0.604398 0.525898
vt 0.220671 0.301372
vt 0.578775 0.525079
vt 0.847951 0.415527
vt 0.250041 0.294903
vt 0.670041 0.294644
vt 0.825838 0.399791
vt 0.553937 0.838418
vt 0.424514 0.623566
vt 0.618628 0.628674
vt 0.869499 0.308740
vt 0.956724 0.291156
vt 0.609667 0.924246
vt 0.451255 0.627661
vt 0.686343 0.197186
vt 0.938258 0.308186
vt 0.597288 0.626243
vt 0.889781 0.294887
vt 0.717752 0.964623
vt 0.909352 0.291156
vt 0.574683 0.625521
vt 0.201588 0.202619
vt 0.700513 0.948004
vt 0.635510 0.932824
vt 0.227500 0.196912
vt 0.659506 0.199329
vt 0.938258 0.423640
vt 1.000000 0.721208
vt 0.869499 0.291156
vt 0.576764 0.999581
vt 0.339601 0.892292
vt 0.263681 0.846834
vt 0.434746 0.737565
vt 0.631893 0.738794
vt 0.679176 0.822569
vt 0.350238 0.911869
vt 0.458463 0.741196
vt 0.700280 0.083987
vt 0.612967 0.736639
vt 0.286201 0.842677
vt 0.592918 0.735997
vt 0.215893 0.089051
vt 0.295504 0.824833
vt 0.643729 0.838075
vt 0.238874 0.083990
vt 0.676479 0.085888
vt 0.655498 0.817743
vt 0.643729 0.817645
vt 0.475427 0.824833
vt 0.263681 0.000000
vt 0.722520 0.000000
vt 0.350238 0.824833
vt 0.295504 0.906773
vt 0.679176 0.909467
vt 0.717752 0.817743
vt 0.635510 0.817645
vt 0.909352 0.432706
vt 0.956724 0.437038
vt 0.263681 0.423577
vt 0.568182 0.461313
vt 0.976784 0.734050
vt 0.700513 0.954999
vt 0.308799 0.429311
vt 0.535323 0.457856
vt 0.521070 0.457657
vt 0.016731 0.398634
vt 0.956934 0.721208
vt 0.051408 0.391321
vt 0.679176 0.946587
vt 0.000000 0.267656
vt 0.700513 0.817743
vt 0.265680 0.543410
vt 0.479894 0.589383
vt 0.775813 0.289583
vt 0.846132 0.574537
vt 0.990381 0.000000
vt 0.635510 0.818782
vt 0.752517 0.581802
vt 0.821004 0.562408
vt 0.827103 0.291018
vt 0.846132 0.574537
vt 0.635510 0.818782
vt 0.000000 0.000000
vt 1.000000 0.000000
vt 0.000000 1.000000
vt 1.000000 1.000000
vt 0.000000 0.000000
vt 1.000000 0.000000
vt 0.000000 1.000000
vt 1.000000 1.000000
vt 0.000000 0.000000
vt 1.000000 0.000000
vt 0.000000 1.000000
vt 1.000000 1.000000
vt 0.000000 0.000000
vt 1.000000 0.000000
vt 0.000000 1.000000
vt 1.000000 1.000000
vt 0.000000 0.000000
vt 1.000000 0.000000
vt 0.000000 1.000000
vt 1.000000 1.000000
vt 0.000000 0.000000
vt 1.000000 0.000000
vt 0.000000 1.000000
vt 1.000000 1.000000
vt 0.000000 0.000000
vt 1.000000 0.000000
vt 0.000000 1.000000
vt 1.000000 1.000000
vt 0.000000 0.000000
vt 1.000000 0.000000
vt 0.000000 1.000000
vt 1.000000 1.000000
s 1
usemtl poplarbark_tex
f 17/50/1 20/62/2 21/66/3
f 16/45/4 17/50/1 21/66/3
f 20/61/2 19/56/5 21/67/3
f 26/85/6 27/89/7 23/74/8
f 23/75/8 27/90/7 22/72/9
f 22/72/9 27/90/7 24/77/10
f 22/70/9 23/76/8 28/94/11
f 24/78/10 22/71/9 28/93/11
f 29/97/12 30/101/13 39/133/14
f 31/105/15 29/98/12 39/134/14
f 32/110/16 31/106/15 39/135/14
f 40/140/17 45/154/18 42/145/19
f 42/145/19 45/154/18 43/147/20
f 41/143/21 45/155/18 40/139/17
f 41/141/21 44/153/22 46/160/23
f 40/137/17 41/142/21 46/158/23
f 42/146/19 40/138/17 46/159/23
f 38/129/24 37/125/25 47/161/26
f 35/119/27 38/130/24 47/162/26
f 37/126/25 36/124/28 47/163/26
f 50/170/29 53/179/30 51/171/31
f 51/172/31 53/176/30 52/174/32
f 4/9/33 5/12/34 1/1/35 2/4/36 3/7/37
f 12/38/38 7/19/39 10/31/40 15/44/41
f 9/29/42 10/35/40 5/13/34 4/10/33
f 8/26/43 3/8/37 2/5/36 6/17/44
f 10/31/40 7/19/39 1/2/35 5/14/34
f 7/22/39 6/16/44 2/6/36 1/3/35
f 33/111/45 15/43/41 14/41/46 32/108/16
f 13/40/47 14/42/46 9/30/42 8/26/43
f 11/37/48 6/16/44 7/22/39 12/39/38
f 14/41/46 15/43/41 10/35/40 9/29/42
f 13/40/47 8/26/43 6/17/44 11/36/48
f 20/62/2 17/50/1 7/20/39 10/32/40
f 19/58/5 9/27/42 8/24/43 18/53/49
f 17/50/1 16/45/4 54/180/50 7/20/39
f 20/63/2 10/33/40 9/28/42 19/57/5
f 18/55/49 8/25/43 6/15/44 54/181/50 56/187/51
f 23/74/8 17/51/1 20/64/2 26/85/6
f 18/53/49 55/184/52 21/68/3 19/58/5
f 16/46/4 21/69/3 55/185/52 56/187/51
f 24/79/10 25/81/53 19/59/5 18/54/49
f 23/75/8 22/72/9 16/47/4 17/52/1
f 26/86/6 20/65/2 19/60/5 25/82/53
f 22/73/9 24/79/10 18/54/49 56/186/51 16/48/4
f 34/115/54 29/99/12 30/102/13 35/120/27
f 25/81/53 24/79/10 27/91/7
f 26/86/6 25/82/53 27/92/7
f 26/87/6 28/94/11 23/76/8
f 24/80/10 28/95/11 25/83/53
f 25/84/53 28/96/11 26/88/6
f 29/100/12 31/107/15 13/40/47 11/36/48
f 30/103/13 12/38/38 15/44/41 33/112/45
f 32/109/16 14/42/46 13/40/47 31/107/15
f 30/102/13 29/99/12 11/37/48 12/39/38
f 43/147/20 37/127/25 36/123/28 42/145/19
f 38/131/24 33/111/45 32/108/16 37/128/25
f 36/123/28 31/107/15 29/100/12 34/116/54
f 35/121/27 30/103/13 33/112/45 38/132/24
f 37/127/25 32/109/16 31/107/15 36/123/28
f 40/139/17 34/115/54 35/120/27 41/143/21
f 32/110/16 39/135/14 33/113/45
f 33/114/45 39/136/14 30/104/13
f 44/151/22 43/148/20 45/156/18
f 43/148/20 44/151/22 38/131/24 37/128/25
f 42/145/19 36/123/28 34/116/54 40/140/17
f 44/152/22 41/144/21 35/121/27 38/132/24
f 49/167/55 7/21/39 10/34/40 52/173/32
f 41/144/21 44/152/22 45/157/18
f 42/146/19 46/159/23 43/149/20
f 43/150/20 46/160/23 44/153/22
f 34/117/54 47/163/26 36/124/28
f 35/122/27 47/164/26 34/118/54
f 51/171/31 9/30/42 8/26/43 50/170/29
f 49/169/55 48/165/56 6/16/44 7/22/39
f 52/174/32 10/35/40 9/29/42 51/172/31
f 48/166/56 50/170/29 8/26/43 6/17/44
f 9/30/42 4/11/33 3/8/37 8/26/43
f 49/168/55 52/175/32 53/177/30
f 48/165/56 49/169/55 53/178/30
f 50/170/29 48/166/56 53/179/30
f 54/182/50 6/18/44 7/23/39
f 55/185/52 18/55/49 56/187/51
f 54/183/50 56/188/51 16/49/4
s 0
usemtl poplarsnoleaves_tex
f 63/189/57 64/190/57 65/191/57
f 65/191/58 64/190/58 66/192/58
f 73/193/59 74/194/59 75/195/59
f 75/195/60 74/194/60 76/196/60
f 83/197/61 84/198/61 85/199/61
f 85/199/62 84/198/62 86/200/62
f 93/201/61 94/202/61 95/203/61
f 95/203/62 94/202/62 96/204/62
f 103/205/63 104/206/63 105/207/63
f 105/207/64 104/206/64 106/208/64
f 113/209/65 114/210/65 115/211/65
f 115/211/66 114/210/66 116/212/66
f 123/213/67 124/214/67 125/215/67
f 125/215/68 124/214/68 126/216/68
f 133/217/69 134/218/69 135/219/69
f 135/219/70 134/218/70 136/220/70
