# Blender 3.4.1
# www.blender.org
mtllib lboulderswa_1.mtl
o lboulderswa_1
v 0.838354 0.394470 0.031508
v -0.042680 0.587891 -0.831012
v -0.745650 -0.001876 0.795287
v -0.363378 -0.566593 -0.939921
v 0.228410 -0.546257 0.084675
v 0.696528 -0.075746 -0.285831
v 0.957224 -0.042258 0.801586
v 0.160794 -0.321460 -1.011305
v -0.952928 0.020281 -0.463585
v 0.073991 0.875707 0.789969
v -1.026310 0.286143 0.419103
v -0.613251 -0.708272 0.436073
v 0.949796 0.436296 0.459201
v 0.824779 -0.524832 0.389766
v 0.595421 -0.495095 0.893880
v 0.677921 -0.443809 -0.077542
v 0.482023 0.749037 0.095816
v -0.442136 0.699742 -0.403973
v -0.044243 0.987150 0.155020
v 0.411432 0.204306 -0.655250
v 0.061144 -0.701052 -0.510931
v 0.316873 0.300620 1.103802
v -0.190440 0.144503 1.074010
v 0.020977 -0.563247 0.868090
v -0.543532 -0.746159 -0.345487
v -0.885514 -0.559890 -0.205706
v -0.897300 0.410764 -0.094431
v 1.056283 -0.207117 0.283579
v 0.007539 -0.777139 0.531704
v -0.719262 -0.399715 -0.793320
v -0.588958 0.378565 -1.069585
v -0.532028 0.902491 0.633251
v -0.935383 -0.430919 0.347459
vn 0.8191 0.5477 0.1703
vn 0.9573 -0.2483 -0.1484
vn 0.6996 0.4524 -0.5531
vn 0.8307 -0.0068 -0.5567
vn 0.5963 -0.8028 0.0052
vn 0.5907 -0.7241 -0.3561
vn -0.2015 -0.5111 -0.8356
vn 0.3215 -0.9085 -0.2671
vn -0.2853 -0.9391 -0.1918
vn 0.4307 -0.2987 -0.8516
vn -0.4122 0.3929 -0.8220
vn 0.2774 0.6920 -0.6665
vn 0.7394 0.3141 -0.5955
vn -0.6520 -0.4005 -0.6438
vn -0.4086 0.8681 -0.2818
vn -0.4945 0.7706 0.4019
vn 0.0692 0.9885 -0.1345
vn 0.1588 0.7923 0.5890
vn 0.5464 0.8041 -0.2342
vn 0.0900 -0.9737 0.2092
vn 0.4183 -0.9039 -0.0893
vn -0.2540 0.0212 0.9670
vn 0.3795 -0.6084 0.6970
vn 0.2215 0.2439 0.9442
vn -0.1237 -0.6047 0.7868
vn 0.7927 -0.0263 0.6091
vn -0.6158 -0.1099 0.7802
vn -0.4278 -0.8119 0.3974
vn -0.8541 -0.4243 0.3007
vn -0.9544 0.0554 -0.2935
vn -0.8070 -0.5741 -0.1383
vn -0.7649 0.6367 -0.0983
vn -0.9276 0.2760 0.2518
vt 0.273018 0.481491
vt 0.321166 0.122747
vt 0.033145 0.693881
vt 0.510041 0.932945
vt 0.750524 0.395849
vt 0.760923 0.576255
vt 0.884186 0.000000
vt 0.913507 0.848103
vt 0.832783 0.613669
vt 0.088869 0.221749
vt 0.149682 0.402922
vt 0.807087 0.563367
vt 0.482013 0.401393
vt 0.652619 0.435349
vt 1.000000 0.652215
vt 0.806508 0.638098
vt 0.136282 0.018705
vt 0.787499 0.852940
vt 0.706598 0.096078
vt 0.519302 0.069313
vt 0.126664 1.013714
vt 0.389698 0.679555
vt 0.737583 0.507516
vt 0.706598 0.155188
vt 0.360532 0.965926
vt 0.587524 0.322148
vt 0.853483 0.312766
vt 0.364708 0.488377
vt 0.734929 0.539074
vt 0.747215 0.095999
vt 0.716172 0.520256
vt 0.781119 0.428795
vt 0.016585 0.212965
vt 0.737859 0.642675
vt 0.269510 0.588423
vt 0.154137 0.793884
vt 0.278619 0.701276
vt 0.188512 0.160825
vt 0.059140 0.523083
vt 0.982856 0.089349
vt 0.870024 0.751277
vt 0.898891 0.217369
vt 0.684628 0.689558
vt 0.549766 0.621998
vt 0.563621 0.763778
vt 0.841193 0.291935
vt 0.888203 0.442127
vt 0.701902 0.191930
vt 0.869470 0.141192
vt 0.579676 0.000000
vt 0.782704 0.172740
vt 0.229924 0.922457
vt 0.335723 0.321740
vt 0.000000 0.339111
vt 0.647647 0.553118
vt 0.620332 0.197174
vt 0.913507 0.521817
vt 0.982856 0.322059
vt 0.913507 0.496159
vt 0.806508 0.523853
vt 0.796791 0.034087
vt 0.440789 0.014239
vt 0.359244 0.000000
vt 1.000000 0.428795
vt 0.359244 0.142595
vt -0.030300 0.864291
vt 0.364575 0.786808
vt 0.607708 0.417079
vt 0.760316 0.290374
vt 0.697997 0.047148
s 1
usemtl lboulderswa_tex
f 13/28/1 28/53/2 1/1/3
f 1/1/3 28/53/2 6/11/4
f 28/55/2 14/29/5 16/34/6
f 4/7/7 21/40/8 25/49/9
f 8/17/10 31/63/11 2/2/12
f 8/17/10 2/2/12 20/38/13
f 30/59/14 31/64/11 8/15/10
f 18/36/15 2/3/12 31/66/11
f 18/36/15 32/67/16 19/37/17
f 19/37/17 10/22/18 17/35/19
f 6/11/4 17/35/19 1/1/3
f 21/40/8 29/58/20 25/49/9
f 6/10/4 16/33/6 8/17/10
f 16/34/6 21/41/8 8/18/10
f 14/29/5 5/9/21 16/34/6
f 14/29/5 29/57/20 5/9/21
f 23/46/22 15/30/23 22/42/24
f 23/46/22 24/48/25 15/30/23
f 22/43/24 15/31/23 7/12/26
f 3/5/27 12/26/28 24/48/25
f 24/48/25 12/26/28 29/56/20
f 15/32/23 24/47/25 29/57/20
f 3/5/27 33/68/29 12/26/28
f 9/20/30 26/50/31 33/70/29
f 9/19/30 30/61/14 26/51/31
f 26/51/31 30/61/14 25/49/9
f 27/52/32 18/36/15 31/66/11
f 10/22/18 13/28/1 17/35/19
f 17/35/19 13/28/1 1/1/3
f 22/44/24 7/13/26 13/28/1
f 7/13/26 28/53/2 13/28/1
f 6/10/4 28/54/2 16/33/6
f 7/14/26 14/29/5 28/55/2
f 15/32/23 29/57/20 14/29/5
f 15/32/23 14/29/5 7/14/26
f 30/60/14 8/16/10 4/6/7
f 6/10/4 8/17/10 20/38/13
f 25/49/9 30/61/14 4/7/7
f 21/41/8 4/8/7 8/18/10
f 9/20/30 31/65/11 30/62/14
f 2/3/12 19/37/17 17/35/19
f 6/11/4 20/39/13 17/35/19
f 20/39/13 2/3/12 17/35/19
f 18/36/15 19/37/17 2/3/12
f 21/41/8 5/9/21 29/57/20
f 16/34/6 5/9/21 21/41/8
f 25/49/9 29/58/20 12/27/28
f 10/22/18 32/67/16 22/44/24
f 22/44/24 32/67/16 23/45/22
f 32/67/16 10/22/18 19/37/17
f 32/67/16 3/4/27 23/45/22
f 32/67/16 11/25/33 3/4/27
f 13/28/1 10/22/18 22/44/24
f 23/46/22 3/5/27 24/48/25
f 3/5/27 11/23/33 33/68/29
f 12/27/28 26/51/31 25/49/9
f 12/27/28 33/69/29 26/51/31
f 11/25/33 27/52/32 9/21/30
f 33/70/29 11/24/33 9/20/30
f 27/52/32 11/25/33 18/36/15
f 11/25/33 32/67/16 18/36/15
f 9/21/30 27/52/32 31/66/11
