# Blender 3.4.1
# www.blender.org
mtllib lboulderswa_0.mtl
o lboulderswa_0
v 0.045745 1.157798 -0.079703
v 1.052450 -0.446418 0.470198
v 0.813427 -0.362172 -0.862506
v 0.643025 0.614234 -0.366867
v 0.589252 0.278618 0.830310
v 0.941744 0.199480 -0.169061
v 0.452139 0.255712 -0.832368
v -1.195191 -0.335358 0.048472
v 0.171309 -0.308824 1.171440
v 0.224981 0.830257 0.530948
v -0.905424 -0.073026 -0.628029
v -0.473072 -0.243230 1.151445
v -0.252713 0.778870 0.685556
v 0.705232 0.589709 0.328623
v 0.025145 0.976471 -0.435004
v -1.110469 0.046709 0.322670
v -0.801757 -0.561143 0.673524
v 0.542419 -0.317388 0.960548
v -0.036564 -0.673461 1.099192
v -0.407697 -0.484248 -0.984702
v 0.012310 0.419506 0.975590
v -0.872494 -0.614026 -0.360406
v 0.567972 -0.653774 0.679500
v 0.006822 -0.876824 0.140715
v -0.442260 0.198792 -0.922732
v 0.015104 0.121938 -0.931811
v 0.167802 -0.744671 -0.362907
v 0.803598 0.093521 -0.630709
v 0.100053 0.645421 -0.657699
v -0.719370 0.504547 -0.398343
v -0.312273 0.700511 -0.631344
v 0.821885 -0.791851 0.122917
v 1.098713 -0.696557 -0.197400
v -0.302519 -0.699125 -0.803914
v -0.836356 -0.756785 0.056381
v -0.173491 -0.775478 0.673137
v 1.152794 -0.175524 0.288899
v 0.112614 -0.330612 -1.175681
v -0.522211 0.897694 0.255121
v -0.775708 0.456239 0.316705
v -0.649967 0.170874 0.824933
v 0.197492 -0.644919 -0.934551
v 1.196613 -0.220259 -0.227415
vn 0.7838 -0.3414 0.5187
vn 0.5727 0.3987 0.7163
vn 0.5780 -0.1808 0.7957
vn 0.9414 0.1718 0.2903
vn 0.7244 0.6432 0.2480
vn 0.8427 0.5162 -0.1531
vn 0.6684 0.6455 -0.3697
vn 0.7140 0.4201 -0.5601
vn 0.1871 0.5534 -0.8116
vn 0.0153 0.8187 -0.5741
vn 0.0608 0.9940 -0.0909
vn -0.3407 0.6659 -0.6637
vn -0.8116 0.1024 -0.5752
vn -0.3700 0.3811 -0.8473
vn -0.4397 -0.3785 -0.8145
vn -0.6117 0.7703 0.1803
vn -0.7321 0.5735 -0.3676
vn -0.6124 0.4115 0.6750
vn -0.7757 0.5755 0.2588
vn -0.9162 0.2999 0.2658
vn -0.2660 0.7124 0.6494
vn 0.0387 0.4876 0.8722
vn 0.3283 0.7884 0.5202
vn 0.2620 -0.0495 0.9638
vn 0.3251 -0.9360 0.1348
vn 0.7033 -0.6905 -0.1692
vn 0.0161 -0.9826 -0.1848
vn 0.1390 -0.8090 -0.5712
vn -0.2088 -0.8953 -0.3934
vn -0.5989 -0.6980 -0.3926
vn -0.0052 -0.9998 -0.0206
vn -0.4667 -0.8843 -0.0160
vn -0.9811 -0.1921 -0.0233
vn -0.6572 -0.5609 0.5036
vn -0.0942 -0.9654 0.2433
vn 0.0167 -0.7060 0.7080
vn 0.3750 -0.7863 0.4910
vn 0.9654 0.1464 -0.2157
vn 0.6292 -0.1888 -0.7539
vn 0.0685 -0.0997 -0.9927
vn 0.3623 0.4778 -0.8003
vn 0.0548 0.4774 -0.8770
vn -0.4422 -0.0295 0.8964
vt 0.312123 0.667289
vt 0.903389 0.083984
vt 0.894428 0.046886
vt 0.819076 0.334096
vt 0.708246 0.605868
vt 0.448011 0.596958
vt 0.193804 0.402605
vt 0.904265 0.240839
vt 0.498860 0.463146
vt 0.656581 0.240058
vt 0.687843 0.410807
vt 0.573526 0.693898
vt 0.554687 0.210289
vt 0.832106 0.438033
vt 1.000000 0.261432
vt 0.740336 0.199235
vt 0.233578 0.579526
vt 0.673888 0.971346
vt 0.712844 0.251236
vt 0.331736 1.020991
vt 0.681207 0.673465
vt 0.651152 0.304061
vt 0.160550 0.651501
vt 0.324961 0.495740
vt 0.363330 0.707173
vt 0.560526 0.109800
vt 0.645248 0.479803
vt 0.743421 0.451882
vt 0.073088 0.927644
vt 0.781436 0.592103
vt 0.810023 0.153877
vt 0.975995 0.174778
vt 0.938945 0.315050
vt 0.768174 0.771273
vt 0.664994 0.179564
vt 0.790932 0.336455
vt 0.683841 0.863876
vt 0.079021 0.543989
vt 0.824625 0.338893
vt 0.764909 0.966587
vt 0.629792 0.292483
vt 0.792903 0.973610
vt 0.950976 0.463336
vt 0.889989 0.166480
vt 0.925348 0.797661
vt 0.747715 0.246052
vt 0.950976 0.681762
vt 0.839145 0.227411
vt 0.450818 0.911652
vt 0.643975 0.525915
vt 0.550508 0.828372
vt 0.690204 0.469421
vt 0.764909 0.771273
vt 0.829645 0.754245
vt 0.716718 0.326045
vt 0.602058 0.568162
vt 0.437694 0.729584
vt 0.295446 0.860896
vt 0.378256 0.795078
vt 0.925348 0.623822
vt 0.785659 0.083432
vt 0.749927 0.001386
vt 0.866058 0.559127
vt 0.819076 0.168822
vt 0.681207 0.838263
vt 0.744623 0.846448
vt 0.879850 0.973945
vt 0.904103 0.530079
vt 0.842578 0.708044
vt 0.846575 0.315050
vt 0.966331 0.117836
vt 0.434817 0.286953
vt 0.895866 0.000000
vt 0.681550 0.115234
vt 0.898981 0.312549
vt 0.641342 0.749110
vt 0.799643 0.469513
vt 0.221586 0.732069
vt 0.145136 0.806246
vt 0.000179 0.739101
vt 0.699772 0.406486
vt 0.725295 0.737864
vt 0.750703 0.193153
s 1
usemtl lboulderswa_tex
f 2/2/1 5/8/2 18/31/3
f 37/71/4 5/8/2 2/2/1
f 37/72/4 14/24/5 5/7/2
f 6/9/6 14/24/5 37/72/4
f 4/6/7 6/9/6 28/56/8
f 29/57/9 15/25/10 4/6/7
f 4/6/7 15/25/10 1/1/11
f 29/57/9 31/59/12 15/25/10
f 11/19/13 25/48/14 20/36/15
f 15/25/10 39/78/16 1/1/11
f 31/59/12 30/58/17 39/78/16
f 30/58/17 31/59/12 11/20/13
f 41/80/18 40/79/19 16/29/20
f 39/78/16 13/23/21 1/1/11
f 21/38/22 10/17/23 13/23/21
f 18/31/3 5/8/2 9/16/24
f 32/61/25 33/62/26 2/3/1
f 27/54/27 33/63/26 32/60/25
f 42/82/28 34/66/29 20/37/15
f 27/54/27 42/82/28 33/63/26
f 22/42/30 27/54/27 24/45/31
f 22/40/30 34/65/29 27/53/27
f 24/45/31 35/67/32 22/42/30
f 8/14/33 35/68/32 17/30/34
f 35/68/32 36/69/35 17/30/34
f 19/33/36 23/44/37 18/32/3
f 36/69/35 19/34/36 17/30/34
f 23/44/37 36/70/35 24/46/31
f 33/62/26 37/73/4 2/3/1
f 28/55/8 43/83/38 3/4/39
f 28/55/8 6/10/6 43/83/38
f 20/37/15 38/76/40 42/82/28
f 38/77/40 7/11/41 3/4/39
f 25/48/14 38/75/40 20/36/15
f 7/11/41 38/77/40 26/52/42
f 22/42/30 11/18/13 20/37/15
f 8/13/33 11/19/13 22/41/30
f 16/28/20 17/30/34 12/21/43
f 11/19/13 8/13/33 16/26/20
f 10/17/23 14/24/5 1/1/11
f 6/9/6 4/6/7 14/24/5
f 14/24/5 4/6/7 1/1/11
f 4/6/7 7/12/41 29/57/9
f 3/4/39 7/11/41 28/55/8
f 7/12/41 4/6/7 28/56/8
f 26/51/42 29/57/9 7/12/41
f 26/51/42 25/49/14 31/59/12
f 29/57/9 26/51/42 31/59/12
f 31/59/12 25/49/14 11/20/13
f 15/25/10 31/59/12 39/78/16
f 30/58/17 40/79/19 39/78/16
f 16/29/20 40/79/19 30/58/17
f 12/22/43 41/81/18 16/27/20
f 13/23/21 40/79/19 41/80/18
f 13/23/21 39/78/16 40/79/19
f 41/80/18 21/38/22 13/23/21
f 1/1/11 13/23/21 10/17/23
f 21/38/22 5/7/2 10/17/23
f 5/7/2 14/24/5 10/17/23
f 23/44/37 32/61/25 2/3/1
f 24/45/31 27/54/27 32/60/25
f 24/46/31 32/61/25 23/44/37
f 27/54/27 34/66/29 42/82/28
f 33/63/26 42/82/28 3/5/39
f 20/37/15 34/66/29 22/42/30
f 24/47/31 36/69/35 35/68/32
f 19/33/36 36/70/35 23/44/37
f 18/32/3 23/44/37 2/3/1
f 18/32/3 9/15/24 19/33/36
f 3/4/39 43/83/38 33/64/26
f 43/83/38 37/74/4 33/64/26
f 37/74/4 43/83/38 6/10/6
f 42/82/28 38/76/40 3/5/39
f 25/50/14 26/52/42 38/77/40
f 22/43/30 35/68/32 8/14/33
f 16/28/20 8/14/33 17/30/34
f 30/58/17 11/20/13 16/29/20
f 17/30/34 19/34/36 12/21/43
f 19/35/36 9/16/24 12/22/43
f 41/81/18 12/22/43 21/39/22
f 21/39/22 12/22/43 9/16/24
f 21/39/22 9/16/24 5/8/2
