# Blender 3.4.1
# www.blender.org
mtllib mboulderdes_1.mtl
o mboulderdes_1
v 0.458028 -0.389127 -0.496148
v -0.456989 -0.339879 -0.059544
v -0.686546 -0.115857 0.339091
v -0.731808 0.032703 -0.455902
v -1.077899 0.281865 0.091181
v -0.176475 -0.496638 -0.086908
v 0.856985 -0.458074 0.150289
v -0.258993 0.501400 0.377546
v -0.149457 0.085852 -0.762275
v 1.102387 0.157858 -0.145157
v 0.718992 -0.031359 0.520098
v 0.526916 0.367480 0.390314
v -0.869891 -0.157249 -0.107763
v -0.061169 -0.251707 -0.654875
v -0.138291 0.404333 -0.641401
v 0.145549 0.628865 -0.137134
v -0.329018 0.537127 0.029571
v 0.699026 0.312892 -0.497727
v 0.420959 -0.452034 0.419023
v 0.070815 -0.415960 0.613396
v -1.094323 0.213707 -0.046937
v -0.060173 0.012765 0.686857
v 0.363083 -0.153426 0.724179
v 0.214509 0.482387 0.202536
v 0.817209 0.549079 0.063075
v 1.056789 0.245989 0.233543
v 1.045445 -0.108497 -0.180605
v 0.693001 -0.076344 -0.579418
v -0.768413 0.488567 -0.344292
v -0.725987 0.584693 0.217434
v -0.658543 0.196461 0.482431
v 0.692735 0.546517 -0.301671
v 1.047749 -0.228115 0.399273
vn -0.5932 -0.3081 -0.7438
vn -0.4659 -0.8799 -0.0934
vn -0.6619 -0.7344 -0.1501
vn 0.1558 -0.9023 0.4019
vn -0.2810 -0.9532 -0.1115
vn 0.4684 -0.8832 0.0230
vn -0.9229 0.2108 0.3223
vn -0.5753 -0.5905 0.5660
vn -0.1541 -0.7335 0.6620
vn 0.2311 -0.7750 -0.5882
vn -0.1598 -0.6237 -0.7651
vn 0.4927 -0.1946 -0.8482
vn -0.1412 0.0092 -0.9899
vn 0.8323 -0.3835 -0.4003
vn -0.4947 0.6861 -0.5334
vn 0.0026 0.9993 -0.0369
vn -0.0671 0.6393 -0.7660
vn -0.0565 0.9975 0.0420
vn 0.0352 0.7951 0.6055
vn 0.1964 -0.0460 0.9795
vn 0.7686 -0.3325 0.5465
vn 0.4028 0.3200 0.8575
vn -0.9851 -0.0354 -0.1685
vn -0.1205 0.1961 0.9731
vn 0.0784 0.8278 0.5556
vn -0.4600 0.1059 0.8816
vn 0.0781 0.6601 0.7471
vn -0.3422 0.8694 0.3565
vn 0.9242 0.2172 -0.3142
vn 0.7821 0.4356 0.4457
vn 0.4507 0.8678 0.2095
vn 0.3876 0.8182 -0.4247
vn 0.4586 0.3957 -0.7957
vt 0.381503 0.945232
vt 0.648787 0.373223
vt 0.587615 0.107440
vt 0.509199 0.022856
vt 0.894175 0.149508
vt 0.725019 0.054388
vt 0.456448 0.678648
vt 0.510564 0.507929
vt 0.823825 0.011613
vt 0.381503 0.000000
vt 0.571123 0.184066
vt 0.230134 0.542056
vt 0.456790 0.442512
vt 0.725019 0.230407
vt 0.332453 0.226337
vt 0.489990 0.850329
vt 0.027409 0.473021
vt 0.113962 0.691824
vt 0.826115 0.515089
vt 0.740695 0.436790
vt 0.228363 0.411302
vt 0.400299 0.596428
vt 0.632109 0.000000
vt 0.948161 0.070211
vt 0.725019 0.244361
vt 0.402226 0.859720
vt 0.081370 0.115143
vt 0.575168 0.823929
vt 0.156424 0.247673
vt 0.261346 0.161880
vt 0.000000 0.329536
vt 0.576873 0.977221
vt 0.126804 0.787284
vt 0.411018 0.312592
vt 0.948161 0.452418
vt 0.381503 0.209218
vt 0.929472 0.377270
vt 0.492204 0.529478
vt 0.853665 0.000000
vt 0.381503 0.320251
vt 0.817180 0.328854
vt 0.846772 0.446997
vt 0.333444 0.425092
vt 0.734984 0.337439
vt 0.226894 0.311962
vt 0.000000 0.683267
vt 0.110848 0.431409
vt 0.047681 0.610564
vt 0.120294 0.513602
vt 0.773790 0.564535
vt 0.551289 0.507929
vt 0.183132 0.667219
vt 0.674849 0.437277
vt 0.472829 1.000000
vt 0.230134 0.760011
vt 0.576873 0.640173
vt 0.236076 0.009378
vt 0.728245 0.095662
vt 0.359024 0.095405
vt 0.801742 0.152485
vt 0.043771 0.352477
vt 0.047114 0.768146
vt 0.394891 0.476934
vt 0.141376 0.513602
vt 0.879492 0.598458
s 1
usemtl mboulderdes_tex
f 4/6/1 2/3/2 13/23/3
f 19/34/4 6/11/5 7/13/6
f 2/3/2 4/6/1 6/11/5
f 5/9/7 13/24/3 3/5/8
f 3/4/8 2/3/2 6/11/5
f 3/4/8 6/11/5 20/36/9
f 1/1/10 14/26/11 28/54/12
f 9/16/13 14/26/11 4/7/1
f 14/25/11 1/2/10 6/11/5
f 14/25/11 6/11/5 4/6/1
f 27/51/14 1/2/10 28/53/12
f 6/11/5 1/2/10 7/13/6
f 29/57/15 16/29/16 15/27/17
f 4/7/1 29/56/15 9/16/13
f 17/30/18 8/15/19 16/29/16
f 23/42/20 20/37/9 19/35/4
f 33/63/21 19/34/4 7/13/6
f 11/19/22 23/42/20 33/65/21
f 13/22/3 21/38/23 4/7/1
f 21/38/23 29/56/15 4/7/1
f 22/40/24 24/45/25 8/15/19
f 31/60/26 22/41/24 8/14/19
f 23/42/20 12/20/27 24/44/25
f 30/59/28 8/15/19 17/30/18
f 31/60/26 30/58/28 5/9/7
f 31/60/26 8/14/19 30/58/28
f 23/42/20 11/19/22 12/20/27
f 24/45/25 16/29/16 8/15/19
f 27/52/14 10/18/29 33/64/21
f 10/18/29 26/48/30 33/64/21
f 10/18/29 25/46/31 26/48/30
f 32/61/32 25/47/31 10/17/29
f 25/47/31 12/21/27 26/49/30
f 26/50/30 12/20/27 11/19/22
f 33/65/21 26/50/30 11/19/22
f 27/52/14 33/64/21 7/12/6
f 20/36/9 6/11/5 19/34/4
f 3/4/8 13/23/3 2/3/2
f 9/16/13 28/54/12 14/26/11
f 9/16/13 18/32/33 28/54/12
f 7/13/6 1/2/10 27/51/14
f 29/57/15 17/30/18 16/29/16
f 18/31/33 15/27/17 32/61/32
f 9/16/13 15/28/17 18/32/33
f 15/27/17 16/29/16 32/61/32
f 9/16/13 29/56/15 15/28/17
f 30/59/28 17/30/18 29/57/15
f 16/29/16 24/45/25 25/47/31
f 32/61/32 16/29/16 25/47/31
f 18/33/33 10/18/29 28/55/12
f 3/5/8 20/37/9 22/41/24
f 20/37/9 23/42/20 22/41/24
f 33/65/21 23/42/20 19/35/4
f 29/56/15 21/38/23 5/8/7
f 31/60/26 5/9/7 3/5/8
f 13/24/3 5/9/7 21/39/23
f 30/59/28 29/57/15 5/10/7
f 22/40/24 23/43/20 24/45/25
f 3/5/8 22/41/24 31/60/26
f 24/45/25 12/21/27 25/47/31
f 27/52/14 28/55/12 10/18/29
f 18/33/33 32/62/32 10/18/29
