{
  "asset": {
    "generator": "UnityGLTF",
    "version": "2.0"
  },
  "extensionsUsed": [
    "KHR_texture_transform"
  ],
  "scene": 0,
  "scenes": [
    {
      "nodes": [
        0
      ],
      "name": "2"
    }
  ],
  "accessors": [
    {
      "bufferView": 0,
      "componentType": 5126,
      "count": 60,
      "type": "VEC3",
      "max": [
        1.1239830255508423,
        0.8722350001335144,
        0.89164000749588013
      ],
      "min": [
        -1.1140079498291016,
        -1.0141229629516602,
        -1.0221550464630127
      ]
    },
    {
      "bufferView": 1,
      "componentType": 5126,
      "count": 60,
      "type": "VEC3",
      "max": [
        0.86945259571075439,
        0.99282699823379517,
        0.99455821514129639
      ],
      "min": [
        -0.89012402296066284,
        -0.96556627750396729,
        -0.98224616050720215
      ]
    },
    {
      "bufferView": 2,
      "componentType": 5126,
      "count": 60,
      "type": "VEC4",
      "max": [
        0.98223668336868286,
        0.3805077075958252,
        0.91969996690750122,
        1.0
      ],
      "min": [
        0.214252308011055,
        -0.719515860080719,
        -0.93316054344177246,
        1.0
      ]
    },
    {
      "bufferView": 3,
      "componentType": 5126,
      "count": 60,
      "type": "VEC2",
      "max": [
        0.97399801015853882,
        1.0080269575119019
      ],
      "min": [
        0.010595999658107758,
        0.013692975044250488
      ]
    },
    {
      "bufferView": 4,
      "componentType": 5126,
      "count": 60,
      "type": "VEC2",
      "max": [
        0.98190557956695557,
        0.99609375
      ],
      "min": [
        0.00390625,
        0.0067397952079772949
      ]
    },
    {
      "bufferView": 5,
      "componentType": 5121,
      "count": 60,
      "type": "SCALAR",
      "max": [
        59.0
      ],
      "min": [
        0.0
      ]
    }
  ],
  "buffers": [
    {
      "uri": "2.bin",
      "byteLength": 3420
    }
  ],
  "bufferViews": [
    {
      "buffer": 0,
      "byteLength": 720,
      "byteStride": 12,
      "target": 34962
    },
    {
      "buffer": 0,
      "byteOffset": 720,
      "byteLength": 720,
      "byteStride": 12,
      "target": 34962
    },
    {
      "buffer": 0,
      "byteOffset": 1440,
      "byteLength": 960,
      "target": 34962
    },
    {
      "buffer": 0,
      "byteOffset": 2400,
      "byteLength": 480,
      "target": 34962
    },
    {
      "buffer": 0,
      "byteOffset": 2880,
      "byteLength": 480,
      "target": 34962
    },
    {
      "buffer": 0,
      "byteOffset": 3360,
      "byteLength": 60,
      "target": 34963
    }
  ],
  "images": [
    {
      "uri": "planttex.jpg",
      "name": "planttex"
    }
  ],
  "materials": [
    {
      "pbrMetallicRoughness": {
        "baseColorTexture": {
          "index": 0,
          "extensions": {
            "KHR_texture_transform": {
              "offset": [
                0.0,
                -2.0
              ],
              "scale": [
                3.0,
                3.0
              ]
            }
          }
        },
        "metallicFactor": 0.0
      },
      "name": "BushMat"
    }
  ],
  "meshes": [
    {
      "primitives": [
        {
          "attributes": {
            "POSITION": 0,
            "NORMAL": 1,
            "TANGENT": 2,
            "TEXCOORD_0": 3,
            "TEXCOORD_1": 4
          },
          "indices": 5,
          "material": 0
        }
      ],
      "name": "bushmodel (4)"
    }
  ],
  "nodes": [
    {
      "mesh": 0,
      "rotation": [
        -0.7071068,
        0.0,
        0.0,
        0.7071068
      ],
      "translation": [
        120.3578,
        -250.4778,
        997.1956
      ],
      "name": "bushmodel (4)"
    }
  ],
  "samplers": [
    {
      "magFilter": 9728,
      "minFilter": 9728
    }
  ],
  "textures": [
    {
      "sampler": 0,
      "source": 0,
      "name": "planttex"
    }
  ]
}